<?xml version="1.0" encoding="UTF-8"?>
<!DOCTYPE svg PUBLIC "-//W3C//DTD SVG 1.1//EN" "http://www.w3.org/Graphics/SVG/1.1/DTD/svg11.dtd">
<!-- Creator: CorelDRAW 2019 (64-Bit) -->
<svg xmlns="http://www.w3.org/2000/svg" xml:space="preserve" width="283px" height="180px" version="1.1" style="shape-rendering:geometricPrecision; text-rendering:geometricPrecision; image-rendering:optimizeQuality; fill-rule:evenodd; clip-rule:evenodd"
viewBox="0 0 36.05 22.93"
 xmlns:xlink="http://www.w3.org/1999/xlink"
 enable-background="new 0 0 497 497">
 <defs>
  <style type="text/css">
   <![CDATA[
    .fil0 {fill:none}
    .fil6 {fill:#B36D3C}
    .fil2 {fill:#DD552D}
    .fil1 {fill:#E27C48}
    .fil3 {fill:#E29576}
    .fil5 {fill:#EBB044}
    .fil4 {fill:#FFD064}
   ]]>
  </style>
 </defs>
 <g id="Layer_x0020_1">
  <metadata id="CorelCorpID_0Corel-Layer"/>
  <rect class="fil0" width="36.05" height="22.93"/>
  <g id="backpack.svg">
   <g>
    <path class="fil1" d="M21.32 11.46c0,2.38 0.9,4.04 2.44,5.62 0.07,0.08 0.2,0.08 0.28,0l0.48 -0.47c0.07,-0.08 0.07,-0.21 0,-0.28 -1.44,-1.48 -2.16,-2.84 -2.16,-4.87l-1.04 0z"/>
    <path class="fil1" d="M11.53 16.61l0.47 0.47c0.08,0.08 0.21,0.08 0.29,0 0.37,-0.38 0.7,-0.77 0.99,-1.17l0.27 -0.98 -0.27 -1.16c-0.35,0.91 -0.93,1.72 -1.75,2.56 -0.08,0.07 -0.08,0.2 0,0.28l0 0z"/>
    <path class="fil2" d="M13.68 11.46c0,0.88 -0.13,1.63 -0.4,2.31l0 2.14c0.93,-1.25 1.44,-2.64 1.44,-4.45l-1.04 0 0 0z"/>
    <path class="fil3" d="M19.96 6.94c0,0 0,-0.47 0,-1.01 0,-0.81 0.47,-1.1 0.8,-1.1l1.6 0 0 4.91 -2.4 -2.8z"/>
    <path class="fil1" d="M21.56 10.29c0,0 0,-3.56 0,-4.36 0,-0.81 0.47,-1.1 0.8,-1.1 0.33,0 0.8,0.29 0.8,1.1l0 3.76c0,0.33 -0.27,0.6 -0.6,0.6 -0.35,0 -1,0 -1,0l0 0z"/>
    <path class="fil3" d="M16.09 6.94c0,0 0,-0.47 0,-1.01 0,-0.81 -0.47,-1.1 -0.8,-1.1 -0.34,0 -1.61,0 -1.61,0l0 4.91 2.41 -2.8z"/>
    <path class="fil1" d="M13.39 5.02c-0.15,0 -0.26,0.09 -0.26,0.09 -0.15,0.18 -0.25,0.44 -0.25,0.82l0 3.76c0,0.33 0.27,0.6 0.6,0.6l0.74 0c0,-0.89 0,-3.74 0,-4.29 0,-0.75 -0.5,-0.98 -0.83,-0.98l0 0z"/>
    <path class="fil2" d="M14.48 5.93c0,-0.81 -0.46,-1.1 -0.8,-1.1 -0.17,0 -0.39,0.08 -0.55,0.28 0.05,-0.01 0.1,-0.01 0.15,-0.01 0.33,0 0.8,0.24 0.8,0.9l0 4.29 0.4 0c0,0 0,-3.56 0,-4.36l0 0z"/>
    <path class="fil4" d="M13.68 14.63l8.68 0 0 -4.89c0,-1.53 -1.14,-3.04 -4.34,-3.04 -1.73,0 -2.87,0.45 -3.54,1.1 -0.27,0.45 -0.53,1.04 -0.53,1.54l-0.27 5.29z"/>
    <path class="fil5" d="M14.08 9.34c0,-0.5 0.13,-1.09 0.4,-1.54 -0.56,0.55 -0.8,1.24 -0.8,1.94l0 4.89 0.4 -1.06 0 -4.23z"/>
    <path class="fil6" d="M21.56 13.71c-0.11,0 -0.2,-0.09 -0.2,-0.2l0 -3.77c0,-0.38 -0.12,-0.94 -0.71,-1.38 -0.58,-0.43 -1.47,-0.65 -2.63,-0.65 -1.16,0 -2.04,0.22 -2.62,0.65 -0.59,0.44 -0.72,1 -0.72,1.38l0 3.77c0,0.11 -0.09,0.2 -0.2,0.2 -0.11,0 -0.2,-0.09 -0.2,-0.2l0 -3.77c0,-0.67 0.31,-1.28 0.88,-1.7 0.65,-0.49 1.61,-0.73 2.86,-0.73 1.25,0 2.22,0.24 2.87,0.73 0.56,0.42 0.87,1.03 0.87,1.7l0 3.77c0,0.11 -0.09,0.2 -0.2,0.2l0 0z"/>
    <path class="fil3" d="M22.36 14.63c0,-0.89 -0.72,-1.61 -1.6,-1.61l-5.47 0c-0.48,0 -0.91,0.21 -1.21,0.55l-0.13 3.06c0,0.66 0.54,1.2 1.2,1.2l5.88 0c0.34,0 0.79,-0.24 1.04,-0.42 0.19,-0.26 0.29,-0.57 0.29,-0.91l0 -1.87z"/>
    <path class="fil1" d="M15.29 17.7c-0.67,0 -1.21,-0.54 -1.21,-1.2l0 -2.93c-0.25,0.28 -0.4,0.65 -0.4,1.06l0 1.87c0,0.88 0.72,1.6 1.61,1.6l5.47 0c0.54,0 1.03,-0.28 1.31,-0.69 -0.25,0.18 -0.57,0.29 -0.91,0.29l-5.87 0z"/>
    <path class="fil6" d="M21.56 15.89c-0.11,0 -0.2,-0.09 -0.2,-0.2l0 -1.06c0,-0.33 -0.27,-0.6 -0.6,-0.6l-5.47 0c-0.34,0 -0.61,0.27 -0.61,0.6l0 1.06c0,0.11 -0.09,0.2 -0.2,0.2 -0.11,0 -0.2,-0.09 -0.2,-0.2l0 -1.06c0,-0.56 0.45,-1 1.01,-1l5.47 0c0.55,0 1,0.44 1,1l0 1.06c0,0.11 -0.09,0.2 -0.2,0.2l0 0z"/>
   </g>
  </g>
 </g>
</svg>
