<?xml version="1.0" encoding="UTF-8"?>
<!DOCTYPE svg PUBLIC "-//W3C//DTD SVG 1.1//EN" "http://www.w3.org/Graphics/SVG/1.1/DTD/svg11.dtd">
<!-- Creator: CorelDRAW 2019 (64-Bit) -->
<svg xmlns="http://www.w3.org/2000/svg" xml:space="preserve" width="283px" height="180px" version="1.1" style="shape-rendering:geometricPrecision; text-rendering:geometricPrecision; image-rendering:optimizeQuality; fill-rule:evenodd; clip-rule:evenodd"
viewBox="0 0 36.05 22.93"
 xmlns:xlink="http://www.w3.org/1999/xlink"
 enable-background="new 0 0 510.967 510.967">
 <defs>
  <style type="text/css">
   <![CDATA[
    .fil0 {fill:none}
    .fil6 {fill:black}
    .fil5 {fill:#99E6FC}
    .fil4 {fill:#FD8087}
    .fil3 {fill:#FFCEBF}
    .fil1 {fill:#FFDFCF}
    .fil2 {fill:#FFEEE6}
   ]]>
  </style>
 </defs>
 <g id="Layer_x0020_1">
  <metadata id="CorelCorpID_0Corel-Layer"/>
  <rect class="fil0" width="36.05" height="22.93"/>
  <g id="respectful.svg">
   <g>
    <g>
     <path class="fil1" d="M21.18 12.11l0 0.17 0.05 0.78 -0.64 0.63c0,0 -3.06,-3.47 -3.01,-3.48 0.04,-0.01 1.26,-0.36 1.26,-0.36l2.34 2.26z"/>
     <g>
      <path class="fil2" d="M20.85 13.08l-2.35 -2.35 -1.61 -1.65c-0.11,-0.11 -0.24,-0.2 -0.39,-0.25l-0.54 -0.21 -0.36 -0.36 -0.57 -0.74 -2.51 2.52 0.78 0.82 0.77 0.77 0 0.5c0,0.18 0.07,0.35 0.2,0.48l0.89 0.85 2.32 1.78 0.6 0.6c0.2,0.19 0.5,0.19 0.69,0 0.1,-0.09 0.15,-0.22 0.15,-0.34 0,-0.13 -0.05,-0.25 -0.15,-0.35 0.1,0.1 0.23,0.14 0.35,0.14 0.13,0 0.25,-0.04 0.35,-0.14 0.19,-0.19 0.19,-0.5 0,-0.69 0.09,0.1 0.22,0.14 0.34,0.14 0.13,0 0.25,-0.04 0.35,-0.14 0.19,-0.19 0.19,-0.5 0,-0.69 0.19,0.19 0.5,0.19 0.69,0 0.09,-0.09 0.14,-0.22 0.14,-0.34 0,-0.13 -0.05,-0.25 -0.14,-0.35l0 0z"/>
      <g id="XMLID_442_">
       <g>
        <path class="fil1" d="M17.5 14.54c0.19,0.18 0.19,0.49 0,0.68l-0.51 0.51c-0.19,0.19 -0.5,0.19 -0.68,0l-0.01 -0.01c-0.19,-0.19 -0.19,-0.49 0,-0.68l0.45 -0.46 0.06 -0.05c0.19,-0.19 0.49,-0.19 0.68,0l0.01 0.01z"/>
        <path class="fil1" d="M16.75 13.9c0.19,0.19 0.19,0.5 0,0.68l-0.45 0.46c-0.1,0.09 -0.22,0.14 -0.34,0.14 -0.13,0 -0.25,-0.05 -0.34,-0.14 -0.19,-0.19 -0.19,-0.49 0,-0.68l0.45 -0.46c0.1,-0.09 0.22,-0.14 0.34,-0.14 0.12,0 0.25,0.05 0.34,0.14z"/>
        <path class="fil1" d="M16.29 13.01c0.18,0.19 0.18,0.49 0,0.68l-0.22 0.21 -0.45 0.46c-0.1,0.09 -0.22,0.14 -0.34,0.14 -0.13,0 -0.25,-0.05 -0.34,-0.14 -0.19,-0.19 -0.19,-0.49 0,-0.68l0.41 -0.41 0.26 -0.26c0.09,-0.09 0.21,-0.14 0.34,-0.14 0.12,0 0.24,0.05 0.34,0.14z"/>
        <path class="fil1" d="M15.35 12.59c0.19,0.19 0.19,0.49 0,0.68l-0.41 0.41c-0.1,0.09 -0.22,0.14 -0.34,0.14 -0.12,0 -0.25,-0.05 -0.34,-0.14 -0.19,-0.19 -0.19,-0.49 0,-0.68l0.41 -0.41c0.1,-0.09 0.22,-0.14 0.34,-0.14 0.12,0 0.25,0.05 0.34,0.14z"/>
       </g>
      </g>
      <g id="XMLID_438_">
       <g>
        <path class="fil3" d="M16.62 15.36l0.45 -0.45 0.06 -0.06c0.13,-0.13 0.32,-0.17 0.49,-0.12 -0.03,-0.07 -0.07,-0.14 -0.12,-0.19l-0.01 -0.01c-0.19,-0.19 -0.49,-0.19 -0.68,0l-0.06 0.05 -0.45 0.46c-0.19,0.19 -0.19,0.49 0,0.68l0.01 0.01c0.05,0.05 0.12,0.09 0.19,0.12 -0.05,-0.17 -0.01,-0.36 0.12,-0.49l0 0z"/>
        <path class="fil3" d="M15.94 14.68l0.46 -0.45c0.09,-0.1 0.21,-0.14 0.33,-0.14 0.05,0 0.1,0 0.14,0.02 -0.02,-0.08 -0.06,-0.15 -0.12,-0.21 -0.09,-0.09 -0.22,-0.14 -0.34,-0.14 -0.12,0 -0.24,0.05 -0.34,0.14l-0.45 0.46c-0.19,0.19 -0.19,0.49 0,0.68 0.06,0.06 0.13,0.1 0.2,0.12 -0.05,-0.16 -0.01,-0.35 0.12,-0.48z"/>
        <path class="fil3" d="M15.26 14l0.41 -0.41 0.26 -0.26c0.09,-0.09 0.22,-0.14 0.34,-0.14 0.05,0 0.09,0.01 0.14,0.02 -0.03,-0.07 -0.07,-0.14 -0.12,-0.2 -0.1,-0.09 -0.22,-0.14 -0.34,-0.14 -0.13,0 -0.25,0.05 -0.34,0.14l-0.26 0.26 -0.41 0.41c-0.19,0.19 -0.19,0.49 0,0.68 0.06,0.06 0.13,0.1 0.2,0.12 -0.05,-0.16 -0.01,-0.35 0.12,-0.48l0 0z"/>
        <path class="fil3" d="M14.58 13.32l0.41 -0.41c0.1,-0.09 0.22,-0.14 0.34,-0.14 0.05,0 0.1,0.01 0.14,0.02 -0.02,-0.07 -0.06,-0.14 -0.12,-0.2 -0.09,-0.09 -0.22,-0.14 -0.34,-0.14 -0.12,0 -0.24,0.05 -0.34,0.14l-0.41 0.41c-0.19,0.19 -0.19,0.49 0,0.68 0.06,0.06 0.13,0.1 0.2,0.12 -0.05,-0.16 -0.01,-0.35 0.12,-0.48l0 0z"/>
       </g>
      </g>
      <g id="XMLID_440_">
       <g>
        <path class="fil1" d="M21.27 8.44l2.26 2.28 -0.31 0.35 -1.99 1.99 -2.81 -2.61 -0.93 0 -0.6 0.49c-0.23,0.19 -0.56,0.17 -0.77,-0.03 -0.11,-0.12 -0.16,-0.26 -0.16,-0.41 0,-0.15 0.05,-0.29 0.16,-0.4l0.73 -0.73c0.06,-0.06 0.15,-0.1 0.24,-0.1l1.91 0c0.07,0 0.13,0.02 0.19,0.05l0.71 0.4c0.04,0.02 0.08,0.01 0.1,-0.01l0.72 -0.7 0.55 -0.57z"/>
       </g>
      </g>
      <g>
       <path class="fil3" d="M16.54 10.71c0,-0.15 0.05,-0.3 0.17,-0.41l0.5 -0.51c0.21,-0.2 0.48,-0.31 0.77,-0.31l1.49 0 -0.28 -0.16c-0.06,-0.03 -0.12,-0.05 -0.19,-0.05l-1.91 0c-0.09,0 -0.18,0.04 -0.24,0.1l-0.73 0.73c-0.11,0.11 -0.16,0.25 -0.16,0.4 0,0.15 0.05,0.29 0.16,0.41 0.15,0.14 0.35,0.19 0.54,0.15 -0.08,-0.11 -0.12,-0.23 -0.12,-0.35l0 0z"/>
      </g>
      <path class="fil4" d="M24.21 10.57l-0.59 0.59c-0.09,0.09 -0.22,0.09 -0.31,0.01l-2.52 -2.42c-0.09,-0.08 -0.09,-0.22 -0.01,-0.31l1.29 -1.29c0.11,-0.1 0.29,-0.08 0.36,0.05l1.81 3.1c0.06,0.08 0.04,0.2 -0.03,0.27l0 0z"/>
      <path class="fil5" d="M11.82 9.54c-0.06,0.06 -0.06,0.15 0,0.21l0.87 0.88c0.14,0.13 0.35,0.13 0.48,0l2.44 -2.44c0.14,-0.14 0.14,-0.35 0,-0.48l-0.84 -0.85c-0.06,-0.06 -0.15,-0.06 -0.21,0l-2.74 2.68z"/>
     </g>
    </g>
    <g>
     <path class="fil6" d="M22.07 11.95l-1.05 1.04c-0.01,-0.01 -0.02,-0.03 -0.04,-0.04l-1.35 -1.35c-0.07,-0.08 -0.19,-0.08 -0.27,0 -0.07,0.07 -0.07,0.19 0,0.27l1.35 1.35c0.12,0.11 0.12,0.3 0,0.42 -0.12,0.11 -0.3,0.11 -0.42,0l-0.75 -0.75c-0.07,-0.08 -0.19,-0.08 -0.27,0 -0.07,0.07 -0.07,0.19 0,0.27l0.75 0.75c0,0 0,0 0,0 0.06,0.05 0.09,0.13 0.09,0.21 0,0.08 -0.03,0.15 -0.09,0.21 -0.06,0.05 -0.13,0.08 -0.21,0.08 -0.08,0 -0.15,-0.03 -0.21,-0.08l-0.75 -0.75c-0.07,-0.08 -0.19,-0.08 -0.27,0 -0.07,0.07 -0.07,0.19 0,0.27l0.75 0.75c0.12,0.11 0.12,0.3 0,0.42 -0.06,0.05 -0.13,0.08 -0.21,0.08 -0.08,0 -0.15,-0.03 -0.21,-0.08l-0.75 -0.75c-0.07,-0.08 -0.19,-0.08 -0.27,0 -0.07,0.07 -0.07,0.19 0,0.27l0.75 0.75c0.12,0.11 0.12,0.3 0,0.42 -0.06,0.05 -0.13,0.08 -0.21,0.08 -0.08,0 -0.15,-0.03 -0.21,-0.08l-0.49 -0.49c0.16,-0.26 0.13,-0.6 -0.1,-0.82l-0.01 -0.01c-0.15,-0.15 -0.35,-0.21 -0.54,-0.19 -0.01,-0.16 -0.08,-0.32 -0.19,-0.43 -0.09,-0.09 -0.2,-0.15 -0.32,-0.18 0.03,-0.07 0.05,-0.16 0.05,-0.24 0,-0.18 -0.07,-0.35 -0.2,-0.47 -0.13,-0.13 -0.29,-0.2 -0.47,-0.2 -0.11,0 -0.2,0.02 -0.29,0.07 -0.03,-0.11 -0.09,-0.21 -0.17,-0.3 -0.27,-0.26 -0.69,-0.26 -0.95,0l-0.08 0.08 -0.06 -0.05c-0.09,-0.1 -0.14,-0.22 -0.14,-0.35l0 -0.5c0,-0.05 -0.02,-0.1 -0.06,-0.13l-0.81 -0.82 0.23 -0.23c0.07,-0.07 0.07,-0.19 0,-0.27 -0.08,-0.07 -0.2,-0.07 -0.27,0l-0.31 0.31c-0.06,0.06 -0.15,0.06 -0.21,0l-0.98 -0.98c-0.08,-0.08 -0.2,-0.08 -0.27,0 -0.08,0.07 -0.08,0.19 0,0.27l0.98 0.98c0.1,0.1 0.24,0.16 0.37,0.16 0.05,0 0.09,-0.01 0.13,-0.02l0.82 0.81 0 0.42c0,0.23 0.09,0.45 0.25,0.62l0.06 0.05 -0.07 0.07c-0.12,0.12 -0.19,0.29 -0.19,0.47 0,0.18 0.07,0.35 0.19,0.48 0.14,0.13 0.31,0.19 0.48,0.19 0,0 0,0 0.01,0 0,0 0,0.01 0,0.01 0,0.18 0.07,0.35 0.19,0.47 0.13,0.13 0.3,0.2 0.48,0.2 0,0 0,0 0.01,0 -0.01,0.17 0.06,0.35 0.19,0.48 0.13,0.13 0.3,0.2 0.48,0.2 0,0 0,0 0,0 0,0.17 0.07,0.35 0.2,0.48l0.01 0.01c0.13,0.13 0.3,0.2 0.48,0.2 0.18,0 0.34,-0.07 0.47,-0.2l0.36 -0.35 0.47 0.47c0.13,0.12 0.3,0.2 0.48,0.2 0.18,0 0.35,-0.08 0.48,-0.2 0.14,-0.14 0.2,-0.32 0.2,-0.5 0,0 0.01,0.01 0.01,0.01 0.18,0 0.35,-0.08 0.48,-0.2 0.14,-0.14 0.2,-0.32 0.2,-0.5 0,0 0.01,0 0.01,0 0.17,0 0.35,-0.06 0.48,-0.19 0.13,-0.13 0.2,-0.3 0.2,-0.48 0,-0.01 0,-0.01 0,-0.02 0,0 0.01,0 0.01,0 0.17,0 0.35,-0.06 0.48,-0.19 0.14,-0.15 0.21,-0.34 0.2,-0.53l1.16 -1.16c0.07,-0.07 0.07,-0.2 0,-0.27 -0.08,-0.07 -0.2,-0.07 -0.27,0l0 0zm-7.68 1.6c-0.05,-0.06 -0.08,-0.13 -0.08,-0.21 0,-0.08 0.03,-0.15 0.08,-0.2l0.42 -0.42c0.05,-0.05 0.13,-0.08 0.2,-0.08 0.08,0 0.15,0.03 0.21,0.08 0.11,0.12 0.11,0.3 0,0.41l-0.42 0.42c-0.11,0.11 -0.29,0.11 -0.41,0l0 0zm0.89 0.76c-0.08,0 -0.15,-0.03 -0.21,-0.09 -0.05,-0.05 -0.08,-0.12 -0.08,-0.2 0,-0.08 0.03,-0.15 0.08,-0.2l0.42 -0.42 0.25 -0.25c0.06,-0.06 0.13,-0.09 0.21,-0.09 0.07,0 0.15,0.03 0.2,0.09 0.06,0.05 0.09,0.12 0.09,0.2 0,0.08 -0.03,0.15 -0.09,0.21l-0.67 0.66c-0.05,0.06 -0.13,0.09 -0.2,0.09l0 0zm0.47 0.59c-0.11,-0.11 -0.11,-0.29 0,-0.41l0.46 -0.45c0.05,-0.06 0.13,-0.09 0.2,-0.09 0.08,0 0.15,0.03 0.21,0.09 0.05,0.05 0.08,0.13 0.08,0.2 0,0.08 -0.03,0.15 -0.08,0.21l-0.46 0.45c-0.11,0.12 -0.3,0.12 -0.41,0l0 0zm1.1 0.69c-0.05,0.06 -0.13,0.09 -0.2,0.09 -0.08,0 -0.15,-0.03 -0.21,-0.09l-0.01 -0.01c-0.11,-0.11 -0.11,-0.29 0,-0.41l0.46 -0.45c0,0 0,0 0,0l0.05 -0.06c0.06,-0.06 0.13,-0.08 0.21,-0.08 0.07,0 0.15,0.02 0.2,0.08l0.01 0.01c0.12,0.11 0.12,0.3 0,0.41l-0.51 0.51z"/>
     <path class="fil6" d="M24.47 10.31c-0.08,-0.07 -0.2,-0.07 -0.27,0l-0.72 0.72c-0.01,0.01 -0.02,0.01 -0.03,0l-2.53 -2.42c-0.01,0 -0.01,-0.01 -0.01,-0.02 0,0 0,-0.01 0.01,-0.01l1.5 -1.5c0.07,-0.08 0.07,-0.2 0,-0.27 -0.08,-0.08 -0.2,-0.08 -0.27,0l-1.5 1.5c-0.08,0.07 -0.12,0.18 -0.12,0.29 0,0.09 0.03,0.17 0.08,0.24l-0.68 0.67 -0.65 -0.36c-0.08,-0.04 -0.18,-0.07 -0.28,-0.07l-1.83 0 -0.14 -0.14c-0.13,-0.13 -0.29,-0.23 -0.46,-0.29l-0.51 -0.2 -0.23 -0.23c0.12,-0.2 0.09,-0.47 -0.08,-0.65l-0.77 -0.76c-0.07,-0.08 -0.19,-0.08 -0.27,0 -0.07,0.07 -0.07,0.19 0,0.27l0.77 0.76c0.06,0.06 0.06,0.15 0,0.21l-1.56 1.56c-0.07,0.07 -0.07,0.19 0,0.27 0.04,0.04 0.09,0.05 0.14,0.05 0.05,0 0.09,-0.01 0.13,-0.05l1.38 -1.38 0.25 0.25c0.02,0.02 0.04,0.04 0.07,0.05l0.55 0.2c0.11,0.05 0.22,0.12 0.31,0.21 -0.01,0 -0.02,0.02 -0.04,0.03l-0.72 0.72c-0.15,0.15 -0.22,0.34 -0.22,0.54 0,0.2 0.07,0.4 0.22,0.54 0.15,0.15 0.34,0.22 0.54,0.22 0.17,0 0.34,-0.05 0.48,-0.17l0.55 -0.45 0.57 0 0.66 0.65c0.03,0.04 0.08,0.06 0.13,0.06 0.05,0 0.1,-0.02 0.14,-0.06 0.07,-0.07 0.07,-0.19 0,-0.27l-0.47 -0.47c0.01,-0.03 0.03,-0.06 0.03,-0.1 0,-0.11 -0.09,-0.19 -0.2,-0.19l-0.93 0c-0.04,0 -0.08,0.01 -0.12,0.04l-0.6 0.5c-0.15,0.12 -0.37,0.11 -0.51,-0.03 -0.07,-0.07 -0.11,-0.17 -0.11,-0.27 0,-0.1 0.04,-0.2 0.11,-0.27l0.72 -0.72c0.03,-0.03 0.07,-0.05 0.11,-0.05l1.91 0c0.03,0 0.07,0.01 0.09,0.03l0.72 0.4c0.1,0.06 0.24,0.04 0.33,-0.05l0.74 -0.73 2.06 1.97 -0.3 0.29c-0.07,0.08 -0.07,0.2 0,0.27 0.04,0.04 0.09,0.06 0.14,0.06 0.05,0 0.1,-0.02 0.13,-0.06l0.31 -0.3c0.07,0.05 0.16,0.08 0.24,0.08 0.11,0 0.21,-0.04 0.29,-0.12l0.72 -0.72c0.07,-0.07 0.07,-0.19 0,-0.27l0 0z"/>
    </g>
   </g>
  </g>
 </g>
</svg>
