<?xml version="1.0" encoding="UTF-8"?>
<!DOCTYPE svg PUBLIC "-//W3C//DTD SVG 1.1//EN" "http://www.w3.org/Graphics/SVG/1.1/DTD/svg11.dtd">
<!-- Creator: CorelDRAW 2019 (64-Bit) -->
<svg xmlns="http://www.w3.org/2000/svg" xml:space="preserve" width="283px" height="180px" version="1.1" style="shape-rendering:geometricPrecision; text-rendering:geometricPrecision; image-rendering:optimizeQuality; fill-rule:evenodd; clip-rule:evenodd"
viewBox="0 0 36.05 22.93"
 xmlns:xlink="http://www.w3.org/1999/xlink"
 enable-background="new 0 0 512 512">
 <defs>
  <style type="text/css">
   <![CDATA[
    .fil11 {fill:none}
    .fil6 {fill:#294B64}
    .fil2 {fill:#365E7D}
    .fil9 {fill:#3D8BD8}
    .fil1 {fill:#3F6D8E}
    .fil0 {fill:#477B9E}
    .fil8 {fill:#64A6F4}
    .fil7 {fill:#7FB3FA}
    .fil4 {fill:#8BCAFF}
    .fil10 {fill:#9CC5FA}
    .fil3 {fill:#B5DCFF}
    .fil5 {fill:#DBEDFF}
   ]]>
  </style>
 </defs>
 <g id="Layer_x0020_1">
  <metadata id="CorelCorpID_0Corel-Layer"/>
  <g id="camera.svg">
   <g>
    <path class="fil0" d="M22.44 7.99l0 -0.24c0,-0.62 -0.51,-1.12 -1.12,-1.12l-3.35 0c-0.62,0 -1.12,0.5 -1.12,1.12l0 0.24 5.59 0z"/>
    <path class="fil1" d="M19.43 6.63l-1.46 0c-0.62,0 -1.12,0.5 -1.12,1.12l0 0.24 1.46 0 0 -0.24c0,-0.62 0.5,-1.12 1.12,-1.12l0 0z"/>
    <path class="fil1" d="M15.01 9.55l0 5.62c0,0.4 -0.32,0.72 -0.72,0.72l9.46 0c0.4,0 0.72,-0.32 0.72,-0.72l0 -5.62 -9.46 0z"/>
    <path class="fil2" d="M16.4 15.17l0 -5.62 -1.39 0 0 5.62c0,0.4 -0.32,0.72 -0.72,0.72l1.39 0c0.4,0 0.72,-0.32 0.72,-0.72l0 0z"/>
    <path class="fil3" d="M23.75 7.99l-9.46 0c0.4,0 0.72,0.32 0.72,0.72l0 0.89 9.46 0 0 -0.89c0,-0.4 -0.32,-0.72 -0.72,-0.72l0 0z"/>
    <path class="fil3" d="M23.75 7.99l-9.46 0c0.4,0 0.72,0.32 0.72,0.72l0 0.89 9.46 0 0 -0.89c0,-0.4 -0.32,-0.72 -0.72,-0.72l0 0z"/>
    <path class="fil4" d="M15.68 7.99l-1.39 0c0.4,0 0.72,0.32 0.72,0.72l0 0.89 1.39 0 0 -0.89c0,-0.4 -0.32,-0.72 -0.72,-0.72l0 0z"/>
    <path class="fil0" d="M13.95 6.97l-1.27 0c-0.18,0 -0.32,0.14 -0.32,0.32l0 0.38c0,0.18 0.14,0.32 0.32,0.32l1.27 0c0.18,0 0.33,-0.14 0.33,-0.32l0 -0.38c0,-0.18 -0.15,-0.32 -0.33,-0.32z"/>
    <path class="fil1" d="M13.32 7.67l0 -0.38c0,-0.18 0.14,-0.32 0.32,-0.32l-0.96 0c-0.18,0 -0.32,0.14 -0.32,0.32l0 0.38c0,0.18 0.14,0.32 0.32,0.32l0.96 0c-0.18,0 -0.32,-0.14 -0.32,-0.32z"/>
    <path class="fil0" d="M11.57 9.55l0 5.62c0,0.4 0.33,0.72 0.72,0.72l2.05 0c0.4,0 0.72,-0.32 0.72,-0.72l0 -5.62 -3.49 0z"/>
    <path class="fil1" d="M12.88 15.17l0 -5.62 -1.31 0 0 5.62c0,0.4 0.33,0.72 0.72,0.72l1.31 0c-0.4,0 -0.72,-0.32 -0.72,-0.72z"/>
    <path class="fil5" d="M14.34 7.99l-2.05 0c-0.39,0 -0.72,0.32 -0.72,0.72l0 0.89 3.49 0 0 -0.89c0,-0.4 -0.32,-0.72 -0.72,-0.72z"/>
    <path class="fil3" d="M13.6 7.99l-1.31 0c-0.39,0 -0.72,0.32 -0.72,0.72l0 0.89 1.31 0 0 -0.89c0,-0.4 0.32,-0.72 0.72,-0.72z"/>
    <g>
     <g>
      <path class="fil2" d="M19.64 16.3c-2.07,0 -3.75,-1.69 -3.75,-3.76 0,-2.07 1.68,-3.76 3.75,-3.76 2.07,0 3.76,1.69 3.76,3.76 0,2.07 -1.69,3.76 -3.76,3.76z"/>
     </g>
    </g>
    <path class="fil6" d="M17.15 12.54c0,-1.86 1.35,-3.4 3.12,-3.7 -0.2,-0.04 -0.41,-0.06 -0.63,-0.06 -2.07,0 -3.75,1.69 -3.75,3.76 0,2.07 1.68,3.76 3.75,3.76 0.22,0 0.43,-0.02 0.63,-0.06 -1.77,-0.3 -3.12,-1.84 -3.12,-3.7z"/>
    <circle class="fil7" transform="matrix(0.0447502 -0.0447512 0.0447502 0.0447512 19.6412 12.5406)" r="46.48"/>
    <path class="fil8" d="M17.96 12.54c0,-1.41 0.99,-2.58 2.31,-2.87 -0.2,-0.05 -0.41,-0.07 -0.63,-0.07 -1.62,0 -2.94,1.32 -2.94,2.94 0,1.62 1.32,2.94 2.94,2.94 0.22,0 0.43,-0.02 0.63,-0.07 -1.32,-0.29 -2.31,-1.46 -2.31,-2.87z"/>
    <circle class="fil8" transform="matrix(0.0447502 -0.0447512 0.0447502 0.0447512 19.6412 12.5406)" r="28.49"/>
    <path class="fil9" d="M19.1 12.54c0,-0.77 0.49,-1.43 1.17,-1.69 -0.19,-0.07 -0.41,-0.11 -0.63,-0.11 -0.99,0 -1.8,0.81 -1.8,1.8 0,0.99 0.81,1.8 1.8,1.8 0.22,0 0.44,-0.04 0.63,-0.11 -0.68,-0.26 -1.17,-0.92 -1.17,-1.69z"/>
    <circle class="fil10" transform="matrix(0.0447502 -0.0447512 0.0447502 0.0447512 19.6412 12.5406)" r="8.68"/>
    <path class="fil7" d="M19.64 12.54c0,-0.2 0.11,-0.38 0.28,-0.47 -0.08,-0.05 -0.18,-0.08 -0.28,-0.08 -0.3,0 -0.55,0.25 -0.55,0.55 0,0.3 0.25,0.55 0.55,0.55 0.1,0 0.2,-0.03 0.28,-0.07 -0.17,-0.1 -0.28,-0.28 -0.28,-0.48z"/>
   </g>
  </g>
 </g>
 <g id="Layer_x0020_1_0">
  <metadata id="CorelCorpID_1Corel-Layer"/>
  <rect class="fil11" width="36.05" height="22.93"/>
 </g>
</svg>
