<?xml version="1.0" encoding="UTF-8"?>
<!DOCTYPE svg PUBLIC "-//W3C//DTD SVG 1.1//EN" "http://www.w3.org/Graphics/SVG/1.1/DTD/svg11.dtd">
<!-- Creator: CorelDRAW 2019 (64-Bit) -->
<svg xmlns="http://www.w3.org/2000/svg" xml:space="preserve" width="283px" height="180px" version="1.1" style="shape-rendering:geometricPrecision; text-rendering:geometricPrecision; image-rendering:optimizeQuality; fill-rule:evenodd; clip-rule:evenodd"
viewBox="0 0 36.05 22.93"
 xmlns:xlink="http://www.w3.org/1999/xlink">
 <defs>
  <style type="text/css">
   <![CDATA[
    .fil0 {fill:none}
    .fil2 {fill:#0D8944}
    .fil1 {fill:#0E9347}
    .fil3 {fill:#3BB54A}
    .fil4 {fill:#89C763}
    .fil10 {fill:#E78825}
    .fil9 {fill:#F19920}
    .fil6 {fill:#F6B545}
    .fil5 {fill:#FFCA5D}
    .fil7 {fill:#FFCB5B}
    .fil8 {fill:#FFE27A}
   ]]>
  </style>
 </defs>
 <g id="Layer_x0020_1">
  <metadata id="CorelCorpID_0Corel-Layer"/>
  <rect class="fil0" width="36.05" height="22.93"/>
  <g id="cash.svg">
   <path class="fil1" d="M23.86 13.21l-11.67 0c-0.33,0 -0.59,-0.26 -0.59,-0.58l0 -6.42c0,-0.32 0.26,-0.58 0.59,-0.58l11.67 0c0.32,0 0.58,0.26 0.58,0.58l0 6.42c0,0.32 -0.26,0.58 -0.58,0.58z"/>
   <path class="fil2" d="M22.4 10.88c-0.67,0 -1.28,0.32 -1.63,0.85 -0.3,-0.15 -0.62,-0.27 -1,-0.27 -1.02,0 -1.86,0.76 -2.01,1.75l6.1 0c0.29,0 0.53,-0.2 0.58,-0.49 -0.11,-1.02 -0.99,-1.84 -2.04,-1.84z"/>
   <path class="fil3" d="M22.69 12.63l-9.34 0c0,-0.64 -0.52,-1.17 -1.16,-1.17l0 -4.08c0.64,0 1.16,-0.53 1.16,-1.17l9.34 0c0,0.64 0.53,1.17 1.17,1.17l0 4.08c-0.64,0 -1.17,0.53 -1.17,1.17z"/>
   <g>
    <path class="fil1" d="M22.4 10.88c-0.67,0 -1.28,0.32 -1.63,0.85 -0.3,-0.15 -0.62,-0.27 -1,-0.27 -0.81,0 -1.51,0.47 -1.83,1.17l4.75 0c0,-0.64 0.5,-1.14 1.14,-1.17 -0.38,-0.35 -0.87,-0.58 -1.43,-0.58z"/>
    <ellipse class="fil1" cx="18.02" cy="9.42" rx="2.34" ry="2.63"/>
    <circle class="fil1" cx="14.52" cy="9.42" r="0.58"/>
    <circle class="fil1" cx="21.53" cy="9.42" r="0.58"/>
   </g>
   <path class="fil4" d="M18.31 9.13l-0.58 0c-0.17,0 -0.29,-0.12 -0.29,-0.29 0,-0.18 0.12,-0.3 0.29,-0.3l0.88 0c0.17,0 0.29,-0.11 0.29,-0.29 0,-0.17 -0.12,-0.29 -0.29,-0.29l-0.3 0c0,-0.17 -0.11,-0.29 -0.29,-0.29 -0.17,0 -0.29,0.12 -0.29,0.29 -0.5,0 -0.87,0.38 -0.87,0.88 0,0.49 0.37,0.87 0.87,0.87l0.58 0c0.18,0 0.3,0.12 0.3,0.29 0,0.18 -0.12,0.3 -0.3,0.3l-0.87 0c-0.18,0 -0.29,0.11 -0.29,0.29 0,0.17 0.11,0.29 0.29,0.29l0.29 0c0,0.17 0.12,0.29 0.29,0.29 0.18,0 0.29,-0.12 0.29,-0.29 0.5,0 0.88,-0.38 0.88,-0.88 0,-0.49 -0.38,-0.87 -0.88,-0.87z"/>
   <circle class="fil5" cx="19.19" cy="13.51" r="2.04"/>
   <circle class="fil6" cx="21.82" cy="12.92" r="2.04"/>
   <path class="fil7" d="M21.82 10.88c-1.14,0 -2.05,0.9 -2.05,2.04 0,1.14 0.91,2.05 2.05,2.05 1.14,0 2.04,-0.91 2.04,-2.05 0,-1.14 -0.9,-2.04 -2.04,-2.04zm0 3.5c-0.82,0 -1.46,-0.64 -1.46,-1.46 0,-0.81 0.64,-1.46 1.46,-1.46 0.81,0 1.46,0.65 1.46,1.46 0,0.82 -0.65,1.46 -1.46,1.46z"/>
   <path class="fil6" d="M21.82 14.94l0 0c1.14,0.03 2.04,-0.91 2.04,-2.02l-0.03 0c-0.14,0 -0.26,0.12 -0.29,0.27 -0.06,0.4 -0.26,0.78 -0.56,1.05 -0.23,0.23 -0.55,0.38 -0.9,0.43 -0.15,0 -0.26,0.12 -0.26,0.27z"/>
   <path class="fil8" d="M21.82 10.91l0 0c-1.14,-0.03 -2.05,0.9 -2.05,2.01l0.03 0c0.15,0 0.27,-0.11 0.29,-0.26 0.06,-0.41 0.27,-0.79 0.56,-1.05 0.23,-0.23 0.55,-0.38 0.9,-0.44 0.15,0 0.27,-0.12 0.27,-0.26z"/>
   <path class="fil9" d="M20.56 13.13c0,-0.82 0.64,-1.46 1.46,-1.46 0.35,0 0.67,0.11 0.94,0.35 -0.3,-0.35 -0.68,-0.56 -1.14,-0.56 -0.82,0 -1.46,0.65 -1.46,1.46 0,0.47 0.2,0.85 0.52,1.11 -0.2,-0.23 -0.32,-0.55 -0.32,-0.9z"/>
   <path class="fil7" d="M22.69 13.83c-0.03,0 -0.06,0 -0.08,-0.03 -0.06,-0.06 -0.06,-0.15 0,-0.21 0.17,-0.17 0.26,-0.43 0.26,-0.67 0,-0.09 0.06,-0.14 0.14,-0.14 0.09,0 0.15,0.05 0.15,0.14 0,0.32 -0.12,0.64 -0.32,0.88 -0.06,0.03 -0.12,0.03 -0.15,0.03z"/>
   <g>
    <path class="fil9" d="M21.82 13.8c-0.18,0 -0.29,-0.12 -0.29,-0.29l0 -1.17c0,-0.18 0.11,-0.29 0.29,-0.29 0.17,0 0.29,0.11 0.29,0.29l0 1.17c0,0.17 -0.12,0.29 -0.29,0.29z"/>
    <path class="fil9" d="M22.9 14.64c-0.21,-0.73 -0.73,-1.31 -1.4,-1.57 -0.12,-0.67 -0.56,-1.26 -1.11,-1.61 -0.35,0.38 -0.59,0.88 -0.59,1.43 0,1.14 0.91,2.05 2.05,2.05 0.38,0.03 0.73,-0.09 1.05,-0.3z"/>
   </g>
   <g>
    <path class="fil10" d="M20.88 14.03c-0.2,-0.26 -0.35,-0.58 -0.35,-0.93 0,-0.41 0.18,-0.79 0.47,-1.05 -0.06,-0.09 -0.12,-0.15 -0.18,-0.21 -0.29,0.27 -0.46,0.64 -0.46,1.08 0,0.47 0.2,0.85 0.52,1.11z"/>
    <path class="fil10" d="M21.53 13.1l0 0.41c0,0.17 0.11,0.29 0.29,0.29 0.17,0 0.29,-0.12 0.29,-0.29l0 -0.06c-0.18,-0.15 -0.38,-0.26 -0.58,-0.35z"/>
   </g>
   <path class="fil6" d="M22.9 14.64c-0.06,-0.2 -0.12,-0.37 -0.24,-0.55 -0.23,0.18 -0.52,0.29 -0.84,0.29 -0.82,0 -1.46,-0.64 -1.46,-1.46 0,-0.44 0.17,-0.81 0.46,-1.08 -0.14,-0.14 -0.29,-0.26 -0.46,-0.35 -0.35,0.38 -0.59,0.88 -0.59,1.43 0,1.14 0.91,2.05 2.05,2.05 0.41,0 0.76,-0.12 1.08,-0.33z"/>
   <path class="fil9" d="M22.81 14.38c-0.2,0.15 -0.47,0.24 -0.73,0.29 -0.15,0.03 -0.26,0.15 -0.26,0.3l0 0c0.41,0 0.76,-0.12 1.08,-0.33 -0.03,-0.08 -0.06,-0.17 -0.09,-0.26z"/>
   <path class="fil7" d="M20.36 11.49c-0.35,0.38 -0.59,0.88 -0.59,1.43l0.03 0c0.15,0 0.27,-0.11 0.29,-0.26 0.06,-0.41 0.27,-0.76 0.53,-1.02 -0.09,-0.03 -0.17,-0.09 -0.26,-0.15z"/>
   <circle class="fil6" cx="19.19" cy="13.51" r="2.04"/>
   <path class="fil9" d="M18.9 14.97c0,0.2 0.03,0.38 0.09,0.58 0.05,0 0.14,0 0.2,0 1.14,0 2.04,-0.91 2.04,-2.04 0,-0.21 -0.03,-0.38 -0.08,-0.59 -0.06,0 -0.15,0 -0.21,0 -1.14,0 -2.04,0.91 -2.04,2.05z"/>
   <path class="fil7" d="M19.19 11.46c-1.14,0 -2.04,0.91 -2.04,2.05 0,1.13 0.9,2.04 2.04,2.04 1.14,0 2.04,-0.91 2.04,-2.04 0,-1.14 -0.9,-2.05 -2.04,-2.05zm0 3.51c-0.82,0 -1.46,-0.65 -1.46,-1.46 0,-0.82 0.64,-1.46 1.46,-1.46 0.82,0 1.46,0.64 1.46,1.46 0,0.81 -0.64,1.46 -1.46,1.46z"/>
   <path class="fil6" d="M19.19 15.52l0 0c1.14,0.03 2.04,-0.9 2.04,-2.01l-0.03 0c-0.14,0 -0.26,0.11 -0.29,0.26 -0.06,0.41 -0.26,0.79 -0.55,1.05 -0.24,0.23 -0.56,0.38 -0.91,0.44 -0.14,0 -0.26,0.11 -0.26,0.26z"/>
   <path class="fil8" d="M19.19 11.49l0 0c-1.14,-0.03 -2.04,0.91 -2.04,2.02l0.03 0c0.14,0 0.26,-0.12 0.29,-0.27 0.06,-0.41 0.26,-0.78 0.55,-1.05 0.24,-0.23 0.56,-0.38 0.91,-0.44 0.14,0 0.26,-0.11 0.26,-0.26z"/>
   <path class="fil9" d="M17.94 13.71c0,-0.82 0.64,-1.46 1.45,-1.46 0.35,0 0.68,0.12 0.94,0.35 -0.29,-0.35 -0.67,-0.55 -1.14,-0.55 -0.82,0 -1.46,0.64 -1.46,1.46 0,0.46 0.21,0.84 0.53,1.11 -0.21,-0.24 -0.32,-0.56 -0.32,-0.91z"/>
   <path class="fil7" d="M20.07 14.41c-0.03,0 -0.06,0 -0.09,-0.03 -0.06,-0.06 -0.06,-0.14 0,-0.2 0.17,-0.18 0.26,-0.44 0.26,-0.67 0,-0.09 0.06,-0.15 0.15,-0.15 0.08,0 0.14,0.06 0.14,0.15 0,0.32 -0.11,0.64 -0.32,0.87 -0.06,0.03 -0.12,0.03 -0.14,0.03z"/>
   <path class="fil9" d="M19.19 14.38c-0.17,0 -0.29,-0.11 -0.29,-0.29l0 -1.17c0,-0.17 0.12,-0.29 0.29,-0.29 0.18,0 0.29,0.12 0.29,0.29l0 1.17c0,0.18 -0.11,0.29 -0.29,0.29z"/>
   <g>
    <path class="fil6" d="M20.53 12.95c0.06,0.18 0.12,0.35 0.12,0.56 0,0.81 -0.64,1.46 -1.46,1.46 -0.09,0 -0.2,0 -0.29,-0.03l0 0.03c0,0.2 0.03,0.38 0.09,0.58 0.05,0 0.14,0 0.2,0 1.14,0 2.04,-0.91 2.04,-2.04 0,-0.21 -0.03,-0.38 -0.08,-0.59 -0.06,0 -0.15,0 -0.21,0 -0.14,0 -0.26,0 -0.41,0.03z"/>
    <circle class="fil6" cx="20.65" cy="15.26" r="2.04"/>
   </g>
   <path class="fil7" d="M20.65 13.21c-1.14,0 -2.04,0.91 -2.04,2.05 0,1.14 0.9,2.04 2.04,2.04 1.14,0 2.04,-0.9 2.04,-2.04 0,-1.14 -0.9,-2.05 -2.04,-2.05zm0 3.51c-0.82,0 -1.46,-0.65 -1.46,-1.46 0,-0.82 0.64,-1.46 1.46,-1.46 0.82,0 1.46,0.64 1.46,1.46 0,0.81 -0.64,1.46 -1.46,1.46z"/>
   <path class="fil6" d="M20.65 17.27l0 0c1.14,0.03 2.04,-0.9 2.04,-2.01l-0.03 0c-0.14,0 -0.26,0.11 -0.29,0.26 -0.06,0.41 -0.26,0.79 -0.55,1.05 -0.24,0.23 -0.56,0.38 -0.91,0.44 -0.14,0 -0.26,0.12 -0.26,0.26z"/>
   <path class="fil8" d="M20.65 13.24l0 0c-1.14,-0.03 -2.04,0.91 -2.04,2.02l0.03 0c0.14,0 0.26,-0.12 0.29,-0.27 0.06,-0.4 0.26,-0.78 0.55,-1.05 0.24,-0.23 0.56,-0.38 0.91,-0.43 0.14,0 0.26,-0.12 0.26,-0.27z"/>
   <path class="fil9" d="M19.39 15.46c0,-0.82 0.65,-1.46 1.46,-1.46 0.35,0 0.68,0.12 0.94,0.35 -0.29,-0.35 -0.67,-0.55 -1.14,-0.55 -0.82,0 -1.46,0.64 -1.46,1.46 0,0.46 0.2,0.84 0.53,1.11 -0.21,-0.24 -0.33,-0.56 -0.33,-0.91z"/>
   <path class="fil7" d="M21.53 16.16c-0.03,0 -0.06,0 -0.09,-0.03 -0.06,-0.06 -0.06,-0.14 0,-0.2 0.17,-0.18 0.26,-0.44 0.26,-0.67 0,-0.09 0.06,-0.15 0.15,-0.15 0.08,0 0.14,0.06 0.14,0.15 0,0.32 -0.11,0.64 -0.32,0.87 -0.06,0.03 -0.12,0.03 -0.14,0.03z"/>
   <path class="fil9" d="M20.65 16.13c-0.18,0 -0.29,-0.11 -0.29,-0.29l0 -1.17c0,-0.17 0.11,-0.29 0.29,-0.29 0.17,0 0.29,0.12 0.29,0.29l0 1.17c0,0.18 -0.12,0.29 -0.29,0.29z"/>
   <g>
   </g>
   <g>
   </g>
   <g>
   </g>
   <g>
   </g>
   <g>
   </g>
   <g>
   </g>
   <g>
   </g>
   <g>
   </g>
   <g>
   </g>
   <g>
   </g>
   <g>
   </g>
   <g>
   </g>
   <g>
   </g>
   <g>
   </g>
   <g>
   </g>
  </g>
 </g>
</svg>
