<?xml version="1.0" encoding="UTF-8"?>
<!DOCTYPE svg PUBLIC "-//W3C//DTD SVG 1.1//EN" "http://www.w3.org/Graphics/SVG/1.1/DTD/svg11.dtd">
<!-- Creator: CorelDRAW 2019 (64-Bit) -->
<svg xmlns="http://www.w3.org/2000/svg" xml:space="preserve" width="283px" height="180px" version="1.1" style="shape-rendering:geometricPrecision; text-rendering:geometricPrecision; image-rendering:optimizeQuality; fill-rule:evenodd; clip-rule:evenodd"
viewBox="0 0 36.05 22.93"
 xmlns:xlink="http://www.w3.org/1999/xlink">
 <defs>
  <style type="text/css">
   <![CDATA[
    .fil0 {fill:none}
    .fil1 {fill:#348ED8}
    .fil4 {fill:#91563A}
    .fil9 {fill:#C7483C}
    .fil6 {fill:#CECECC}
    .fil5 {fill:#D65246}
    .fil7 {fill:#DFDFDD}
    .fil8 {fill:#F1F1F1}
    .fil2 {fill:#FCB079}
    .fil3 {fill:#FDC8A2}
   ]]>
  </style>
 </defs>
 <g id="Layer_x0020_1">
  <metadata id="CorelCorpID_0Corel-Layer"/>
  <rect class="fil0" width="36.05" height="22.93"/>
  <g id="comfort-zone.svg">
   <g id="Flat">
    <path class="fil1" d="M22.3 16.95l-4.39 0 0.97 -3.68c0.08,-0.29 0.34,-0.49 0.64,-0.49l3.03 0c0,0 0,0 0,0 0.36,0 0.66,0.3 0.66,0.66 0,0.06 -0.01,0.11 -0.02,0.17l-0.89 3.34z"/>
    <path class="fil2" d="M21.65 10.58l0.65 -0.43 -1.75 -1.71 0.88 -1.15 1.82 1.37c0.51,0.38 0.81,0.98 0.81,1.62 0,0 0,0 0,0 0,0.73 -0.39,1.41 -1.02,1.77l-0.52 0.29 -0.87 -1.76z"/>
    <path class="fil2" d="M14.84 9.93l1.76 -0.66 -0.44 -1.1 2.85 -0.44 0.22 -1.32 -3.33 0c0,0 0,0 0,0 -0.64,0 -1.23,0.39 -1.48,0.98 -0.09,0.2 -0.13,0.41 -0.13,0.63 0,0.17 0.03,0.35 0.08,0.51l0.47 1.4z"/>
    <path class="fil3" d="M18.82 6.52l-1.29 1.08 0.46 0.19 -0.49 1.14c-0.03,0.06 -0.04,0.12 -0.04,0.19 0,0.2 0.12,0.38 0.3,0.45l0.46 0.2 -0.69 1.59 1.85 0.77 1.99 -4.55 -2.55 -1.06z"/>
    <path class="fil4" d="M21.56 7.12l-0.89 2.05 -0.16 -0.87 -0.81 1.5c-0.11,0.22 -0.33,0.35 -0.58,0.35 -0.1,0 -0.19,-0.02 -0.28,-0.06l-1.08 -0.52c-0.18,-0.07 -0.3,-0.25 -0.3,-0.45 0,-0.07 0.01,-0.13 0.04,-0.19l0.15 -0.36 0.2 -0.46 0.14 -0.32 1.16 0.48 1.08 -0.75c0.06,-0.05 0.1,-0.13 0.1,-0.21 0,-0.09 -0.04,-0.17 -0.12,-0.21l-1.39 -0.58c-0.28,-0.11 -0.46,-0.38 -0.46,-0.68 0,-0.1 0.02,-0.2 0.06,-0.29 0.13,-0.28 0.4,-0.46 0.7,-0.46 0.1,0 0.2,0.02 0.29,0.06l1.62 0.68c0.37,0.15 0.62,0.51 0.62,0.9 0,0.14 -0.03,0.27 -0.09,0.39l0 0z"/>
    <polygon class="fil4" points="18.69,7.53 18.89,7.08 19.29,7.25 19.09,7.71 "/>
    <polygon class="fil5" points="14.84,9.93 16.6,9.27 17.25,10.58 20.11,11.46 21.65,10.58 22.52,12.34 20.77,13.66 19.67,16.95 14.18,16.95 15.5,11.9 "/>
    <path class="fil3" d="M18.68 8.71c-0.1,0.08 -0.23,0.12 -0.35,0.12 -0.01,0 -0.02,0 -0.02,0 -0.12,0 -0.23,-0.02 -0.33,-0.06 -0.12,-0.05 -0.23,-0.12 -0.33,-0.2l0.2 -0.46c0.02,0.06 0.08,0.16 0.28,0.24 0.15,0.07 0.26,0.04 0.29,0.01l0.26 0.35z"/>
    <polygon class="fil4" points="11.54,16.95 24.28,16.95 24.28,17.83 11.54,17.83 "/>
    <polygon class="fil6" points="12.42,16.07 19.01,16.07 19.01,16.95 12.42,16.95 "/>
    <path class="fil7" d="M16.48 16.95l-3.72 0c-0.2,0 -0.37,-0.13 -0.42,-0.32l-0.78 -2.92c-0.01,-0.03 -0.02,-0.07 -0.02,-0.1 0,-0.22 0.18,-0.39 0.39,-0.39l3.88 0c0.2,0 0.38,0.14 0.43,0.34l0.67 2.85c0.01,0.04 0.01,0.07 0.01,0.1 0,0.25 -0.2,0.44 -0.44,0.44l0 0z"/>
    <ellipse class="fil8" transform="matrix(0.0476544 -0.0498612 0.0498612 0.0476544 14.1819 15.1909)" rx="6.09" ry="6.66"/>
    <polygon class="fil5" points="21.43,14.1 23.4,14.1 23.4,16.95 21.43,16.95 "/>
    <path class="fil9" d="M23.96 14.54l-0.56 0 0 0.44 0.56 0c0.06,0 0.1,0.04 0.1,0.1l0 0.9c0,0.05 -0.04,0.09 -0.1,0.09l-0.56 0 0 0.44 0.56 0c0.3,0 0.54,-0.24 0.54,-0.53l0 -0.9c0,-0.3 -0.24,-0.54 -0.54,-0.54l0 0z"/>
   </g>
  </g>
 </g>
</svg>
