<?xml version="1.0" encoding="UTF-8"?>
<!DOCTYPE svg PUBLIC "-//W3C//DTD SVG 1.1//EN" "http://www.w3.org/Graphics/SVG/1.1/DTD/svg11.dtd">
<!-- Creator: CorelDRAW 2019 (64-Bit) -->
<svg xmlns="http://www.w3.org/2000/svg" xml:space="preserve" width="283px" height="180px" version="1.1" style="shape-rendering:geometricPrecision; text-rendering:geometricPrecision; image-rendering:optimizeQuality; fill-rule:evenodd; clip-rule:evenodd"
viewBox="0 0 36.05 22.93"
 xmlns:xlink="http://www.w3.org/1999/xlink">
 <defs>
  <style type="text/css">
   <![CDATA[
    .fil0 {fill:none}
    .fil5 {fill:#231F20}
    .fil4 {fill:#FF734F}
    .fil3 {fill:#FFC170}
    .fil1 {fill:#FFD6A0}
    .fil2 {fill:white}
   ]]>
  </style>
 </defs>
 <g id="Layer_x0020_1">
  <metadata id="CorelCorpID_0Corel-Layer"/>
  <rect class="fil0" width="36.05" height="22.93"/>
  <g id="first-aid.svg">
   <path class="fil1" d="M16.11 6.79c0,-0.47 0.38,-0.85 0.85,-0.85l2.12 0c0.47,0 0.85,0.38 0.85,0.85l0 1.06 0.64 0 0 -1.27c0,-0.7 -0.57,-1.27 -1.27,-1.27l-2.55 0c-0.7,0 -1.27,0.57 -1.27,1.27l0 1.27 0.63 0 0 -1.06zm0 0z"/>
   <path class="fil2" d="M19.08 5.94l-2.12 0c-0.47,0 -0.85,0.38 -0.85,0.85l0 1.06 3.82 0 0 -1.06c0,-0.47 -0.38,-0.85 -0.85,-0.85l0 0zm0 0z"/>
   <path class="fil1" d="M20.78 7.85l-5.52 0c-1.87,0 -3.39,1.52 -3.39,3.4l0 6.37 12.31 0 0 -6.37c0,-1.88 -1.52,-3.4 -3.4,-3.4l0 0zm-2.76 8.5c-1.64,0 -2.97,-1.34 -2.97,-2.98 0,-1.64 1.33,-2.97 2.97,-2.97 1.64,0 2.97,1.33 2.97,2.97 0,1.64 -1.33,2.98 -2.97,2.98zm0 0z"/>
   <path class="fil3" d="M18.02 10.4c-1.64,0 -2.97,1.33 -2.97,2.97 0,1.64 1.33,2.98 2.97,2.98 1.64,0 2.97,-1.34 2.97,-2.98 0,-1.64 -1.33,-2.97 -2.97,-2.97zm1.7 3.4l-1.27 0 0 1.27 -0.85 0 0 -1.27 -1.28 0 0 -0.85 1.28 0 0 -1.27 0.85 0 0 1.27 1.27 0 0 0.85zm0 0z"/>
   <path class="fil4" d="M18.45 11.68l-0.85 0 0 1.27 -1.28 0 0 0.85 1.28 0 0 1.27 0.85 0 0 -1.27 1.27 0 0 -0.85 -1.27 0 0 -1.27zm0 0z"/>
   <g>
    <path class="fil5" d="M20.78 7.64l0 -1.06c0,-0.82 -0.66,-1.48 -1.48,-1.49l-2.55 0c-0.82,0.01 -1.49,0.67 -1.49,1.49l0 1.06c-1.99,0 -3.6,1.62 -3.61,3.61l0 6.37c0,0.12 0.1,0.21 0.22,0.21l12.31 0c0.12,0 0.21,-0.09 0.21,-0.21l0 -6.37c0,-1.99 -1.62,-3.61 -3.61,-3.61l0 0zm-5.09 -1.06c0,-0.59 0.47,-1.06 1.06,-1.06l2.55 0c0.58,0 1.06,0.47 1.06,1.06l0 1.06 -0.21 0 0 -0.85c-0.01,-0.58 -0.48,-1.06 -1.07,-1.06l-2.12 0c-0.58,0 -1.06,0.48 -1.06,1.06l0 0.85 -0.21 0 0 -1.06zm0.63 1.06l0 -0.85c0,-0.35 0.29,-0.63 0.64,-0.63l2.12 0c0.36,0 0.64,0.28 0.64,0.63l0 0.85 -3.4 0zm7.65 9.77l-11.89 0 0 -6.16c0,-1.76 1.43,-3.18 3.18,-3.18l5.52 0c1.76,0 3.18,1.42 3.19,3.18l0 6.16zm0 0z"/>
    <path class="fil5" d="M19.72 12.74l-1.06 0 0 -1.06c0,-0.12 -0.1,-0.22 -0.21,-0.22l-0.85 0c-0.12,0 -0.21,0.1 -0.21,0.22l0 1.06 -1.07 0c-0.11,0 -0.21,0.09 -0.21,0.21l0 0.85c0,0.12 0.1,0.21 0.21,0.21l1.07 0 0 1.06c0,0.12 0.09,0.21 0.21,0.21l0.85 0c0.11,0 0.21,-0.09 0.21,-0.21l0 -1.06 1.06 0c0.12,0 0.21,-0.09 0.21,-0.21l0 -0.85c0,-0.12 -0.09,-0.21 -0.21,-0.21zm-0.21 0.85l-1.06 0c-0.12,0 -0.22,0.09 -0.22,0.21l0 1.06 -0.42 0 0 -1.06c0,-0.12 -0.09,-0.21 -0.21,-0.21l-1.06 0 0 -0.43 1.06 0c0.12,0 0.21,-0.09 0.21,-0.21l0 -1.06 0.42 0 0 1.06c0,0.12 0.1,0.21 0.22,0.21l1.06 0 0 0.43zm0 0z"/>
    <path class="fil5" d="M18.02 10.19c-1.76,0 -3.18,1.43 -3.18,3.18 0,1.76 1.42,3.19 3.18,3.19 1.76,0 3.19,-1.43 3.19,-3.19 -0.01,-1.75 -1.43,-3.18 -3.19,-3.18zm0 5.94c-1.52,0 -2.76,-1.23 -2.76,-2.76 0,-1.52 1.24,-2.76 2.76,-2.76 1.53,0 2.76,1.24 2.76,2.76 0,1.53 -1.23,2.76 -2.76,2.76zm0 0z"/>
   </g>
  </g>
 </g>
</svg>
