<?xml version="1.0" encoding="UTF-8"?>
<!DOCTYPE svg PUBLIC "-//W3C//DTD SVG 1.1//EN" "http://www.w3.org/Graphics/SVG/1.1/DTD/svg11.dtd">
<!-- Creator: CorelDRAW 2019 (64-Bit) -->
<svg xmlns="http://www.w3.org/2000/svg" xml:space="preserve" width="884px" height="562px" version="1.1" style="shape-rendering:geometricPrecision; text-rendering:geometricPrecision; image-rendering:optimizeQuality; fill-rule:evenodd; clip-rule:evenodd"
viewBox="0 0 79.76 50.7"
 xmlns:xlink="http://www.w3.org/1999/xlink"
 data-name="Layer 5">
 <defs>
  <style type="text/css">
   <![CDATA[
    .fil1 {fill:none}
    .fil3 {fill:#0286E7}
    .fil9 {fill:#0A395C}
    .fil7 {fill:#0C6693}
    .fil8 {fill:#0D527C}
    .fil6 {fill:#2AAFF5}
    .fil0 {fill:#BBE8E1}
    .fil5 {fill:#DD9505}
    .fil4 {fill:#FDC12A}
    .fil2 {fill:#FFAF00}
   ]]>
  </style>
 </defs>
 <g id="Layer_x0020_1">
  <metadata id="CorelCorpID_0Corel-Layer"/>
  <circle class="fil0" cx="39.88" cy="25.35" r="20.3"/>
  <rect class="fil1" width="79.76" height="50.71"/>
  <g id="flight-tickets.svg">
   <polygon class="fil2" points="37.4,32.02 45.02,32.02 45.02,36.97 37.4,36.97 "/>
   <path class="fil1" d="M43.58 32.78l-1.61 0 0 0.38c0.52,-0.2 1.06,-0.33 1.61,-0.38l0 0z"/>
   <path class="fil3" d="M37.4 32.78l6.18 0c0.24,-0.03 0.48,-0.04 0.72,-0.04 0.24,0 0.48,0.01 0.72,0.04l4.19 -3.05c1.05,-0.71 2.04,-1 2.66,-0.38 0.63,0.63 0.38,1.52 -0.38,2.67l-0.64 0.76 1.79 0 1.52 -1.45 -1.52 -1.44 1.52 -1.45 -1.52 -1.45 1.52 -1.45 -1.52 -1.44 1.52 -1.45 -0.16 -0.15 -1.36 -1.29 1.52 -1.45 -1.52 -1.45 -4.19 0 0 1.52c-0.2,0.68 -0.82,1.14 -1.53,1.14 -0.7,0 -1.32,-0.46 -1.52,-1.14 -0.2,0.68 -0.82,1.14 -1.52,1.14 -0.71,0 -1.33,-0.46 -1.53,-1.14 -0.2,0.68 -0.82,1.14 -1.52,1.14 -0.7,0 -1.32,-0.46 -1.52,-1.14 -0.2,0.68 -0.82,1.14 -1.53,1.14 -0.7,0 -1.32,-0.46 -1.52,-1.14l0 -1.52 -5.71 0 1.52 1.45 -1.52 1.45 1.36 1.29 0.16 0.15 -1.52 1.45 1.52 1.44 -1.52 1.45 1.52 1.45 -1.52 1.44 1.52 1.45 -1.52 1.45 6.85 0zm-0.76 -19.04l0 -3.05 1.91 1.91 12.18 0 1.33 1.14 1.34 1.14 -16.76 0 0 -1.14z"/>
   <path class="fil4" d="M42.73 36.97l8.76 -4.95c0.76,-1.15 1.01,-2.04 0.38,-2.67 -0.62,-0.62 -1.61,-0.33 -2.66,0.38l-4.19 3.05c-0.24,-0.03 -0.48,-0.04 -0.72,-0.04 -0.24,0 -0.48,0.01 -0.72,0.04 -0.55,0.05 -1.09,0.18 -1.61,0.38 -1.87,0.73 -3.2,2.28 -4.57,3.81l5.33 0z"/>
   <polygon class="fil2" points="42.73,36.97 47.3,36.97 50.85,32.78 51.49,32.02 "/>
   <polygon class="fil3" points="41.97,36.97 37.4,36.97 29.03,36.97 29.03,40.01 41.21,40.01 41.21,36.97 40.07,36.97 25.6,36.97 "/>
   <polygon class="fil4" points="50.16,26.69 34.74,26.69 34.74,27.83 51.49,27.83 "/>
   <polygon class="fil5" points="40.29,24.75 40.59,24.05 44.4,25.68 44.1,26.38 "/>
   <polygon class="fil2" points="48.83,25.54 36.64,25.54 34.74,23.64 34.74,26.69 50.16,26.69 "/>
   <path class="fil4" d="M37.78 20.97c0.71,0 1.33,-0.46 1.53,-1.14l0 -3.43 -3.05 0 0 3.43c0.2,0.68 0.82,1.14 1.52,1.14l0 0z"/>
   <path class="fil4" d="M39.31 19.83c0.2,0.68 0.82,1.14 1.52,1.14 0.7,0 1.32,-0.46 1.52,-1.14l0 -3.43 -3.04 0 0 3.43z"/>
   <path class="fil4" d="M42.35 19.83c0.2,0.68 0.82,1.14 1.53,1.14 0.7,0 1.32,-0.46 1.52,-1.14l0 -3.43 -3.05 0 0 3.43z"/>
   <path class="fil4" d="M45.4 19.83c0.2,0.68 0.82,1.14 1.52,1.14 0.71,0 1.33,-0.46 1.53,-1.14l0 -3.43 -3.05 0 0 3.43z"/>
   <polygon class="fil2" points="36.64,16.4 38.93,16.4 38.93,17.55 36.64,17.55 "/>
   <polygon class="fil2" points="39.69,16.4 41.97,16.4 41.97,17.55 39.69,17.55 "/>
   <polygon class="fil2" points="42.73,16.4 45.02,16.4 45.02,17.55 42.73,17.55 "/>
   <polygon class="fil2" points="45.78,16.4 48.07,16.4 48.07,17.55 45.78,17.55 "/>
   <polygon class="fil3" points="32.51,36.05 33.05,35.51 34.67,37.12 34.13,37.66 "/>
   <polygon class="fil3" points="32.51,37.12 34.13,35.51 34.67,36.05 33.05,37.66 "/>
   <path class="fil5" d="M51.11 31.26c0,0 0,0 0,0 -0.1,0 -0.2,-0.04 -0.27,-0.12l-0.76 -0.76c-0.06,-0.07 -0.09,-0.15 -0.09,-0.24 0,-0.22 0.17,-0.39 0.38,-0.39 0.09,0 0.18,0.04 0.25,0.1l0.76 0.76c0.07,0.07 0.11,0.16 0.11,0.26 0,0.21 -0.17,0.38 -0.38,0.39l0 0z"/>
   <path class="fil6" d="M38.16 30.11l-3.42 0c-0.21,0 -0.38,-0.17 -0.38,-0.38 0,-0.21 0.17,-0.38 0.38,-0.38l3.42 0c0.22,0 0.39,0.17 0.39,0.38 0,0.21 -0.17,0.38 -0.39,0.38l0 0z"/>
   <path class="fil6" d="M38.16 31.26l-3.42 0c-0.21,0 -0.38,-0.18 -0.38,-0.39 0,-0.21 0.17,-0.38 0.38,-0.38l3.42 0c0.22,0 0.39,0.17 0.39,0.38 0,0.21 -0.17,0.39 -0.39,0.39l0 0z"/>
   <path class="fil7" d="M49.97 22.5l-3.43 0c-0.21,0 -0.38,-0.17 -0.38,-0.38 0,-0.21 0.17,-0.39 0.38,-0.39l3.43 0c0.21,0 0.38,0.18 0.38,0.39 0,0.21 -0.17,0.38 -0.38,0.38z"/>
   <path class="fil7" d="M46.92 38.87l-0.76 0c-0.21,0 -0.38,-0.17 -0.38,-0.38 0,-0.21 0.17,-0.38 0.38,-0.38l0.76 0c0.21,0 0.38,0.17 0.38,0.38 0,0.21 -0.17,0.38 -0.38,0.38l0 0z"/>
   <polygon class="fil8" points="40.07,26.3 40.83,26.3 40.83,27.07 40.07,27.07 "/>
   <polygon class="fil8" points="44.26,26.3 45.02,26.3 45.02,27.07 44.26,27.07 "/>
   <polygon class="fil8" points="45.4,26.3 46.16,26.3 46.16,27.07 45.4,27.07 "/>
   <polygon class="fil8" points="46.54,26.3 47.3,26.3 47.3,27.07 46.54,27.07 "/>
   <polygon class="fil8" points="47.69,26.3 48.45,26.3 48.45,27.07 47.69,27.07 "/>
   <polygon class="fil9" points="39.84,29.05 43.27,26.39 43.74,26.99 40.31,29.65 "/>
   <g>
    <polygon class="fil8" points="40.07,26.3 40.83,26.3 40.83,27.07 40.07,27.07 "/>
    <polygon class="fil8" points="38.55,26.3 39.31,26.3 39.31,27.07 38.55,27.07 "/>
    <polygon class="fil8" points="37.02,26.3 37.78,26.3 37.78,27.07 37.02,27.07 "/>
    <polygon class="fil8" points="44.26,26.3 45.02,26.3 45.02,27.07 44.26,27.07 "/>
    <polygon class="fil8" points="45.4,26.3 46.16,26.3 46.16,27.07 45.4,27.07 "/>
    <polygon class="fil8" points="46.54,26.3 47.3,26.3 47.3,27.07 46.54,27.07 "/>
    <polygon class="fil8" points="47.69,26.3 48.45,26.3 48.45,27.07 47.69,27.07 "/>
   </g>
   <polygon class="fil5" points="39.84,29.05 43.27,26.39 43.74,26.99 40.31,29.65 "/>
   <path class="fil5" d="M38.16 19.83l-0.76 0c-0.21,0 -0.38,-0.17 -0.38,-0.38 0,-0.21 0.17,-0.38 0.38,-0.38l0.76 0c0.22,0 0.39,0.17 0.39,0.38 0,0.21 -0.17,0.38 -0.39,0.38l0 0z"/>
   <path class="fil5" d="M41.21 19.83l-0.76 0c-0.21,0 -0.38,-0.17 -0.38,-0.38 0,-0.21 0.17,-0.38 0.38,-0.38l0.76 0c0.21,0 0.38,0.17 0.38,0.38 0,0.21 -0.17,0.38 -0.38,0.38l0 0z"/>
   <path class="fil5" d="M44.26 19.83l-0.76 0c-0.21,0 -0.38,-0.17 -0.38,-0.38 0,-0.21 0.17,-0.38 0.38,-0.38l0.76 0c0.21,0 0.38,0.17 0.38,0.38 0,0.21 -0.17,0.38 -0.38,0.38l0 0z"/>
   <path class="fil5" d="M47.3 19.83l-0.76 0c-0.21,0 -0.38,-0.17 -0.38,-0.38 0,-0.21 0.17,-0.38 0.38,-0.38l0.76 0c0.21,0 0.39,0.17 0.39,0.38 0,0.21 -0.18,0.38 -0.39,0.38l0 0z"/>
   <path class="fil6" d="M38.93 22.5l-4.19 0c-0.21,0 -0.38,-0.17 -0.38,-0.38 0,-0.21 0.17,-0.39 0.38,-0.39l4.19 0c0.21,0 0.38,0.18 0.38,0.39 0,0.21 -0.17,0.38 -0.38,0.38l0 0z"/>
   <path class="fil6" d="M49.97 23.64l-3.43 0c-0.21,0 -0.38,-0.17 -0.38,-0.38 0,-0.21 0.17,-0.38 0.38,-0.38l3.43 0c0.21,0 0.38,0.17 0.38,0.38 0,0.21 -0.17,0.38 -0.38,0.38z"/>
   <path class="fil6" d="M43.5 38.49l-5.72 0c-0.21,0 -0.38,-0.17 -0.38,-0.38 0,-0.21 0.17,-0.38 0.38,-0.38l5.72 0c0.21,0 0.38,0.17 0.38,0.38 0,0.21 -0.17,0.38 -0.38,0.38l0 0z"/>
  </g>
 </g>
</svg>
