<?xml version="1.0" encoding="UTF-8"?>
<!DOCTYPE svg PUBLIC "-//W3C//DTD SVG 1.1//EN" "http://www.w3.org/Graphics/SVG/1.1/DTD/svg11.dtd">
<!-- Creator: CorelDRAW 2019 (64-Bit) -->
<svg xmlns="http://www.w3.org/2000/svg" xml:space="preserve" width="884px" height="562px" version="1.1" style="shape-rendering:geometricPrecision; text-rendering:geometricPrecision; image-rendering:optimizeQuality; fill-rule:evenodd; clip-rule:evenodd"
viewBox="0 0 126.41 80.36"
 xmlns:xlink="http://www.w3.org/1999/xlink"
 enable-background="new 0 0 64 64">
 <defs>
  <style type="text/css">
   <![CDATA[
    .fil0 {fill:none}
    .fil1 {fill:#0A9177}
    .fil7 {fill:black}
    .fil2 {fill:#A0D468}
    .fil3 {fill:#B4DD7F}
    .fil4 {fill:#E6E9ED}
    .fil6 {fill:#FCD770}
    .fil5 {fill:#FFC729}
   ]]>
  </style>
 </defs>
 <g id="Layer_x0020_1">
  <metadata id="CorelCorpID_0Corel-Layer"/>
  <rect class="fil0" width="126.41" height="80.36"/>
  <circle class="fil1" cx="63.2" cy="40.18" r="32.17"/>
  <g id="forex.svg">
   <g>
    <g>
     <g>
      <path class="fil2" d="M65.28 55.36c0.55,1.52 1.46,2.88 2.62,3.96 -0.37,0.1 -0.74,0.18 -1.1,0.25l-0.67 2.52 -5.85 0 -0.67 -2.52c-2.77,-0.51 -5.34,-1.6 -7.58,-3.14l-2.25 1.31 -4.13 -4.13 1.3 -2.25c-1.54,-2.25 -2.63,-4.82 -3.14,-7.58l-2.52 -0.68 0 -5.84 2.52 -0.67c0.08,-0.37 0.16,-0.74 0.25,-1.1 1.09,1.16 2.44,2.06 3.97,2.62 -0.1,0.68 -0.16,1.37 -0.16,2.07 0,8.47 6.86,15.34 15.33,15.34 0.71,0 1.4,-0.07 2.08,-0.16z"/>
     </g>
     <g>
      <path class="fil2" d="M85.11 37.26l0 5.84 -2.52 0.68c-0.07,0.36 -0.15,0.73 -0.24,1.1 -1.09,-1.16 -2.44,-2.07 -3.97,-2.62 0.1,-0.68 0.16,-1.38 0.16,-2.08 0,-8.47 -6.86,-15.34 -15.34,-15.34 -0.7,0 -1.39,0.07 -2.07,0.17 -0.56,-1.53 -1.46,-2.88 -2.62,-3.97 0.36,-0.1 0.74,-0.18 1.1,-0.25l0.67 -2.52 5.85 0 0.67 2.52c2.77,0.51 5.34,1.6 7.58,3.14l2.25 -1.31 4.13 4.14 -1.31 2.25c1.55,2.24 2.63,4.81 3.14,7.58l2.52 0.67z"/>
     </g>
     <g>
      <path class="fil3" d="M64.7 51.02c-0.02,0.28 -0.04,0.56 -0.04,0.85 0,1.22 0.22,2.4 0.62,3.49 -0.68,0.09 -1.37,0.16 -2.08,0.16 -8.47,0 -15.33,-6.87 -15.33,-15.34 0,-0.7 0.06,-1.39 0.16,-2.07 1.09,0.39 2.26,0.61 3.49,0.61 0.28,0 0.57,-0.01 0.85,-0.04 -0.08,0.5 -0.12,0.99 -0.12,1.5 0,6.05 4.91,10.96 10.95,10.96 0.52,0 1,-0.05 1.5,-0.12l0 0z"/>
     </g>
     <g>
      <path class="fil3" d="M63.2 29.23c-0.51,0 -1,0.04 -1.49,0.11 0.02,-0.27 0.03,-0.56 0.03,-0.84 0,-1.23 -0.22,-2.41 -0.61,-3.49 0.68,-0.1 1.37,-0.17 2.07,-0.17 8.48,0 15.34,6.87 15.34,15.34 0,0.7 -0.06,1.4 -0.16,2.08 -1.09,-0.4 -2.26,-0.62 -3.49,-0.62 -0.29,0 -0.57,0.02 -0.85,0.04 0.08,-0.5 0.12,-0.99 0.12,-1.5 0,-6.05 -4.91,-10.95 -10.96,-10.95l0 0z"/>
     </g>
     <g>
      <path class="fil4" d="M66.71 45.74c-1.13,1.5 -1.85,3.31 -2.01,5.28 -0.5,0.07 -0.98,0.12 -1.5,0.12 -6.04,0 -10.95,-4.91 -10.95,-10.96 0,-0.51 0.04,-1 0.12,-1.5 1.97,-0.16 3.78,-0.88 5.28,-2 -0.65,1.01 -1.02,2.21 -1.02,3.5 0,3.63 2.94,6.57 6.57,6.57 1.3,0 2.49,-0.37 3.51,-1.01z"/>
     </g>
     <g>
      <path class="fil4" d="M74.16 40.18c0,0.51 -0.04,1 -0.12,1.5 -1.97,0.16 -3.78,0.88 -5.28,2.01 0.64,-1.02 1.02,-2.22 1.02,-3.51 0,-3.63 -2.95,-6.57 -6.58,-6.57 -1.29,0 -2.49,0.37 -3.5,1.01 1.12,-1.49 1.85,-3.3 2.01,-5.28 0.49,-0.07 0.98,-0.11 1.49,-0.11 6.05,0 10.96,4.9 10.96,10.95z"/>
     </g>
     <g>
      <path class="fil5" d="M52.37 38.68c-0.28,0.03 -0.57,0.04 -0.85,0.04 -1.23,0 -2.4,-0.22 -3.49,-0.61 -1.53,-0.56 -2.88,-1.46 -3.97,-2.62 -1.71,-1.84 -2.77,-4.29 -2.77,-6.99 0,-5.65 4.58,-10.23 10.23,-10.23 2.7,0 5.15,1.05 6.99,2.77 1.16,1.09 2.06,2.44 2.62,3.97 0.39,1.08 0.61,2.26 0.61,3.49 0,0.28 -0.01,0.57 -0.03,0.84 -0.16,1.98 -0.89,3.79 -2.01,5.28 -0.59,0.79 -1.27,1.47 -2.05,2.06 -1.5,1.12 -3.31,1.84 -5.28,2z"/>
     </g>
     <g>
      <path class="fil5" d="M82.35 44.88c1.71,1.83 2.76,4.29 2.76,6.99 0,5.64 -4.57,10.22 -10.22,10.22 -2.7,0 -5.16,-1.05 -6.99,-2.77 -1.16,-1.08 -2.07,-2.44 -2.62,-3.96 -0.4,-1.09 -0.62,-2.27 -0.62,-3.49 0,-0.29 0.02,-0.57 0.04,-0.85 0.16,-1.97 0.89,-3.78 2.01,-5.28 0.58,-0.78 1.27,-1.47 2.05,-2.05 1.5,-1.13 3.31,-1.85 5.28,-2.01 0.28,-0.02 0.56,-0.04 0.85,-0.04 1.23,0 2.4,0.22 3.49,0.62 1.53,0.55 2.88,1.46 3.97,2.62z"/>
     </g>
     <g>
      <path class="fil6" d="M58.82 28.5c0,1.75 -0.62,3.36 -1.65,4.63l-1.02 1.02c-1.26,1.03 -2.88,1.65 -4.63,1.65 -4.03,0 -7.31,-3.27 -7.31,-7.3 0,-1.76 0.63,-3.37 1.66,-4.63l1.02 -1.03c1.26,-1.03 2.88,-1.65 4.63,-1.65 4.03,0 7.3,3.27 7.3,7.31z"/>
     </g>
     <g>
      <path class="fil6" d="M82.19 51.87c0,1.75 -0.62,3.36 -1.65,4.63l-1.02 1.02c-1.26,1.03 -2.88,1.65 -4.63,1.65 -4.03,0 -7.3,-3.27 -7.3,-7.3 0,-1.76 0.62,-3.37 1.65,-4.63l1.02 -1.03c1.26,-1.03 2.88,-1.65 4.63,-1.65 4.03,0 7.3,3.28 7.3,7.31z"/>
     </g>
    </g>
    <g>
     <path class="fil7" d="M52.25 26.31c0.4,0 0.73,0.32 0.73,0.73l1.46 0c0,-1.21 -0.98,-2.2 -2.19,-2.2l0 -1.46 -1.46 0 0 1.46 -2.19 0 0 2.2c0,1.2 0.98,2.19 2.19,2.19l1.46 0c0.4,0 0.73,0.32 0.73,0.73l0 0.73 -2.19 0c-0.4,0 -0.73,-0.33 -0.73,-0.73l-1.46 0c0,1.2 0.98,2.19 2.19,2.19l0 1.46 1.46 0 0 -1.46 2.19 0 0 -2.19c0,-1.21 -0.98,-2.19 -2.19,-2.19l-1.46 0c-0.4,0 -0.73,-0.33 -0.73,-0.73l0 -0.73 2.19 0z"/>
     <path class="fil7" d="M51.52 36.53c1.85,0 3.66,-0.65 5.09,-1.82l-0.93 -1.13c-1.17,0.96 -2.65,1.49 -4.16,1.49 -3.63,0 -6.57,-2.95 -6.57,-6.57 0,-1.52 0.52,-3 1.48,-4.17l-1.13 -0.92c-1.17,1.43 -1.82,3.23 -1.82,5.09 0,4.43 3.61,8.03 8.04,8.03z"/>
     <path class="fil7" d="M51.52 21.92c3.62,0 6.57,2.95 6.57,6.58 0,1.51 -0.53,2.99 -1.49,4.16l1.13 0.93c1.18,-1.43 1.82,-3.24 1.82,-5.09 0,-4.43 -3.6,-8.04 -8.03,-8.04 -1.85,0 -3.66,0.65 -5.09,1.82l0.92 1.13c1.17,-0.96 2.65,-1.49 4.17,-1.49z"/>
     <path class="fil7" d="M74.89 58.44c-3.62,0 -6.57,-2.95 -6.57,-6.57 0,-1.52 0.53,-3 1.49,-4.17l-1.13 -0.92c-1.18,1.43 -1.82,3.24 -1.82,5.09 0,4.43 3.6,8.03 8.03,8.03 1.85,0 3.66,-0.65 5.09,-1.82l-0.93 -1.13c-1.17,0.96 -2.65,1.49 -4.16,1.49l0 0z"/>
     <path class="fil7" d="M74.89 43.83c-1.85,0 -3.66,0.65 -5.09,1.82l0.93 1.13c1.17,-0.96 2.64,-1.49 4.16,-1.49 3.62,0 6.57,2.95 6.57,6.58 0,1.51 -0.53,2.99 -1.49,4.16l1.13 0.93c1.18,-1.43 1.82,-3.24 1.82,-5.09 0,-4.43 -3.6,-8.04 -8.03,-8.04l0 0z"/>
     <polygon class="fil7" points="77.29,47.7 74.89,50.1 72.48,47.7 71.45,48.73 73.86,51.14 72.7,51.14 72.7,52.6 74.16,52.6 74.16,54.06 72.7,54.06 72.7,55.52 74.16,55.52 74.16,56.98 75.62,56.98 75.62,55.52 77.08,55.52 77.08,54.06 75.62,54.06 75.62,52.6 77.08,52.6 77.08,51.14 75.92,51.14 78.33,48.73 "/>
     <path class="fil7" d="M85.84 43.67l0 -6.97 -2.62 -0.7c-0.52,-2.51 -1.5,-4.87 -2.91,-7.02l1.37 -2.35 -4.93 -4.92 -2.35 1.36c-2.14,-1.41 -4.5,-2.38 -7.02,-2.91l-0.69 -2.62 -6.97 0 -0.7 2.63c-0.11,0.02 -0.21,0.05 -0.32,0.07 -1.93,-1.68 -4.43,-2.7 -7.18,-2.7 -6.04,0 -10.96,4.92 -10.96,10.96 0,2.74 1.03,5.25 2.7,7.18 -0.02,0.1 -0.05,0.21 -0.07,0.32l-2.63 0.7 0 6.96 2.63 0.7c0.52,2.51 1.5,4.87 2.9,7.02l-1.36 2.35 4.93 4.92 2.34 -1.36c2.15,1.41 4.51,2.39 7.02,2.91l0.7 2.62 6.97 0 0.69 -2.62c0.11,-0.03 0.22,-0.05 0.33,-0.08 1.92,1.68 4.43,2.7 7.18,2.7 6.04,0 10.96,-4.91 10.96,-10.95 0,-2.75 -1.03,-5.26 -2.71,-7.18 0.03,-0.11 0.06,-0.22 0.08,-0.33l2.62 -0.69zm-25 -24.67l4.72 0 0.65 2.43 0.45 0.08c2.64,0.49 5.09,1.5 7.3,3.03l0.38 0.26 2.17 -1.26 3.34 3.33 -1.26 2.17 0.26 0.39c1.52,2.2 2.54,4.66 3.02,7.29l0.09 0.46 2.42 0.64 0 4.72 -2.42 0.65 -0.05 0.27c-0.82,-0.68 -1.74,-1.25 -2.73,-1.67 0.06,-0.58 0.09,-1.1 0.09,-1.61 0,-8.86 -7.21,-16.07 -16.07,-16.07 -0.5,0 -1.02,0.03 -1.6,0.1 -0.43,-1 -0.99,-1.91 -1.68,-2.73l0.28 -0.05 0.64 -2.43zm-12.19 20.06c0.92,0.25 1.88,0.39 2.87,0.39 0.01,0 0.02,0 0.03,0 -0.02,0.25 -0.03,0.5 -0.03,0.73 0,6.44 5.24,11.69 11.68,11.69 0.24,0 0.48,-0.01 0.74,-0.03 0,0.01 -0.01,0.02 -0.01,0.03 0,0.99 0.15,1.95 0.4,2.86 -0.4,0.04 -0.77,0.06 -1.13,0.06 -8.05,0 -14.6,-6.55 -14.6,-14.61 0,-0.35 0.02,-0.72 0.05,-1.12l0 0zm15.4 11.3c-0.3,0.03 -0.58,0.05 -0.85,0.05 -5.63,0 -10.22,-4.59 -10.22,-10.23 0,-0.26 0.02,-0.55 0.05,-0.84 1.09,-0.16 2.13,-0.47 3.1,-0.92 -0.14,0.57 -0.23,1.16 -0.23,1.76 0,4.03 3.28,7.31 7.3,7.31 0.6,0 1.19,-0.09 1.77,-0.24 -0.45,0.97 -0.77,2.01 -0.92,3.11l0 0zm2.2 -5.21c-0.92,0.57 -1.97,0.87 -3.05,0.87 -3.22,0 -5.84,-2.62 -5.84,-5.84 0,-1.07 0.31,-2.12 0.87,-3.05 0.72,-0.56 1.37,-1.2 1.93,-1.92 0.92,-0.57 1.97,-0.87 3.04,-0.87 3.23,0 5.85,2.62 5.85,5.84 0,1.08 -0.31,2.13 -0.87,3.05 -0.72,0.56 -1.37,1.21 -1.93,1.92l0 0zm-3.05 -12.27c-0.59,0 -1.18,0.09 -1.76,0.23 0.45,-0.97 0.76,-2.01 0.92,-3.11 0.3,-0.02 0.58,-0.04 0.84,-0.04 5.64,0 10.23,4.58 10.23,10.22 0,0.27 -0.02,0.55 -0.05,0.85 -1.09,0.15 -2.14,0.46 -3.1,0.91 0.14,-0.57 0.23,-1.16 0.23,-1.76 0,-4.03 -3.28,-7.3 -7.31,-7.3l0 0zm0 -4.38c-0.23,0 -0.47,0.01 -0.73,0.02 0,0 0,-0.01 0,-0.02 0,-1 -0.14,-1.96 -0.39,-2.87 0.4,-0.04 0.77,-0.06 1.12,-0.06 8.06,0 14.61,6.56 14.61,14.61 0,0.36 -0.02,0.73 -0.05,1.13 -0.92,-0.25 -1.88,-0.4 -2.87,-0.4 -0.01,0 -0.02,0 -0.03,0 0.02,-0.25 0.03,-0.49 0.03,-0.73 0,-6.44 -5.24,-11.68 -11.69,-11.68l0 0zm-11.68 -9.5c5.23,0 9.49,4.26 9.49,9.5 0,5.23 -4.26,9.49 -9.49,9.49 -5.24,0 -9.5,-4.26 -9.5,-9.49 0,-5.24 4.26,-9.5 9.5,-9.5zm14.04 42.36l-4.72 0 -0.64 -2.43 -0.45 -0.08c-2.64,-0.48 -5.09,-1.5 -7.3,-3.02l-0.38 -0.26 -2.17 1.26 -3.34 -3.34 1.26 -2.17 -0.26 -0.38c-1.52,-2.21 -2.54,-4.66 -3.03,-7.3l-0.08 -0.45 -2.43 -0.65 0 -4.72 2.43 -0.64 0.05 -0.28c0.82,0.68 1.74,1.25 2.73,1.68 -0.06,0.58 -0.09,1.1 -0.09,1.6 0,8.86 7.2,16.07 16.06,16.07 0.51,0 1.03,-0.03 1.61,-0.09 0.42,0.99 0.99,1.91 1.68,2.72l-0.28 0.05 -0.65 2.43zm9.33 0c-5.24,0 -9.49,-4.26 -9.49,-9.49 0,-5.24 4.25,-9.5 9.49,-9.5 5.23,0 9.49,4.26 9.49,9.5 0,5.23 -4.26,9.49 -9.49,9.49z"/>
    </g>
   </g>
  </g>
 </g>
</svg>
