<?xml version="1.0" encoding="UTF-8"?>
<!DOCTYPE svg PUBLIC "-//W3C//DTD SVG 1.1//EN" "http://www.w3.org/Graphics/SVG/1.1/DTD/svg11.dtd">
<!-- Creator: CorelDRAW 2019 (64-Bit) -->
<svg xmlns="http://www.w3.org/2000/svg" xml:space="preserve" width="283px" height="180px" version="1.1" style="shape-rendering:geometricPrecision; text-rendering:geometricPrecision; image-rendering:optimizeQuality; fill-rule:evenodd; clip-rule:evenodd"
viewBox="0 0 36.05 22.93"
 xmlns:xlink="http://www.w3.org/1999/xlink"
 enable-background="new 0 0 512 512">
 <defs>
  <style type="text/css">
   <![CDATA[
    .fil0 {fill:none}
    .fil2 {fill:#002659}
    .fil1 {fill:#0042A2}
    .fil8 {fill:#00CEF5}
    .fil9 {fill:#27D8F6}
    .fil7 {fill:#76E2F8}
    .fil4 {fill:#EBE1DC}
    .fil6 {fill:#F30051}
    .fil3 {fill:#F5F0EB}
    .fil5 {fill:#FF3980}
    .fil11 {fill:#FFCD00}
    .fil10 {fill:#FFDA2D}
   ]]>
  </style>
 </defs>
 <g id="Layer_x0020_1">
  <metadata id="CorelCorpID_0Corel-Layer"/>
  <rect class="fil0" width="36.05" height="22.93"/>
  <g id="medical-checkup.svg">
   <polygon class="fil1" points="24.46,17.71 15.08,17.71 15.08,5.22 24.46,5.22 "/>
   <polygon class="fil2" points="24.46,17.71 19.77,17.71 19.77,5.22 24.46,5.22 "/>
   <polygon class="fil3" points="23.3,16.54 16.25,16.54 16.25,6.38 23.3,6.38 "/>
   <polygon class="fil4" points="23.3,16.54 19.77,16.54 19.77,6.38 23.3,6.38 "/>
   <path class="fil5" d="M20.55 10.69c-0.43,0 -0.78,0.34 -0.78,0.77 0,-0.43 -0.35,-0.77 -0.78,-0.77 -0.43,0 -0.77,0.34 -0.77,0.77 0,0.95 1.55,1.95 1.55,1.95 0,0 1.56,-1 1.56,-1.95 0,-0.43 -0.35,-0.77 -0.78,-0.77z"/>
   <path class="fil6" d="M20.55 10.69c-0.43,0 -0.78,0.34 -0.78,0.77l0 1.95c0,0 1.56,-1 1.56,-1.95 0,-0.43 -0.35,-0.77 -0.78,-0.77z"/>
   <polygon class="fil7" points="17.83,4.83 21.72,4.83 21.72,7.16 17.83,7.16 "/>
   <polygon class="fil8" points="19.77,4.83 21.72,4.83 21.72,7.16 19.77,7.16 "/>
   <path class="fil4" d="M17.04 18.1c-1.3,0 -2.35,-1.06 -2.35,-2.35l0 -4.31 0.78 0 0 4.31c0,0.87 0.7,1.57 1.57,1.57 0.86,0 1.57,-0.7 1.57,-1.57l0 -1.15 0.77 0 0 1.15c0,1.29 -1.05,2.35 -2.34,2.35l0 0z"/>
   <path class="fil7" d="M18.99 14.99c-0.64,0 -1.16,-0.53 -1.16,-1.17 0,-0.64 0.52,-1.16 1.16,-1.16 0.65,0 1.17,0.52 1.17,1.16 0,0.64 -0.52,1.17 -1.17,1.17z"/>
   <path class="fil9" d="M18.99 14.99l0 -2.33c0.65,0 1.17,0.52 1.17,1.16 0,0.64 -0.52,1.17 -1.17,1.17l0 0z"/>
   <path class="fil10" d="M18.99 13.43c-0.21,0 -0.38,0.18 -0.38,0.39 0,0.22 0.17,0.39 0.38,0.39 0.22,0 0.39,-0.17 0.39,-0.39 0,-0.21 -0.17,-0.39 -0.39,-0.39z"/>
   <path class="fil11" d="M18.99 13.43l0 0.78c0.22,0 0.39,-0.17 0.39,-0.39 0,-0.21 -0.17,-0.39 -0.39,-0.39l0 0z"/>
   <path class="fil5" d="M15.08 11.83c-1.93,0 -3.5,-1.57 -3.5,-3.5l0 -1.17 1.95 0 0 0.78 -1.17 0 0 0.39c0,1.5 1.22,2.72 2.72,2.72 1.5,0 2.72,-1.22 2.72,-2.72l0 -0.39 -1.16 0 0 -0.78 1.94 0 0 1.17c0,1.93 -1.57,3.5 -3.5,3.5l0 0z"/>
   <path class="fil6" d="M15.08 11.83l0 -0.78c1.5,0 2.72,-1.22 2.72,-2.72l0 -0.39 -1.16 0 0 -0.78 1.94 0 0 1.17c0,1.93 -1.57,3.5 -3.5,3.5l0 0z"/>
   <circle class="fil3" cx="13.53" cy="7.55" r="0.78"/>
   <circle class="fil4" cx="16.61" cy="7.55" r="0.78"/>
  </g>
 </g>
</svg>
