<?xml version="1.0" encoding="UTF-8"?>
<!DOCTYPE svg PUBLIC "-//W3C//DTD SVG 1.1//EN" "http://www.w3.org/Graphics/SVG/1.1/DTD/svg11.dtd">
<!-- Creator: CorelDRAW 2019 (64-Bit) -->
<svg xmlns="http://www.w3.org/2000/svg" xml:space="preserve" width="884px" height="562px" version="1.1" style="shape-rendering:geometricPrecision; text-rendering:geometricPrecision; image-rendering:optimizeQuality; fill-rule:evenodd; clip-rule:evenodd"
viewBox="0 0 176.88 112.45"
 xmlns:xlink="http://www.w3.org/1999/xlink">
 <defs>
  <style type="text/css">
   <![CDATA[
    .fil1 {fill:none}
    .fil8 {fill:#25B1FA}
    .fil6 {fill:#80DAFF}
    .fil3 {fill:#BB5E1F}
    .fil0 {fill:#BBE8E1}
    .fil7 {fill:#D3EFFE}
    .fil2 {fill:#E6F8FF}
    .fil5 {fill:#FA7D29}
    .fil4 {fill:#FAC850}
   ]]>
  </style>
 </defs>
 <g id="Layer_x0020_1">
  <metadata id="CorelCorpID_0Corel-Layer"/>
  <circle class="fil0" cx="88.44" cy="56.23" r="45.02"/>
  <rect class="fil1" width="176.88" height="112.45"/>
  <g id="hotel-bookings.svg">
   <g>
    <polygon class="fil2" points="59.1,47.7 117.78,47.7 117.78,83.02 59.1,83.02 "/>
    <g>
     <g>
      <polygon class="fil3" points="100.39,31.4 108,31.4 108,33.58 100.39,33.58 "/>
      <polygon class="fil3" points="100.39,39.01 108,39.01 108,41.18 100.39,41.18 "/>
      <polygon class="fil4" points="65.62,59.66 101.48,59.66 101.48,75.96 65.62,75.96 "/>
      <g>
       <polygon class="fil4" points="92.79,27.06 92.79,22.71 75.4,22.71 75.4,27.06 66.71,30.32 66.71,56.4 101.48,56.4 101.48,30.32 "/>
       <g>
        <polygon class="fil5" points="69.97,32.49 72.14,32.49 72.14,39.01 69.97,39.01 "/>
        <polygon class="fil5" points="69.97,45.53 72.14,45.53 72.14,52.05 69.97,52.05 "/>
       </g>
      </g>
      <g>
       <polygon class="fil5" points="78.66,67.26 80.83,67.26 80.83,70.52 78.66,70.52 "/>
       <polygon class="fil5" points="87.35,67.26 89.53,67.26 89.53,70.52 87.35,70.52 "/>
       <polygon class="fil5" points="78.66,42.27 80.83,42.27 80.83,44.44 78.66,44.44 "/>
       <polygon class="fil5" points="83.01,42.27 85.18,42.27 85.18,44.44 83.01,44.44 "/>
       <polygon class="fil5" points="87.35,42.27 89.53,42.27 89.53,44.44 87.35,44.44 "/>
       <polygon class="fil5" points="78.66,46.62 80.83,46.62 80.83,52.05 78.66,52.05 "/>
       <polygon class="fil5" points="83.01,46.62 85.18,46.62 85.18,52.05 83.01,52.05 "/>
       <polygon class="fil5" points="87.35,46.62 89.53,46.62 89.53,52.05 87.35,52.05 "/>
       <polygon class="fil5" points="78.66,37.92 80.83,37.92 80.83,40.1 78.66,40.1 "/>
       <polygon class="fil5" points="83.01,37.92 85.18,37.92 85.18,40.1 83.01,40.1 "/>
       <polygon class="fil5" points="87.35,37.92 89.53,37.92 89.53,40.1 87.35,40.1 "/>
       <polygon class="fil5" points="78.66,33.58 80.83,33.58 80.83,35.75 78.66,35.75 "/>
       <polygon class="fil5" points="83.01,33.58 85.18,33.58 85.18,35.75 83.01,35.75 "/>
       <polygon class="fil5" points="87.35,33.58 89.53,33.58 89.53,35.75 87.35,35.75 "/>
       <polygon class="fil5" points="78.66,25.97 80.83,25.97 80.83,31.4 78.66,31.4 "/>
       <polygon class="fil5" points="83.01,25.97 85.18,25.97 85.18,31.4 83.01,31.4 "/>
       <polygon class="fil5" points="87.35,25.97 89.53,25.97 89.53,31.4 87.35,31.4 "/>
       <polygon class="fil5" points="69.97,41.18 72.14,41.18 72.14,43.36 69.97,43.36 "/>
       <polygon class="fil5" points="96.05,32.49 98.22,32.49 98.22,39.01 96.05,39.01 "/>
       <polygon class="fil5" points="96.05,45.53 98.22,45.53 98.22,50.96 96.05,50.96 "/>
       <polygon class="fil5" points="96.05,41.18 98.22,41.18 98.22,43.36 96.05,43.36 "/>
       <path class="fil5" d="M85.18 74.87l0 -14.13 19.56 0 0 -5.43 -41.29 0 0 5.43 5.43 0 0 14.13 -6.52 0 0 2.18 52.16 0 0 -2.18 -29.34 0zm-14.13 -14.13l11.96 0 0 14.13 -11.96 0 0 -14.13z"/>
       <path class="fil5" d="M108.27 29.23l3.81 0c0.75,0 1.35,0.61 1.35,1.36l0 11.41c0,0.75 -0.6,1.36 -1.35,1.36l-3.81 0c-0.75,0 -1.36,-0.61 -1.36,-1.36l0 -11.41c0,-0.75 0.61,-1.36 1.36,-1.36z"/>
      </g>
      <g>
       <path class="fil6" d="M97.88 73.23c-3.84,-2.86 -6.46,-7.09 -7.31,-11.81l-0.01 -0.05 -1.05 -6.81 11.96 -5.42 11.96 5.42 -1.06 6.87 -0.01 0.03c-0.85,4.76 -3.51,9.02 -7.41,11.88l-3.48 2.58 -3.59 -2.69z"/>
       <path class="fil7" d="M100.39 66.18c0,0 0,0 0,0 -0.29,0 -0.56,-0.12 -0.76,-0.32l-3.26 -3.26 1.53 -1.54 2.49 2.49 5.76 -5.75 1.53 1.54 -6.52 6.52c-0.2,0.2 -0.48,0.32 -0.77,0.32 0,0 0,0 0,0l0 0z"/>
      </g>
     </g>
     <path class="fil8" d="M117.24 85.74l-57.6 0c-1.5,0 -2.71,-1.22 -2.71,-2.72l0 -2.72 20.64 0.01 2.18 1.08 17.38 0 2.18 -1.08 20.64 0 0 2.71c0,1.5 -1.21,2.72 -2.71,2.72z"/>
    </g>
   </g>
  </g>
 </g>
</svg>
