<?xml version="1.0" encoding="UTF-8"?>
<!DOCTYPE svg PUBLIC "-//W3C//DTD SVG 1.1//EN" "http://www.w3.org/Graphics/SVG/1.1/DTD/svg11.dtd">
<!-- Creator: CorelDRAW 2019 (64-Bit) -->
<svg xmlns="http://www.w3.org/2000/svg" xml:space="preserve" width="283px" height="180px" version="1.1" style="shape-rendering:geometricPrecision; text-rendering:geometricPrecision; image-rendering:optimizeQuality; fill-rule:evenodd; clip-rule:evenodd"
viewBox="0 0 36.05 22.93"
 xmlns:xlink="http://www.w3.org/1999/xlink">
 <defs>
  <style type="text/css">
   <![CDATA[
    .fil0 {fill:none}
    .fil1 {fill:#455A64}
    .fil2 {fill:#FFC107}
   ]]>
  </style>
 </defs>
 <g id="Layer_x0020_1">
  <metadata id="CorelCorpID_0Corel-Layer"/>
  <rect class="fil0" width="36.05" height="22.93"/>
  <g id="lock.svg">
   <path class="fil1" d="M18.02 2.31c-2.73,0 -4.95,2.22 -4.96,4.96l0 3.05c0,0.21 0.17,0.38 0.39,0.38l1.52 0c0.21,0 0.38,-0.17 0.38,-0.38l0 -3.05c0,-1.48 1.2,-2.67 2.67,-2.67 1.48,0 2.67,1.19 2.67,2.67l0 3.05c0,0.21 0.17,0.38 0.38,0.38l1.53 0c0.21,0 0.38,-0.17 0.38,-0.38l0 -3.05c0,-2.74 -2.22,-4.96 -4.96,-4.96z"/>
   <path class="fil2" d="M13.45 9.94l9.15 0c1.05,0 1.91,0.85 1.91,1.9l0 6.87c0,1.05 -0.86,1.91 -1.91,1.91l-9.15 0c-1.06,0 -1.91,-0.86 -1.91,-1.91l0 -6.87c0,-1.05 0.85,-1.9 1.91,-1.9z"/>
   <path class="fil1" d="M19.93 14.13c0,-1.05 -0.85,-1.91 -1.9,-1.91 -1.05,-0.01 -1.91,0.84 -1.91,1.9 -0.01,0.73 0.4,1.39 1.06,1.71l-0.3 2.06c-0.03,0.21 0.12,0.41 0.33,0.44 0.01,0 0.03,0 0.05,0l1.53 0c0.21,0 0.38,-0.17 0.38,-0.38 0,-0.02 0,-0.04 0,-0.06l-0.3 -2.06c0.65,-0.32 1.06,-0.98 1.06,-1.7z"/>
   <g>
   </g>
   <g>
   </g>
   <g>
   </g>
   <g>
   </g>
   <g>
   </g>
   <g>
   </g>
   <g>
   </g>
   <g>
   </g>
   <g>
   </g>
   <g>
   </g>
   <g>
   </g>
   <g>
   </g>
   <g>
   </g>
   <g>
   </g>
   <g>
   </g>
  </g>
 </g>
</svg>
