<?xml version="1.0" encoding="UTF-8"?>
<!DOCTYPE svg PUBLIC "-//W3C//DTD SVG 1.1//EN" "http://www.w3.org/Graphics/SVG/1.1/DTD/svg11.dtd">
<!-- Creator: CorelDRAW 2019 (64-Bit) -->
<svg xmlns="http://www.w3.org/2000/svg" xml:space="preserve" width="283px" height="180px" version="1.1" style="shape-rendering:geometricPrecision; text-rendering:geometricPrecision; image-rendering:optimizeQuality; fill-rule:evenodd; clip-rule:evenodd"
viewBox="0 0 36.05 22.93"
 xmlns:xlink="http://www.w3.org/1999/xlink">
 <defs>
  <style type="text/css">
   <![CDATA[
    .fil0 {fill:none}
    .fil8 {fill:#1EA4E9}
    .fil1 {fill:#44C868}
    .fil2 {fill:#4CE166}
    .fil4 {fill:#A8EEFC}
    .fil7 {fill:#E7343F}
    .fil6 {fill:#FF4A4A}
    .fil5 {fill:#FFBB24}
    .fil3 {fill:#FFDB56}
   ]]>
  </style>
 </defs>
 <g id="Layer_x0020_1">
  <metadata id="CorelCorpID_0Corel-Layer"/>
  <rect class="fil0" width="36.05" height="22.93"/>
  <g id="map.svg">
   <g>
    <path class="fil1" d="M24.41 16.95l-1 -5.54c-0.01,-0.05 -0.05,-0.1 -0.1,-0.13l-2.52 -1.4c-0.04,-0.02 -0.07,-0.03 -0.11,-0.02l0.46 5.93 -0.02 0 3.03 1.36c0.02,0.01 0.05,0.02 0.08,0.02 0.04,0 0.08,-0.02 0.11,-0.04 0.06,-0.04 0.08,-0.11 0.07,-0.18z"/>
    <path class="fil1" d="M18.02 11.22l-2.58 -1.34c-0.03,-0.02 -0.07,-0.03 -0.1,-0.02 0.01,0 0.02,0 0.03,0l-0.46 5.93 3.04 1.36c0.02,0.01 0.05,0.02 0.07,0.02l0 0 0 -5.95z"/>
   </g>
   <g>
    <path class="fil2" d="M15.37 9.86c-0.04,-0.01 -0.08,0 -0.11,0.02l-2.53 1.4c-0.05,0.03 -0.08,0.08 -0.09,0.13l-1.01 5.54c-0.01,0.07 0.02,0.14 0.07,0.18 0.04,0.02 0.08,0.04 0.12,0.04 0.03,0 0.05,-0.01 0.08,-0.02l3 -1.35 0.47 -5.94z"/>
    <path class="fil2" d="M20.68 9.86c-0.03,0 -0.05,0 -0.07,0.02l-2.59 1.34 0 5.95c0,0 0,0 0,0 0.03,0 0.05,-0.01 0.08,-0.02l3.04 -1.36 -0.46 -5.93z"/>
   </g>
   <polygon class="fil3" points="12.33,13.09 12.13,14.22 15.15,12.62 15.22,11.72 15.23,11.57 "/>
   <path class="fil4" d="M15.18 12.27l-0.03 0.35 -3.02 1.6 -0.5 2.73c-0.01,0.07 0.02,0.14 0.07,0.18 0.04,0.02 0.08,0.04 0.12,0.04 0.03,0 0.05,-0.01 0.08,-0.02l3 -1.35 0.28 -3.53 0 0z"/>
   <g>
    <polygon class="fil5" points="18.02,11.96 15.23,11.57 15.15,12.62 18.02,16.98 18.02,15.4 16.31,12.7 18.02,12.9 "/>
    <polygon class="fil5" points="23.11,11.17 21.9,10.5 20.75,10.77 20.76,10.95 20.82,11.69 "/>
   </g>
   <polygon class="fil3" points="20.92,13 20.81,11.6 20.81,11.6 20.75,10.77 18.02,11.96 18.02,12.9 19.8,12.13 "/>
   <path class="fil5" d="M24.41 16.95l-0.25 -1.39 -3.34 -3.87 0.1 1.31 3.43 4.12c0.05,-0.04 0.07,-0.11 0.06,-0.17z"/>
   <path class="fil6" d="M18.03 5.76c-1.44,0 -2.62,1.17 -2.62,2.62 0,0.89 0.42,1.85 1.26,2.85 0.62,0.74 1.22,1.21 1.25,1.23 0.03,0.03 0.07,0.04 0.11,0.04 0.05,0 0.09,-0.01 0.12,-0.04 0.03,-0.02 0.63,-0.49 1.25,-1.23 0.83,-1 1.26,-1.96 1.26,-2.85 0,-1.45 -1.18,-2.62 -2.63,-2.62zm0.98 2.62c0,0.54 -0.44,0.97 -0.98,0.97 -0.53,0 -0.97,-0.43 -0.97,-0.97 0,-0.54 0.44,-0.97 0.97,-0.97 0.54,0 0.98,0.43 0.98,0.97z"/>
   <path class="fil7" d="M18.03 5.76c-0.11,0 -0.22,0.01 -0.33,0.02 1.28,0.17 2.28,1.27 2.28,2.6 0,0.89 -0.42,1.85 -1.26,2.85 -0.4,0.48 -0.79,0.84 -1.02,1.04 0.13,0.12 0.21,0.18 0.22,0.19 0.03,0.03 0.07,0.04 0.11,0.04 0.05,0 0.09,-0.01 0.12,-0.04 0.03,-0.02 0.63,-0.49 1.25,-1.23 0.83,-1 1.26,-1.96 1.26,-2.85 0,-1.45 -1.18,-2.62 -2.63,-2.62z"/>
   <path class="fil3" d="M18.1 17.15l1.13 -0.51 -1.21 -1.24 0 1.77c0,0 0,0 0,0 0.03,0 0.05,-0.01 0.08,-0.02z"/>
   <g>
    <path class="fil8" d="M23.41 11.41c-0.01,-0.05 -0.05,-0.1 -0.1,-0.13l-0.2 -0.11 -2.29 0.52 0 0 3.34 3.87 -0.75 -4.15z"/>
    <path class="fil8" d="M18.02 17.17c0,0 0,0 0,0l0 -0.19 -2.87 -4.36 -0.24 3.17 3.04 1.36c0.02,0.01 0.05,0.02 0.07,0.02z"/>
   </g>
   <g>
   </g>
   <g>
   </g>
   <g>
   </g>
   <g>
   </g>
   <g>
   </g>
   <g>
   </g>
   <g>
   </g>
   <g>
   </g>
   <g>
   </g>
   <g>
   </g>
   <g>
   </g>
   <g>
   </g>
   <g>
   </g>
   <g>
   </g>
   <g>
   </g>
  </g>
 </g>
</svg>
