<?xml version="1.0" encoding="UTF-8"?>
<!DOCTYPE svg PUBLIC "-//W3C//DTD SVG 1.1//EN" "http://www.w3.org/Graphics/SVG/1.1/DTD/svg11.dtd">
<!-- Creator: CorelDRAW 2019 (64-Bit) -->
<svg xmlns="http://www.w3.org/2000/svg" xml:space="preserve" width="283px" height="180px" version="1.1" style="shape-rendering:geometricPrecision; text-rendering:geometricPrecision; image-rendering:optimizeQuality; fill-rule:evenodd; clip-rule:evenodd"
viewBox="0 0 36.05 22.93"
 xmlns:xlink="http://www.w3.org/1999/xlink">
 <defs>
  <style type="text/css">
   <![CDATA[
    .fil0 {fill:none}
    .fil2 {fill:#046699}
    .fil10 {fill:#368C0E}
    .fil1 {fill:#48C1E1}
    .fil7 {fill:#89C947}
    .fil4 {fill:#A2DFF9}
    .fil6 {fill:#C0272D}
    .fil8 {fill:#D5E962}
    .fil12 {fill:#E6E9ED}
    .fil5 {fill:#EF5050}
    .fil11 {fill:#F7931E}
    .fil9 {fill:#FFC502}
    .fil3 {fill:black;fill-opacity:0.101961}
   ]]>
  </style>
 </defs>
 <g id="Layer_x0020_1">
  <metadata id="CorelCorpID_0Corel-Layer"/>
  <rect class="fil0" width="36.05" height="22.93"/>
  <g id="new-foods.svg">
   <rect class="fil1" x="13.15" y="6.91" width="1.29" height="0.86"/>
   <path class="fil2" d="M14.71 6.81c0,0.07 -0.06,0.13 -0.13,0.13l-1.57 0c-0.07,0 -0.13,-0.06 -0.13,-0.13l0 -0.92c0,-0.07 0.06,-0.13 0.13,-0.13l1.57 0c0.07,0 0.13,0.06 0.13,0.13l0 0.92 0 0z"/>
   <g>
    <path class="fil3" d="M13.42 6.81l0 -0.92c0,-0.07 0.06,-0.13 0.13,-0.13l-0.54 0c-0.07,0 -0.13,0.06 -0.13,0.13l0 0.92c0,0.07 0.06,0.13 0.13,0.13l0.54 0c-0.07,0 -0.13,-0.06 -0.13,-0.13z"/>
   </g>
   <path class="fil4" d="M12.75 13.9c0.01,0 0.01,-0.01 0.01,-0.02 0.01,0 0.01,-0.01 0,-0.02 -0.01,-0.02 -0.01,-0.03 -0.01,-0.05 0,-0.14 0.3,-0.29 0.76,-0.29 0.14,0 0.28,0.02 0.41,0.05 0,0 0,0 0,0 0.01,0 0.02,0 0.02,-0.01 0.01,0 0.01,-0.01 0.01,-0.02 -0.08,-0.32 -0.13,-0.64 -0.14,-0.97 0,-0.01 0,-0.01 0,-0.02 0,-0.04 0,-0.09 0,-0.14 0,-0.06 0.05,-0.1 0.1,-0.1l0.23 0c0.01,0 0.01,-0.01 0.02,-0.01 0,-0.01 0,-0.01 0,-0.02 0,-0.03 0,-0.06 0,-0.09 0,-0.35 0.22,-0.66 0.56,-0.76 0.01,0 0.01,-0.01 0.01,-0.02 0.01,0 0.01,-0.01 0,-0.02 -0.03,-0.06 -0.05,-0.13 -0.06,-0.19 -0.06,-0.34 0.12,-0.68 0.43,-0.82 0.01,0 0.02,-0.02 0.01,-0.03 -0.01,-0.04 -0.02,-0.08 -0.03,-0.12 -0.05,-0.28 0.06,-0.54 0.26,-0.71l0 -1.07c0,-0.4 -0.33,-0.72 -0.72,-0.72l-1.65 0c-0.39,0 -0.71,0.32 -0.71,0.72l0 5.75c0.14,-0.12 0.31,-0.23 0.49,-0.3z"/>
   <path class="fil2" d="M14.72 11.43c0.01,0 0.01,-0.01 0.01,-0.02 0.01,0 0.01,-0.01 0,-0.02 -0.03,-0.06 -0.05,-0.13 -0.06,-0.19 -0.06,-0.34 0.12,-0.68 0.43,-0.82 0.01,0 0.02,-0.02 0.01,-0.03 -0.01,-0.04 -0.02,-0.08 -0.03,-0.12 -0.05,-0.28 0.06,-0.54 0.26,-0.71l0 -0.48 -3.08 0 0 2.65 2.07 0c0.1,-0.12 0.23,-0.21 0.39,-0.26z"/>
   <path class="fil3" d="M13.03 13.59l0 -5.14c0,-0.4 0.32,-0.72 0.72,-0.72l-0.78 0c-0.39,0 -0.71,0.32 -0.71,0.72l0 5.75c0.14,-0.12 0.31,-0.23 0.49,-0.3 0.01,0 0.01,-0.01 0.01,-0.02 0.01,0 0.01,-0.01 0,-0.02 -0.01,-0.02 -0.01,-0.03 -0.01,-0.05 0,-0.08 0.1,-0.17 0.28,-0.22z"/>
   <path class="fil5" d="M17.69 9.77c0,0.04 0.01,0.09 0.01,0.13 0,0.01 0.01,0.02 0.02,0.03 0.32,0.02 0.59,0.25 0.67,0.56 0,0.01 0,0.02 0.01,0.02 0,0 0.01,0 0.01,0 0.01,0 0.01,0 0.02,-0.01 0.13,-0.12 0.29,-0.19 0.46,-0.21 0.02,0 0.03,-0.01 0.03,-0.02 0.01,-0.35 0.15,-0.68 0.4,-0.93 0,0 0.01,-0.01 0.01,-0.01 -0.05,-0.35 -0.21,-0.69 -0.48,-0.95 -0.05,-0.06 -0.14,-0.06 -0.19,0l-1.09 1.09c0.06,0.09 0.1,0.19 0.12,0.3z"/>
   <g>
    <path class="fil6" d="M18.39 10.49c0,0.01 0,0.02 0.01,0.02 0,0 0.01,0 0.01,0 0.01,0 0.01,0 0.02,-0.01 0.06,-0.06 0.13,-0.1 0.21,-0.14 -0.01,-0.03 -0.03,-0.05 -0.05,-0.08l-0.18 -0.18c-0.07,-0.07 -0.19,-0.07 -0.27,0 0,0 0,0 0,0 0.12,0.1 0.21,0.24 0.25,0.39z"/>
    <path class="fil6" d="M18.77 9.94l-0.25 0c-0.11,0 -0.19,-0.09 -0.19,-0.19 0,-0.1 0.08,-0.19 0.19,-0.19l0.25 0c0.11,0 0.19,0.09 0.19,0.19 0,0.1 -0.08,0.19 -0.19,0.19z"/>
    <path class="fil6" d="M18.48 9.42c-0.05,0 -0.09,-0.02 -0.13,-0.05 -0.07,-0.08 -0.07,-0.2 0,-0.27l0.18 -0.18c0.07,-0.07 0.19,-0.07 0.27,0 0.07,0.07 0.07,0.19 0,0.26l-0.19 0.19c-0.03,0.03 -0.08,0.05 -0.13,0.05z"/>
   </g>
   <path class="fil7" d="M20.83 9.04c0,-0.01 -0.01,-0.01 -0.01,-0.02 -0.01,0 -0.01,0 -0.02,-0.01 -0.52,-0.2 -1.11,-0.08 -1.5,0.31 -0.26,0.27 -0.4,0.62 -0.41,0.97 0.03,0 0.05,0 0.08,0 0.39,0 0.71,0.28 0.79,0.65 0.28,-0.05 0.55,-0.18 0.76,-0.4 0.39,-0.39 0.51,-0.98 0.31,-1.5z"/>
   <path class="fil8" d="M20.16 9.69c-0.08,-0.08 -0.2,-0.08 -0.27,0l-0.65 0.65c0.13,0.04 0.23,0.12 0.32,0.21l0.6 -0.6c0.07,-0.07 0.07,-0.19 0,-0.26z"/>
   <g>
    <path class="fil9" d="M21.1 11.18c0,0.04 0.01,0.08 0.01,0.12 0,0.01 0.01,0.02 0.02,0.02 0.1,0.01 0.2,0.04 0.29,0.1 0,0 0.01,0 0.01,0 0.01,0 0.01,0 0.02,-0.01 0.02,-0.02 0.04,-0.04 0.06,-0.06 0.15,-0.15 0.33,-0.26 0.53,-0.32 0.02,-0.07 0.03,-0.14 0.03,-0.21 0,-0.46 -0.37,-0.83 -0.83,-0.83 -0.39,0 -0.71,0.27 -0.8,0.63 0.33,0.01 0.6,0.24 0.66,0.56z"/>
    <path class="fil9" d="M15.45 12.29c-0.09,-0.15 -0.14,-0.31 -0.16,-0.48 -0.24,-0.04 -0.45,-0.19 -0.56,-0.41 -0.34,0.09 -0.6,0.41 -0.6,0.79 0,0.04 0.01,0.07 0.01,0.1l1.31 0 0 0z"/>
   </g>
   <path class="fil7" d="M21.74 11.88c0.02,0.14 0,0.28 -0.06,0.41l1.06 0c0.25,-0.35 0.31,-0.81 0.15,-1.22 0,-0.01 0,-0.01 -0.01,-0.02 0,0 -0.01,0 -0.01,0 -0.48,-0.19 -1.02,-0.08 -1.38,0.28 -0.03,0.03 -0.05,0.06 -0.08,0.08 0.17,0.1 0.29,0.27 0.33,0.47z"/>
   <path class="fil8" d="M21.68 12.29l0.24 0 0.36 -0.37c0.08,-0.07 0.08,-0.19 0,-0.27 -0.07,-0.07 -0.19,-0.07 -0.26,0l-0.27 0.28c0.01,0.12 -0.01,0.25 -0.07,0.36z"/>
   <path class="fil10" d="M18.41 10.51c-0.07,-0.34 -0.36,-0.58 -0.69,-0.61 0,-0.04 0,-0.09 -0.01,-0.13 -0.07,-0.43 -0.48,-0.71 -0.9,-0.64 -0.22,0.04 -0.4,0.17 -0.52,0.34 -0.16,-0.12 -0.38,-0.18 -0.6,-0.14 -0.43,0.07 -0.71,0.48 -0.64,0.9 0.01,0.04 0.02,0.09 0.04,0.13 -0.32,0.14 -0.51,0.48 -0.44,0.84 0.05,0.34 0.32,0.58 0.64,0.64 -0.03,-0.22 -0.01,-0.44 0.08,-0.65 0,0 0,0 0,0 0,-0.01 0,-0.01 0,-0.01 0.15,-0.06 0.31,-0.09 0.47,-0.09 0.33,0 0.65,0.13 0.89,0.37 0.02,0.02 0.03,0.04 0.05,0.06 -0.02,-0.09 -0.02,-0.18 -0.02,-0.27 0,-0.06 0.05,-0.11 0.11,-0.11l1.3 0c0,-0.01 0,-0.03 0,-0.05 0,-0.23 0.09,-0.43 0.24,-0.58z"/>
   <g>
    <path class="fil7" d="M15.68 10.58c0,0 0,0 0,0 -0.11,0 -0.19,-0.09 -0.19,-0.19 0.01,-0.33 0.27,-0.59 0.6,-0.59 0,0 0,0 0.01,0 0.16,0.01 0.32,0.08 0.43,0.2 0.07,0.07 0.06,0.19 -0.02,0.26 -0.07,0.07 -0.19,0.07 -0.26,-0.01 -0.04,-0.04 -0.1,-0.07 -0.16,-0.07 -0.12,0 -0.22,0.09 -0.22,0.22 0,0.1 -0.09,0.18 -0.19,0.18z"/>
    <path class="fil7" d="M16.71 10.9c-0.02,0 -0.04,0 -0.06,-0.01 -0.1,-0.04 -0.15,-0.14 -0.11,-0.24 0.1,-0.28 0.42,-0.43 0.7,-0.32 0.14,0.05 0.25,0.16 0.31,0.29 0.04,0.1 0,0.21 -0.1,0.25 -0.09,0.04 -0.2,0 -0.24,-0.1 -0.02,-0.04 -0.06,-0.08 -0.1,-0.09 -0.09,-0.03 -0.19,0.01 -0.22,0.1 -0.03,0.07 -0.1,0.12 -0.18,0.12z"/>
   </g>
   <path class="fil10" d="M19.77 11.14l-0.01 0c0,0 0,0 0,0.01l0.25 0c0.08,0 0.14,0.06 0.14,0.13 0,0.38 -0.12,0.73 -0.33,1.01l1.89 0c0.06,-0.13 0.08,-0.27 0.05,-0.41 -0.05,-0.32 -0.32,-0.55 -0.63,-0.58 0,-0.04 0,-0.08 -0.01,-0.12 -0.06,-0.39 -0.43,-0.64 -0.81,-0.57 -0.2,0.03 -0.37,0.14 -0.47,0.3 -0.03,-0.02 -0.07,-0.05 -0.11,-0.06 0.03,0.07 0.04,0.16 0.04,0.24 0,0.02 0,0.03 0,0.05z"/>
   <path class="fil11" d="M19.79 11.14c0,-0.01 0.01,-0.03 0.01,-0.05 0,-0.46 -0.37,-0.83 -0.83,-0.83 -0.45,0 -0.82,0.37 -0.82,0.83 0,0.02 0,0.04 0,0.05l1.64 0z"/>
   <path class="fil7" d="M16.75 11.44c-0.37,-0.36 -0.91,-0.47 -1.38,-0.28 -0.01,0 -0.01,0 -0.02,0.01 0,0 -0.01,0.01 -0.01,0.01 -0.14,0.37 -0.11,0.78 0.08,1.11l1.7 0c-0.17,-0.23 -0.29,-0.5 -0.33,-0.8 -0.02,-0.02 -0.03,-0.03 -0.04,-0.05z"/>
   <path class="fil8" d="M16.21 12.29l0.52 0 -0.52 -0.52c-0.07,-0.08 -0.19,-0.08 -0.26,0 -0.07,0.07 -0.07,0.19 0,0.26l0.26 0.26z"/>
   <path class="fil5" d="M19.83 12.29c0.22,-0.29 0.35,-0.65 0.35,-1.04 0,-0.07 -0.06,-0.13 -0.13,-0.13l-3.18 0c-0.08,0 -0.14,0.06 -0.14,0.13 0,0.39 0.13,0.75 0.35,1.04l2.75 0z"/>
   <g>
    <path class="fil6" d="M18.65 12.29l0 -0.13c0,-0.1 -0.08,-0.19 -0.19,-0.19 -0.1,0 -0.18,0.09 -0.18,0.19l0 0.13 0.37 0z"/>
    <path class="fil6" d="M19.01 12.29l0.29 0c0.06,-0.07 0.06,-0.18 -0.01,-0.25l-0.18 -0.18c-0.08,-0.08 -0.2,-0.08 -0.27,0 -0.07,0.07 -0.07,0.19 0,0.26l0.17 0.17z"/>
    <path class="fil6" d="M17.89 12.29l0.17 -0.17c0.07,-0.07 0.07,-0.19 -0.01,-0.26 -0.07,-0.08 -0.19,-0.08 -0.26,0l-0.18 0.18c-0.07,0.07 -0.07,0.18 -0.01,0.25l0.29 0 0 0z"/>
    <path class="fil6" d="M17.6 11.78l-0.26 0c-0.1,0 -0.18,-0.08 -0.18,-0.18 0,-0.11 0.08,-0.19 0.18,-0.19l0.26 0c0.1,0 0.19,0.08 0.19,0.19 0,0.1 -0.09,0.18 -0.19,0.18z"/>
    <path class="fil6" d="M19.57 11.78l-0.26 0c-0.1,0 -0.18,-0.08 -0.18,-0.18 0,-0.11 0.08,-0.19 0.18,-0.19l0.26 0c0.1,0 0.19,0.08 0.19,0.19 0,0.1 -0.09,0.18 -0.19,0.18z"/>
   </g>
   <path class="fil12" d="M13.95 13.58c0.01,0 0.01,0 0.01,0 0.01,0 0.01,0 0.02,0 0,-0.01 0.01,-0.02 0.01,-0.02l0 -0.32c0,-0.09 0.07,-0.16 0.16,-0.16 0.09,0 0.16,0.07 0.16,0.16l0 0.32c0,0 0,0.01 0.01,0.02 0,0 0.01,0 0.01,0 0.01,0 0.01,0 0.01,0 0.13,-0.04 0.29,-0.06 0.45,-0.06 0.45,0 0.76,0.15 0.76,0.29 0,0.02 -0.01,0.03 -0.02,0.05 0,0.01 0,0.02 0,0.02 0,0.01 0.01,0.02 0.02,0.02 0.58,0.24 0.99,0.75 1.07,1.33 0,0 0.01,0.01 0.01,0.01 0.01,0.01 0.01,0.01 0.02,0.01 0,0 0,0 0,0l3.95 -1.5c0.07,-0.03 0.15,-0.04 0.23,-0.04 0.12,0 0.23,0.03 0.33,0.08 0.17,0.1 0.29,0.26 0.33,0.46l0.03 0.18c0.01,0.01 0.01,0.02 0.02,0.02 0,0 0,0.01 0.01,0.01 0,0 0.01,-0.01 0.01,-0.01l1.33 -0.78c0.11,-0.41 0.17,-0.83 0.17,-1.26 0,-0.07 -0.06,-0.13 -0.13,-0.13l-9.02 0c-0.07,0 -0.13,0.06 -0.13,0.13 0,0.4 0.05,0.79 0.15,1.16 0.01,0.01 0.02,0.01 0.02,0.01z"/>
   <path class="fil3" d="M13.95 13.58c0.01,0 0.01,0 0.01,0 0.01,0 0.01,0 0.02,0 0,-0.01 0.01,-0.02 0.01,-0.02l0 -0.32c0,-0.09 0.07,-0.16 0.16,-0.16 0.09,0 0.16,0.07 0.16,0.16l0 0.32c0,0 0,0.01 0.01,0.02 0,0 0.01,0 0.01,0 0.01,0 0.01,0 0.01,0 0.11,-0.03 0.24,-0.05 0.38,-0.06 -0.09,-0.36 -0.13,-0.73 -0.13,-1.11 0,-0.07 0.05,-0.13 0.13,-0.13l-0.81 0c-0.07,0 -0.13,0.06 -0.13,0.13 0,0.4 0.05,0.79 0.15,1.16 0.01,0.01 0.02,0.01 0.02,0.01z"/>
   <path class="fil7" d="M14.15 13.67c0.05,-0.03 0.11,-0.05 0.18,-0.08l0 -0.35c0,-0.1 -0.08,-0.19 -0.18,-0.19 -0.11,0 -0.19,0.09 -0.19,0.19l0 0.35c0.07,0.03 0.14,0.05 0.19,0.08z"/>
   <path class="fil5" d="M16.06 17.14l-0.68 0 0 0c-0.32,0 -0.59,-0.23 -0.65,-0.54l-0.01 -0.04c-0.06,-0.31 0.12,-0.62 0.42,-0.74l1.51 -0.57c-0.08,-0.62 -0.52,-1.14 -1.12,-1.38 -0.06,0.09 -0.26,0.18 -0.52,0.21 -0.01,0 -0.02,0.01 -0.02,0.02 0,0.01 0,0.02 0.01,0.02 0.13,0.11 0.22,0.23 0.23,0.31 0,0.03 -0.01,0.06 -0.03,0.08 -0.03,0.03 -0.09,0.05 -0.18,0.05 0,0 0,0 0,0 -0.17,0 -0.39,-0.07 -0.61,-0.19 -0.09,-0.05 -0.18,-0.11 -0.25,-0.17 0,0 -0.01,0 -0.01,0 -0.01,0 -0.01,0 -0.02,0 -0.07,0.06 -0.15,0.12 -0.25,0.17 -0.21,0.12 -0.44,0.19 -0.61,0.19 -0.08,0 -0.15,-0.02 -0.18,-0.05 -0.02,-0.02 -0.02,-0.05 -0.02,-0.08 0.01,-0.08 0.09,-0.2 0.23,-0.31 0.01,0 0.01,-0.01 0.01,-0.02 -0.01,-0.01 -0.02,-0.02 -0.03,-0.02 -0.26,-0.03 -0.46,-0.12 -0.52,-0.21 -0.66,0.26 -1.13,0.87 -1.13,1.58 0,0.95 0.84,1.72 1.87,1.72l2.6 0c0.03,0 0.01,-0.01 -0.04,-0.03z"/>
   <path class="fil3" d="M12.44 15.45c0,-0.57 0.3,-1.07 0.76,-1.38 -0.22,-0.04 -0.39,-0.12 -0.44,-0.2 -0.66,0.26 -1.13,0.87 -1.13,1.58 0,0.95 0.84,1.72 1.87,1.72l0.81 0c-1.03,0 -1.87,-0.77 -1.87,-1.72z"/>
   <path class="fil10" d="M15.57 13.81c0,-0.17 -0.35,-0.31 -0.78,-0.31 -0.27,0 -0.5,0.05 -0.64,0.13 -0.14,-0.08 -0.38,-0.13 -0.64,-0.13 -0.44,0 -0.79,0.14 -0.79,0.31 0,0.14 0.24,0.26 0.56,0.3 -0.2,0.15 -0.29,0.32 -0.21,0.41 0.11,0.12 0.48,0.07 0.82,-0.13 0.1,-0.05 0.19,-0.11 0.26,-0.17 0.07,0.06 0.15,0.12 0.25,0.17 0.35,0.2 0.71,0.25 0.82,0.13 0.08,-0.09 -0.01,-0.26 -0.21,-0.41 0.33,-0.04 0.56,-0.16 0.56,-0.3z"/>
   <path class="fil7" d="M24.41 14.92l-0.05 -0.27c-0.02,-0.1 -0.11,-0.16 -0.2,-0.14l-1.94 0.35 1.24 -0.82c0.05,-0.04 0.08,-0.11 0.07,-0.18 0,-0.02 -0.01,-0.03 -0.02,-0.05l-0.14 -0.25c-0.02,-0.04 -0.06,-0.07 -0.11,-0.08 -0.04,-0.01 -0.09,-0.01 -0.13,0.02l-1.61 0.95 0.3 1.64 1.85 0.34c0.05,0 0.1,-0.01 0.13,-0.03 0.04,-0.03 0.07,-0.07 0.07,-0.12l0.05 -0.28c0,-0.02 0,-0.04 0,-0.06 -0.02,-0.06 -0.07,-0.12 -0.14,-0.13l-1.45 -0.34 1.94 -0.35c0.09,-0.02 0.16,-0.11 0.14,-0.2z"/>
   <path class="fil11" d="M14.7 16.6c0.06,0.33 0.35,0.57 0.68,0.57l5.84 0c0.21,0 0.4,-0.1 0.54,-0.25 0.13,-0.16 0.18,-0.37 0.14,-0.57l-0.39 -2.11c-0.03,-0.2 -0.16,-0.37 -0.34,-0.47 -0.18,-0.1 -0.39,-0.12 -0.58,-0.04l-5.46 2.07c-0.31,0.12 -0.49,0.44 -0.43,0.77l0 0.03z"/>
   <g>
    <path class="fil3" d="M14.7 16.6c0.01,0.05 0.03,0.1 0.05,0.15 0.08,-0.15 0.21,-0.26 0.37,-0.32l5.7 -2.17c0.2,-0.07 0.42,-0.06 0.61,0.05 0.04,0.02 0.08,0.04 0.11,0.07l-0.03 -0.13c-0.03,-0.21 -0.16,-0.38 -0.34,-0.48 -0.18,-0.1 -0.39,-0.12 -0.58,-0.04l-5.46 2.07c-0.31,0.12 -0.49,0.44 -0.43,0.77l0 0.03z"/>
   </g>
   <g>
    <path class="fil9" d="M20.89 16.29c-0.02,-0.1 -0.12,-0.17 -0.22,-0.15 -0.1,0.02 -0.17,0.12 -0.15,0.22l0.16 0.81 0.38 0 -0.17 -0.88z"/>
    <path class="fil9" d="M19.87 16.51c-0.02,-0.1 -0.11,-0.17 -0.21,-0.15 -0.11,0.02 -0.17,0.12 -0.15,0.22l0.11 0.59 0.38 0 -0.13 -0.66z"/>
    <path class="fil9" d="M18.88 15.1c0.02,0.09 0.1,0.14 0.18,0.14 0.02,0 0.03,0 0.05,0 0.1,-0.03 0.16,-0.13 0.14,-0.23l-0.18 -0.71 -0.36 0.14 0.17 0.66z"/>
    <path class="fil9" d="M17.91 16.35c-0.02,-0.1 -0.12,-0.17 -0.22,-0.15 -0.1,0.02 -0.17,0.11 -0.15,0.22l0.14 0.75 0.38 0 -0.15 -0.82z"/>
    <path class="fil9" d="M16.02 16c0.02,0.09 0.1,0.15 0.18,0.15 0.02,0 0.03,0 0.04,-0.01 0.1,-0.02 0.17,-0.12 0.15,-0.22l-0.12 -0.55 -0.36 0.13 0.11 0.5z"/>
   </g>
   <g>
   </g>
   <g>
   </g>
   <g>
   </g>
   <g>
   </g>
   <g>
   </g>
   <g>
   </g>
   <g>
   </g>
   <g>
   </g>
   <g>
   </g>
   <g>
   </g>
   <g>
   </g>
   <g>
   </g>
   <g>
   </g>
   <g>
   </g>
   <g>
   </g>
  </g>
 </g>
</svg>
