<?xml version="1.0" encoding="UTF-8"?>
<!DOCTYPE svg PUBLIC "-//W3C//DTD SVG 1.1//EN" "http://www.w3.org/Graphics/SVG/1.1/DTD/svg11.dtd">
<!-- Creator: CorelDRAW 2019 (64-Bit) -->
<svg xmlns="http://www.w3.org/2000/svg" xml:space="preserve" width="283px" height="180px" version="1.1" style="shape-rendering:geometricPrecision; text-rendering:geometricPrecision; image-rendering:optimizeQuality; fill-rule:evenodd; clip-rule:evenodd"
viewBox="0 0 36.05 22.93"
 xmlns:xlink="http://www.w3.org/1999/xlink">
 <defs>
  <style type="text/css">
   <![CDATA[
    .fil0 {fill:none}
    .fil5 {fill:#00AB5E}
    .fil2 {fill:#00ACB3}
    .fil1 {fill:#00D8E0}
    .fil4 {fill:#54E360}
    .fil6 {fill:#D5EDED}
    .fil3 {fill:#FEF4F5}
   ]]>
  </style>
 </defs>
 <g id="Layer_x0020_1">
  <metadata id="CorelCorpID_0Corel-Layer"/>
  <rect class="fil0" width="36.05" height="22.93"/>
  <g id="language.svg">
   <path class="fil1" d="M20.44 7.16l-1.26 -0.9c-0.1,-0.66 -0.67,-1.17 -1.36,-1.17l-4.79 0c-0.76,0 -1.38,0.62 -1.38,1.38l0 4.79c0,0.76 0.62,1.38 1.38,1.38l4.19 0c0.21,0 0.38,-0.17 0.38,-0.38 0,-0.1 -0.05,-0.19 -0.11,-0.26l1.07 -1.07c0.07,0.07 0.16,0.11 0.26,0.11 0.21,0 0.38,-0.17 0.38,-0.38l0 -2 1.24 -0.89c0.1,-0.07 0.15,-0.18 0.15,-0.3 0,-0.12 -0.05,-0.24 -0.15,-0.31l0 0zm0 0z"/>
   <path class="fil2" d="M20.44 7.16l-1.26 -0.9c-0.1,-0.66 -0.67,-1.17 -1.36,-1.17l-2.37 0 0 7.55 1.77 0c0.21,0 0.38,-0.17 0.38,-0.38 0,-0.1 -0.05,-0.19 -0.11,-0.26l1.07 -1.07c0.07,0.07 0.16,0.11 0.26,0.11 0.21,0 0.38,-0.17 0.38,-0.38l0 -2 1.24 -0.89c0.1,-0.07 0.15,-0.18 0.15,-0.3 0,-0.12 -0.05,-0.24 -0.15,-0.31l0 0zm0 0z"/>
   <path class="fil3" d="M16.57 9.92c-0.3,0 -0.58,-0.09 -0.82,-0.23 0.29,-0.31 0.48,-0.71 0.53,-1.16l0.29 0c0.12,0 0.21,-0.09 0.21,-0.21 0,-0.11 -0.09,-0.21 -0.21,-0.21l-0.93 0 0 -0.51c0,-0.11 -0.1,-0.21 -0.22,-0.21 -0.11,0 -0.21,0.1 -0.21,0.21l0 0.51 -0.93 0c-0.12,0 -0.21,0.1 -0.21,0.21 0,0.12 0.09,0.21 0.21,0.21l0.29 0c0.04,0.45 0.24,0.85 0.52,1.16 -0.23,0.14 -0.51,0.23 -0.81,0.23 -0.12,0 -0.21,0.09 -0.21,0.21 0,0.11 0.09,0.21 0.21,0.21 0.42,0 0.82,-0.14 1.14,-0.36 0.33,0.23 0.73,0.36 1.15,0.36 0.12,0 0.21,-0.1 0.21,-0.21 0,-0.12 -0.09,-0.21 -0.21,-0.21zm-0.71 -1.39c-0.05,0.35 -0.21,0.66 -0.44,0.9 -0.23,-0.24 -0.38,-0.55 -0.43,-0.9l0.87 0zm0 0z"/>
   <path class="fil4" d="M23.02 10.29l-4.8 0c-0.75,0 -1.37,0.62 -1.37,1.37l0 2.61 -1.24 0.89c-0.1,0.07 -0.16,0.18 -0.16,0.3 0,0.12 0.06,0.23 0.16,0.3l1.26 0.9c0.09,0.66 0.66,1.17 1.35,1.17l4.8 0c0.76,0 1.37,-0.61 1.37,-1.37l0 -4.8c0,-0.75 -0.61,-1.37 -1.37,-1.37zm0 0z"/>
   <path class="fil5" d="M23.02 10.29l-2.4 0 0 7.54 2.4 0c0.76,0 1.37,-0.61 1.37,-1.37l0 -4.8c0,-0.75 -0.61,-1.37 -1.37,-1.37zm0 0z"/>
   <path class="fil3" d="M19.51 15.32c0,-0.01 0,-0.03 0.01,-0.04l0.77 -2.52c0.03,-0.12 0.18,-0.17 0.33,-0.17 0.15,0 0.3,0.05 0.33,0.17l0.78 2.52c0,0.01 0,0.03 0,0.04 0,0.12 -0.18,0.21 -0.32,0.21 -0.09,0 -0.16,-0.02 -0.18,-0.1l-0.15 -0.53 -0.92 0 -0.15 0.53c-0.02,0.08 -0.09,0.1 -0.17,0.1 -0.14,0 -0.33,-0.08 -0.33,-0.21zm1.46 -0.83l-0.35 -1.23 -0.35 1.23 0.7 0zm0 0z"/>
   <g>
    <path class="fil6" d="M16.57 8.53c0.12,0 0.21,-0.09 0.21,-0.21 0,-0.11 -0.09,-0.21 -0.21,-0.21l-0.93 0 0 -0.51c0,-0.1 -0.09,-0.19 -0.19,-0.21l0 1.14 0.41 0c-0.05,0.34 -0.19,0.64 -0.41,0.87l0 0.6c0.32,0.21 0.71,0.34 1.12,0.34 0.12,0 0.21,-0.1 0.21,-0.21 0,-0.12 -0.09,-0.21 -0.21,-0.21 -0.3,0 -0.58,-0.09 -0.82,-0.23 0.29,-0.31 0.48,-0.71 0.53,-1.16l0.29 0zm0 0z"/>
    <path class="fil6" d="M21.73 15.28l-0.78 -2.52c-0.03,-0.12 -0.18,-0.17 -0.33,-0.17l0 0.68 0.35 1.22 -0.35 0 0 0.41 0.46 0 0.15 0.53c0.02,0.08 0.09,0.1 0.18,0.1 0.14,0 0.32,-0.09 0.32,-0.21 0,-0.01 0,-0.03 0,-0.04l0 0zm0 0z"/>
   </g>
  </g>
 </g>
</svg>
