<?xml version="1.0" encoding="UTF-8"?>
<!DOCTYPE svg PUBLIC "-//W3C//DTD SVG 1.1//EN" "http://www.w3.org/Graphics/SVG/1.1/DTD/svg11.dtd">
<!-- Creator: CorelDRAW 2019 (64-Bit) -->
<svg xmlns="http://www.w3.org/2000/svg" xml:space="preserve" width="283px" height="180px" version="1.1" style="shape-rendering:geometricPrecision; text-rendering:geometricPrecision; image-rendering:optimizeQuality; fill-rule:evenodd; clip-rule:evenodd"
viewBox="0 0 36.05 22.93"
 xmlns:xlink="http://www.w3.org/1999/xlink"
 enable-background="new 0 0 512 512">
 <defs>
  <style type="text/css">
   <![CDATA[
    .fil0 {fill:none}
    .fil10 {fill:#444145}
    .fil7 {fill:#544F56}
    .fil8 {fill:#655E67}
    .fil6 {fill:#8CC951}
    .fil5 {fill:#ACD980}
    .fil4 {fill:#E09380}
    .fil2 {fill:#F3D332}
    .fil1 {fill:#F7E365}
    .fil9 {fill:#F9B1A0}
    .fil3 {fill:#FAA68E}
   ]]>
  </style>
 </defs>
 <g id="Layer_x0020_1">
  <metadata id="CorelCorpID_0Corel-Layer"/>
  <rect class="fil0" width="36.05" height="22.93"/>
  <g id="over-plan.svg">
   <g>
    <path class="fil1" d="M23.82 4.7l-3.58 0c-0.38,0 -0.69,0.3 -0.69,0.68l0 3.59c0,0.38 0.31,0.69 0.69,0.69l0.64 0c0.19,0 0.34,0.15 0.34,0.33l0 0.58c0,0.13 0.16,0.18 0.23,0.08l0.68 -0.87c0.06,-0.08 0.15,-0.12 0.25,-0.12l1.44 0c0.38,0 0.69,-0.31 0.69,-0.69l0 -3.59c0,-0.38 -0.31,-0.68 -0.69,-0.68l0 0z"/>
    <path class="fil2" d="M23.82 4.7l-0.74 0c0.38,0 0.69,0.3 0.69,0.68l0 3.59c0,0.38 -0.31,0.69 -0.69,0.69l0.74 0c0.38,0 0.69,-0.31 0.69,-0.69l0 -3.59c0,-0.38 -0.31,-0.68 -0.69,-0.68l0 0z"/>
    <path class="fil3" d="M19.37 18.23l-7.24 0 0.1 -1.37c0.07,-0.83 0.7,-1.52 1.52,-1.65l0.58 -0.09c0.29,-0.04 0.5,-0.3 0.5,-0.59l0 -2.1 2.16 0 0 2.1c0,0.29 0.21,0.55 0.5,0.59l0.58 0.09c0.82,0.13 1.45,0.82 1.51,1.65l0.08 1.06c0.01,0.17 -0.12,0.31 -0.29,0.31l0 0z"/>
    <path class="fil4" d="M14.34 16.43c0.02,-0.1 0.11,-0.17 0.21,-0.17l0.9 0c0.49,0 0.89,-0.39 0.89,-0.88l0 -0.37c0,-0.09 0.07,-0.16 0.16,-0.16l0.58 0c-0.06,-0.1 -0.09,-0.2 -0.09,-0.32l0 -0.63 -1.9 0c-0.11,0 -0.17,-0.11 -0.11,-0.19l0.38 -0.55c0.06,-0.08 0.09,-0.18 0.09,-0.28 -0.01,-0.13 -0.07,-0.27 -0.19,-0.36l-0.01 0c-0.13,-0.09 -0.28,-0.11 -0.42,-0.08l0 2.09c0,0.29 -0.21,0.55 -0.5,0.59l-0.58 0.09c-0.38,0.06 -0.73,0.24 -0.99,0.51l-0.61 2.36 -0.02 0.15 1.74 0 0.47 -1.8z"/>
    <path class="fil5" d="M19.37 18.23l-7.24 0 0.1 -1.37c0.07,-0.83 0.7,-1.52 1.52,-1.65l0.58 -0.09c0.04,0 0.08,-0.02 0.12,-0.03 0.35,0.38 0.87,0.63 1.45,0.63 0.58,0 1.1,-0.25 1.46,-0.64 0.04,0.02 0.08,0.03 0.13,0.04l0.58 0.09c0.82,0.13 1.45,0.82 1.51,1.65l0.08 1.06c0.01,0.17 -0.12,0.31 -0.29,0.31l0 0z"/>
    <path class="fil6" d="M14.55 16.26l0.9 0c0.39,0 0.71,-0.24 0.84,-0.58 -0.13,0.02 -0.26,0.04 -0.39,0.04 -0.58,0 -1.1,-0.25 -1.45,-0.63 -0.35,0.13 -1.07,0.01 -1.69,0.63l-0.61 2.36 -0.02 0.15 1.74 0 0.47 -1.8c0.02,-0.1 0.11,-0.17 0.21,-0.17z"/>
    <path class="fil6" d="M19.66 17.92l-0.08 -1.06c-0.03,-0.41 -0.2,-0.79 -0.47,-1.09 -0.62,-0.67 -1.38,-0.56 -1.72,-0.67 0,0 -0.01,-0.01 -0.01,-0.01 -0.01,0 -0.01,0 -0.02,-0.01 -0.06,0.07 -0.13,0.13 -0.2,0.19l0.16 0.02c0.83,0.13 1.46,0.82 1.52,1.65l0.08 1.06c0,0.09 -0.03,0.17 -0.09,0.23l0.54 0c0.17,0 0.3,-0.14 0.29,-0.31z"/>
    <path class="fil6" d="M18.23 16.99c-0.11,0 -0.21,0.09 -0.21,0.2l0 1.04 0.41 0 0 -1.04c0,-0.11 -0.09,-0.2 -0.2,-0.2l0 0z"/>
    <g>
     <path class="fil7" d="M21.9 8.08c-0.11,0 -0.2,-0.09 -0.2,-0.2l0 -0.7c0,-0.11 0.09,-0.2 0.2,-0.2l0.13 0c0.3,0 0.54,-0.25 0.54,-0.54 0,-0.3 -0.24,-0.54 -0.54,-0.54 -0.3,0 -0.54,0.24 -0.54,0.54 0,0.11 -0.09,0.2 -0.2,0.2 -0.11,0 -0.21,-0.09 -0.21,-0.2 0,-0.53 0.43,-0.95 0.95,-0.95 0.52,0 0.95,0.42 0.95,0.95 0,0.49 -0.39,0.9 -0.87,0.94l0 0.5c0,0.11 -0.1,0.2 -0.21,0.2l0 0z"/>
     <path class="fil7" d="M21.9 8.86c-0.11,0 -0.2,-0.09 -0.2,-0.2l0 -0.06c0,-0.11 0.09,-0.21 0.2,-0.21 0.11,0 0.21,0.1 0.21,0.21l0 0.06c0,0.11 -0.1,0.2 -0.21,0.2z"/>
    </g>
    <path class="fil8" d="M16.3 5.61l-0.92 0c-1.06,0 -1.99,0.58 -2.48,1.44 -0.68,0.18 -1.18,0.81 -1.16,1.55l0.08 2.73 7.99 0 0 -2.21c0,-1.94 -1.57,-3.51 -3.51,-3.51z"/>
    <g>
     <path class="fil3" d="M13.55 11.78l-1.4 0c-0.34,0 -0.62,-0.27 -0.62,-0.61l0 -0.19c0,-0.34 0.28,-0.61 0.62,-0.61l1.4 0 0 1.41z"/>
     <path class="fil3" d="M18.08 11.78l1.41 0c0.34,0 0.61,-0.27 0.61,-0.61l0 -0.19c0,-0.34 -0.27,-0.61 -0.61,-0.61l-1.41 0 0 1.41z"/>
     <path class="fil3" d="M19.12 10.84c0,2.02 -2.03,3.18 -3.22,3.18 -1.19,0 -3.22,-1.16 -3.22,-3.18 0,-1.28 0.35,-2.26 0.93,-2.91 0.13,-0.15 0.36,-0.15 0.49,0 0.14,0.15 0.28,0.29 0.43,0.42 0.18,0.16 0.39,0.3 0.62,0.3 0.16,0 0.32,-0.08 0.41,-0.21 0.07,-0.1 0.21,-0.14 0.32,-0.08 0.75,0.35 1.58,0.56 2.41,0.61 0.33,0.02 0.62,0.25 0.69,0.58 0.09,0.39 0.14,0.82 0.14,1.29l0 0z"/>
    </g>
    <path class="fil4" d="M18.98 9.55c-0.06,-0.26 -0.25,-0.46 -0.49,-0.54 0.07,0.36 0.11,0.75 0.11,1.18 0,2.06 -2.08,3.24 -3.29,3.24 -0.57,0 -1.32,-0.26 -1.96,-0.74 0.7,0.86 1.79,1.33 2.55,1.33 1.19,0 3.22,-1.16 3.22,-3.18 0,-0.47 -0.05,-0.9 -0.14,-1.29l0 0z"/>
    <path class="fil9" d="M13.29 18.23l0.59 -2.26c0.02,-0.1 0.11,-0.16 0.21,-0.16l0.9 0c0.49,0 0.89,-0.4 0.89,-0.89l0 -0.37c0,-0.09 0.07,-0.16 0.16,-0.16l0.88 0c0.26,0 0.48,-0.21 0.48,-0.47 0,-0.13 -0.05,-0.25 -0.14,-0.34 -0.08,-0.08 -0.2,-0.13 -0.33,-0.13l-2.31 0c-0.1,0 -0.16,-0.12 -0.1,-0.2l0.38 -0.55c0.06,-0.08 0.09,-0.18 0.08,-0.27 0,-0.14 -0.07,-0.28 -0.19,-0.36l-0.01 -0.01c-0.21,-0.16 -0.51,-0.11 -0.66,0.1 -0.28,0.38 -1.47,2.04 -1.59,2.2l-0.94 3.62c-0.03,0.13 0.06,0.25 0.19,0.25l1.51 0z"/>
   </g>
   <g>
    <path class="fil10" d="M14.96 11.06c0.11,0 0.2,-0.09 0.2,-0.2l0 -0.22c0,-0.11 -0.09,-0.2 -0.2,-0.2 -0.11,0 -0.2,0.09 -0.2,0.2l0 0.22c0,0.11 0.09,0.2 0.2,0.2z"/>
    <path class="fil10" d="M17.92 11.06c0.11,0 0.2,-0.09 0.2,-0.2l0 -0.22c0,-0.11 -0.09,-0.2 -0.2,-0.2 -0.11,0 -0.2,0.09 -0.2,0.2l0 0.22c0,0.11 0.09,0.2 0.2,0.2z"/>
    <path class="fil10" d="M16.1 12.03c0.27,-0.15 0.52,-0.15 0.79,0 0.03,0.02 0.07,0.03 0.1,0.03 0.07,0 0.14,-0.04 0.17,-0.1 0.06,-0.09 0.03,-0.21 -0.07,-0.27 -0.39,-0.23 -0.8,-0.23 -1.19,0 -0.1,0.06 -0.13,0.18 -0.07,0.27 0.05,0.1 0.17,0.13 0.27,0.07l0 0z"/>
   </g>
  </g>
 </g>
</svg>
