<?xml version="1.0" encoding="UTF-8"?>
<!DOCTYPE svg PUBLIC "-//W3C//DTD SVG 1.1//EN" "http://www.w3.org/Graphics/SVG/1.1/DTD/svg11.dtd">
<!-- Creator: CorelDRAW 2019 (64-Bit) -->
<svg xmlns="http://www.w3.org/2000/svg" xml:space="preserve" width="285px" height="182px" version="1.1" style="shape-rendering:geometricPrecision; text-rendering:geometricPrecision; image-rendering:optimizeQuality; fill-rule:evenodd; clip-rule:evenodd"
viewBox="0 0 36.53 23.33"
 xmlns:xlink="http://www.w3.org/1999/xlink">
 <defs>
  <style type="text/css">
   <![CDATA[
    .str0 {stroke:#2B2A29;stroke-width:0.27;stroke-miterlimit:2.61313}
    .fil0 {fill:none}
    .fil1 {fill:#00A0E3}
   ]]>
  </style>
 </defs>
 <g id="Layer_x0020_1">
  <metadata id="CorelCorpID_0Corel-Layer"/>
  <rect class="fil0 str0" x="0.13" y="0.13" width="36.27" height="23.07"/>
  <g id="packlight.svg">
   <path class="fil1" d="M24.42 11.83l-0.63 0c-0.07,0 -0.15,0.04 -0.2,0.1l-0.38 0.51c-0.08,0.12 -0.06,0.28 0.05,0.37 0.04,0.04 0.1,0.05 0.15,0.05 0.08,0 0.15,-0.03 0.2,-0.1l0.3 -0.4 0.51 0c0.14,0 0.25,-0.12 0.25,-0.27 0,-0.14 -0.11,-0.26 -0.25,-0.26l0 0zm0 0z"/>
   <path class="fil1" d="M22.38 13.98c-0.1,-0.09 -0.26,-0.07 -0.35,0.04l-0.35 0.47 -1.09 0 -0.88 -3.12c0.26,-0.11 0.44,-0.36 0.44,-0.66 0,-0.39 -0.31,-0.71 -0.68,-0.71l-0.14 0 -0.18 -0.65c-0.04,-0.14 -0.18,-0.22 -0.31,-0.18 -0.14,0.04 -0.21,0.19 -0.17,0.33l0.14 0.5 -0.14 0 -0.93 -0.93c0.02,-0.01 0.04,-0.02 0.06,-0.04 0.27,-0.19 0.44,-0.48 0.5,-0.82 0.05,-0.33 -0.02,-0.67 -0.21,-0.94 -0.19,-0.28 -0.47,-0.46 -0.79,-0.52 -0.65,-0.12 -1.28,0.35 -1.4,1.04 -0.06,0.41 0.07,0.81 0.33,1.09 -0.07,0.04 -0.13,0.08 -0.19,0.12 -0.12,-0.25 -0.35,-0.45 -0.63,-0.5 -0.22,-0.04 -0.45,0.01 -0.64,0.15 -0.19,0.14 -0.32,0.35 -0.36,0.59 -0.02,0.16 -0.01,0.32 0.04,0.46 -0.01,0 -0.02,0.01 -0.04,0.02 -0.05,0.04 -0.09,0.1 -0.1,0.17l-0.35 2.1c-0.06,0.38 0.17,0.74 0.52,0.81l0.42 0.08c0.04,0.01 0.08,0.01 0.12,0.01 0.02,0 0.05,0 0.08,-0.01l-0.08 1.25 -0.61 1.31c-0.05,0.12 -0.08,0.26 -0.08,0.39 0,0.14 0.03,0.27 0.08,0.39l-0.29 0c-0.05,0 -0.1,0.01 -0.14,0.04l-2.01 1.33c-0.11,0.08 -0.15,0.24 -0.07,0.36 0.05,0.08 0.13,0.12 0.21,0.12 0.05,0 0.09,-0.01 0.13,-0.04l1.95 -1.29 0.95 0c0.02,0 0.04,0 0.05,0 0.02,0 0.03,0 0.04,0l2.67 0c0.07,0 0.13,-0.03 0.17,-0.07l1.67 -1.65 0.66 0 -8.54 0 0 0 1.4 0c0.08,0 0.15,-0.04 0.2,-0.1l0.43 -0.58c0.08,-0.11 0.06,-0.27 -0.04,-0.36l8.53 0zm-6.26 -0.96c-0.09,-0.02 -0.2,-0.03 -0.29,-0.08 -0.16,-0.08 -0.23,-0.26 -0.21,-0.44 0.01,-0.05 0.02,-0.1 0.03,-0.15 0.72,-0.04 1.23,-0.25 1.57,-0.48l-0.06 0.36c-0.02,0.12 0.04,0.23 0.14,0.28l0.89 0.45 1.04 1.36c0.12,0.17 0.1,0.41 -0.06,0.54 -0.16,0.13 -0.39,0.1 -0.52,-0.06l-0.89 -1.18c-0.03,-0.03 -0.06,-0.06 -0.09,-0.07l-0.76 -0.38c-0.02,-0.01 -0.04,-0.02 -0.06,-0.02l-0.73 -0.13zm3.5 0.98l-1.07 -1.41c-0.02,-0.02 -0.04,-0.04 -0.06,-0.06 -0.01,-0.01 -0.02,-0.01 -0.03,-0.02l-0.77 -0.38 0.11 -0.72 1.4 0 0.86 3.08 -0.26 0c-0.01,-0.17 -0.07,-0.34 -0.18,-0.49zm-1.05 -3.48l0.57 0c0,0 0,0 0,0 0,0 0,0 0,0l0.33 0c0.1,0 0.18,0.08 0.18,0.19 0,0.1 -0.08,0.18 -0.18,0.18l-0.08 0c0,0 0,0 0,0l-1.7 0 -0.51 -0.46c-0.1,-0.09 -0.26,-0.08 -0.35,0.03 -0.09,0.11 -0.08,0.28 0.02,0.37l0.4 0.36c-0.2,0.21 -0.65,0.56 -1.51,0.63l0.09 -0.56 0.17 -1.06c0,0 0,0 0,0l0.05 -0.32c0.05,-0.3 0.3,-0.62 0.85,-0.62 0.01,0 0.03,0 0.04,0 0,0 0,0 0.01,0 0.17,0 0.32,0.06 0.43,0.17 0,0.01 0.01,0.01 0.01,0.01l1.01 1.01c0.05,0.05 0.11,0.07 0.17,0.07l0 0zm-2.17 -2.65c0.06,-0.36 0.36,-0.61 0.7,-0.61 0.04,0 0.08,0 0.12,0.01 0.19,0.03 0.35,0.14 0.46,0.3 0.11,0.16 0.16,0.36 0.12,0.55 -0.06,0.37 -0.36,0.62 -0.7,0.62 -0.04,0 -0.08,0 -0.12,-0.01 -0.39,-0.07 -0.65,-0.45 -0.58,-0.86zm-1.49 1.46c0.01,-0.1 0.07,-0.2 0.15,-0.26 0.06,-0.04 0.13,-0.06 0.2,-0.06 0.02,0 0.04,0 0.06,0 0.2,0.04 0.33,0.25 0.3,0.46 -0.02,0.11 -0.07,0.2 -0.15,0.26 -0.08,0.05 -0.17,0.07 -0.27,0.06 -0.19,-0.04 -0.33,-0.24 -0.29,-0.46l0 0zm0.08 3.03l-0.42 -0.07c-0.08,-0.02 -0.13,-0.11 -0.12,-0.21l0.31 -1.85 0.71 0.14 -0.12 0.72 -0.19 1.16c-0.03,0.08 -0.1,0.13 -0.17,0.11zm0.04 3.82c-0.12,-0.07 -0.2,-0.2 -0.2,-0.35 0,-0.05 0.01,-0.11 0.03,-0.16l0.63 -1.36c0.02,-0.03 0.03,-0.06 0.03,-0.09l0.05 -0.83c0.19,0.11 0.41,0.13 0.62,0.17 0.04,0.01 0.08,0.01 0.12,0.02l-0.05 0.85 -0.73 1.57c-0.06,0.13 -0.18,0.21 -0.31,0.22l-0.05 0c-0.05,-0.01 -0.09,-0.02 -0.14,-0.04zm2.77 0.04l-1.82 0 0.75 -1.61c0,-0.01 0.01,-0.02 0.01,-0.03 0.01,-0.02 0.01,-0.05 0.01,-0.07l0.06 -0.82 0.59 0.3 0.86 1.13c0.1,0.13 0.22,0.23 0.36,0.28l-0.82 0.82zm0 0z"/>
   <path class="fil1" d="M21.58 8.65l1.28 0c0.53,0 0.96,-0.45 0.96,-1 0,-0.56 -0.43,-1.01 -0.96,-1.01 -0.13,0 -0.25,0.03 -0.37,0.08 -0.22,-0.29 -0.55,-0.47 -0.91,-0.47 -0.63,0 -1.15,0.54 -1.15,1.2 0,0.32 0.12,0.62 0.34,0.85 0.21,0.22 0.5,0.35 0.81,0.35l0 0zm0 -1.88c0.26,0 0.49,0.16 0.59,0.41 0.03,0.08 0.1,0.13 0.18,0.15 0.07,0.02 0.15,0 0.21,-0.05 0.09,-0.08 0.19,-0.12 0.3,-0.12 0.25,0 0.46,0.22 0.46,0.49 0,0.26 -0.21,0.48 -0.46,0.48l-1.28 0c-0.17,0 -0.34,-0.07 -0.46,-0.2 -0.12,-0.13 -0.19,-0.3 -0.19,-0.48 0,-0.37 0.29,-0.68 0.65,-0.68l0 0zm0 0z"/>
   <path class="fil1" d="M13.37 7.99c0.51,0 0.92,-0.43 0.92,-0.95 0,-0.53 -0.41,-0.96 -0.92,-0.96 -0.24,0 -0.47,0.1 -0.64,0.28 -0.18,0.18 -0.27,0.42 -0.27,0.68 0,0.52 0.41,0.95 0.91,0.95l0 0zm-0.29 -1.26c0.08,-0.08 0.18,-0.13 0.29,-0.13 0.23,0 0.42,0.2 0.42,0.44 0,0.23 -0.19,0.43 -0.42,0.43 -0.23,0 -0.41,-0.2 -0.41,-0.43 0,-0.12 0.04,-0.23 0.12,-0.31zm0 0z"/>
   <path class="fil1" d="M11.98 6.51l0.12 0.07c0.04,0.02 0.08,0.03 0.13,0.03 0.08,0 0.17,-0.04 0.21,-0.13 0.07,-0.12 0.03,-0.28 -0.09,-0.35l-0.12 -0.08c-0.12,-0.07 -0.27,-0.02 -0.34,0.1 -0.07,0.13 -0.03,0.29 0.09,0.36l0 0zm0 0z"/>
   <path class="fil1" d="M14.76 7.58l-0.12 -0.07c-0.12,-0.08 -0.27,-0.03 -0.34,0.09 -0.07,0.13 -0.03,0.29 0.09,0.36l0.12 0.07c0.04,0.02 0.08,0.03 0.13,0.03 0.08,0 0.17,-0.04 0.21,-0.13 0.07,-0.12 0.03,-0.28 -0.09,-0.35l0 0zm0 0z"/>
   <path class="fil1" d="M12.11 8.06c0.04,0 0.09,-0.01 0.12,-0.03l0.12 -0.07c0.12,-0.07 0.16,-0.23 0.09,-0.36 -0.07,-0.12 -0.22,-0.17 -0.34,-0.09l-0.12 0.07c-0.12,0.07 -0.16,0.23 -0.09,0.35 0.05,0.09 0.13,0.13 0.22,0.13l0 0zm0 0z"/>
   <path class="fil1" d="M14.52 6.61c0.04,0 0.08,-0.01 0.12,-0.03l0.12 -0.07c0.12,-0.07 0.16,-0.23 0.09,-0.36 -0.07,-0.12 -0.22,-0.17 -0.34,-0.1l-0.12 0.08c-0.12,0.07 -0.16,0.23 -0.09,0.35 0.05,0.09 0.13,0.13 0.22,0.13zm0 0z"/>
   <path class="fil1" d="M13.37 5.93c0.14,0 0.25,-0.12 0.25,-0.26l0 -0.15c0,-0.14 -0.11,-0.26 -0.25,-0.26 -0.14,0 -0.25,0.12 -0.25,0.26l0 0.15c0,0.14 0.11,0.26 0.25,0.26zm0 0z"/>
   <path class="fil1" d="M13.12 8.43l0 0.15c0,0.14 0.11,0.26 0.25,0.26 0.14,0 0.25,-0.12 0.25,-0.26l0 -0.15c0,-0.15 -0.11,-0.26 -0.25,-0.26 -0.14,0 -0.25,0.11 -0.25,0.26zm0 0z"/>
   <path class="fil1" d="M23.03 13.27c-0.04,-0.1 -0.14,-0.17 -0.25,-0.16 -0.1,0.01 -0.19,0.08 -0.22,0.19 -0.03,0.1 0.01,0.22 0.09,0.28 0.08,0.07 0.2,0.07 0.29,0.01 0.09,-0.07 0.13,-0.21 0.09,-0.32l0 0zm0 0z"/>
  </g>
 </g>
</svg>
