<?xml version="1.0" encoding="UTF-8"?>
<!DOCTYPE svg PUBLIC "-//W3C//DTD SVG 1.1//EN" "http://www.w3.org/Graphics/SVG/1.1/DTD/svg11.dtd">
<!-- Creator: CorelDRAW 2019 (64-Bit) -->
<svg xmlns="http://www.w3.org/2000/svg" xml:space="preserve" width="884px" height="562px" version="1.1" style="shape-rendering:geometricPrecision; text-rendering:geometricPrecision; image-rendering:optimizeQuality; fill-rule:evenodd; clip-rule:evenodd"
viewBox="0 0 89.42 56.85"
 xmlns:xlink="http://www.w3.org/1999/xlink">
 <defs>
  <style type="text/css">
   <![CDATA[
    .fil1 {fill:none}
    .fil8 {fill:#125D9D}
    .fil5 {fill:#C8BEB2}
    .fil6 {fill:#CDB994}
    .fil4 {fill:#DCC69F}
    .fil3 {fill:#E4E8DB}
    .fil9 {fill:#E7BE29}
    .fil0 {fill:#E7BE29}
    .fil7 {fill:#EA672C}
    .fil2 {fill:#F5F9EC}
    .fil10 {fill:white}
   ]]>
  </style>
 </defs>
 <g id="Layer_x0020_1">
  <metadata id="CorelCorpID_0Corel-Layer"/>
  <circle class="fil0" cx="44.71" cy="28.42" r="22.76"/>
  <rect class="fil1" width="89.42" height="56.85"/>
  <g id="passpor-documents.svg">
   <path class="fil2" d="M58.89 15.41c1.2,0.32 1.91,1.57 1.59,2.77l-6.74 25.17c-0.32,1.2 -1.55,1.92 -2.78,1.6l-13.12 -3.54c-1.2,-0.31 -1.92,-1.54 -1.6,-2.77l6.75 -25.15c0.32,-1.2 1.57,-1.91 2.77,-1.59l13.13 3.51z"/>
   <path class="fil3" d="M48.73 18.74l-7.14 0 -5.35 19.9c-0.32,1.23 0.4,2.46 1.6,2.77l13.12 3.54c1.23,0.32 2.46,-0.4 2.78,-1.6l4.14 -15.45 -9.15 -9.16 0 0z"/>
   <path class="fil4" d="M58.89 15.41c1.2,0.32 1.91,1.57 1.59,2.77l-2.92 10.94 -17.49 -4.68 2.92 -10.95c0.32,-1.2 1.57,-1.91 2.77,-1.59l13.13 3.51 0 0z"/>
   <g>
    <rect class="fil5" transform="matrix(-0.00543766 0.0202946 -0.0202946 -0.00543766 45.9555 33.0457)" width="377.22" height="53.9"/>
    <rect class="fil5" transform="matrix(-0.00543766 0.0202946 -0.0202946 -0.00543766 47.128 28.6724)" width="107.77" height="53.9"/>
    <rect class="fil5" transform="matrix(-0.00543766 0.0202946 -0.0202946 -0.00543766 50.4112 29.5483)" width="107.77" height="53.9"/>
    <rect class="fil5" transform="matrix(-0.00543766 0.0202946 -0.0202946 -0.00543766 53.6895 30.4289)" width="107.77" height="53.9"/>
    <rect class="fil5" transform="matrix(-0.00543766 0.0202946 -0.0202946 -0.00543766 49.2343 33.9257)" width="377.22" height="53.9"/>
    <rect class="fil5" transform="matrix(-0.00543766 0.0202946 -0.0202946 -0.00543766 52.5194 34.8063)" width="377.22" height="53.9"/>
   </g>
   <path class="fil2" d="M55.01 16.71l-0.93 -0.25 -3.34 3.12c-0.88,-0.22 -1.86,-0.49 -2.03,-0.54 -0.64,-0.17 -1.35,-0.03 -1.43,0.29 -0.07,0.32 0.47,0.79 1.08,0.96 0.17,0.05 1.16,0.32 2.04,0.54l1.35 4.39 0.93 0.25 -0.1 -4.05c0.62,0.17 1.25,0.34 1.67,0.44l0.71 1.3 0.64 0.17 -0.12 -1.79 1 -1.49 -0.63 -0.18 -1.28 0.74c-0.42,-0.1 -1.03,-0.27 -1.64,-0.44l2.08 -3.46z"/>
   <polygon class="fil6" points="40.07,24.44 57.56,29.12 57.88,27.9 48.73,18.74 41.59,18.74 "/>
   <path class="fil3" d="M48.71 19.04c-0.64,-0.17 -1.35,-0.03 -1.43,0.29 -0.07,0.32 0.47,0.79 1.08,0.96 0.17,0.05 1.16,0.32 2.04,0.54l1.35 4.39 0.93 0.25 -0.07 -2.85 -3.46 -3.46c-0.22,-0.05 -0.39,-0.1 -0.44,-0.12z"/>
   <path class="fil7" d="M46.87 12.19l-7.93 29.52 -1.1 -0.3c-1.2,-0.31 -1.92,-1.54 -1.6,-2.77l6.75 -25.15c0.32,-1.2 1.57,-1.91 2.77,-1.59l1.11 0.29 0 0z"/>
   <path class="fil8" d="M49.25 40.56c0,1.25 -1.01,2.25 -2.26,2.25l-17 0c-0.62,0 -1.13,-0.49 -1.13,-1.13l0 -22.64c0,-0.61 0.51,-1.13 1.13,-1.13l17 0c1.25,0 2.26,1.01 2.26,2.26l0 20.39 0 0z"/>
   <path class="fil9" d="M39.06 21.32c-3.75,0 -6.79,3.04 -6.79,6.8 0,3.73 3.04,6.77 6.79,6.77 3.73,0 6.78,-3.04 6.78,-6.77 0,-3.76 -3.05,-6.8 -6.78,-6.8zm5.01 4.25l-2.43 0c-0.24,-1.18 -0.61,-2.14 -0.98,-2.88 1.5,0.47 2.72,1.5 3.41,2.88zm-3.31 2.55c0,0.49 -0.05,0.95 -0.1,1.4l-3.21 0c-0.05,-0.45 -0.1,-0.91 -0.1,-1.4 0,-0.52 0.05,-0.98 0.1,-1.43l3.21 0c0.05,0.45 0.1,0.91 0.1,1.43zm-3.12 -2.55c0.3,-1.43 0.84,-2.46 1.25,-3.12 0.05,0 0.1,0 0.17,0 0.05,0 0.1,0 0.15,0 0.44,0.66 0.96,1.69 1.25,3.12l-2.82 0 0 0zm-0.19 -2.88c-0.37,0.74 -0.74,1.7 -0.99,2.88l-2.42 0c0.68,-1.38 1.91,-2.41 3.41,-2.88zm-3.86 4l2.7 0c-0.05,0.45 -0.07,0.91 -0.07,1.43 0,0.49 0.05,0.95 0.07,1.4l-2.7 0c-0.12,-0.45 -0.19,-0.91 -0.19,-1.4 0,-0.52 0.07,-0.98 0.19,-1.43zm0.45 3.95l2.45 0c0.22,1.18 0.59,2.14 0.96,2.87 -1.5,-0.46 -2.73,-1.49 -3.41,-2.87zm4.85 3.12c-0.41,-0.64 -0.93,-1.67 -1.25,-3.12l2.82 0c-0.32,1.45 -0.83,2.48 -1.25,3.12 -0.05,0 -0.1,0 -0.15,0 -0.07,0 -0.12,0 -0.17,0l0 0zm1.77 -0.25c0.37,-0.73 0.74,-1.69 0.98,-2.87l2.43 0c-0.69,1.38 -1.91,2.41 -3.41,2.87zm3.85 -3.99l-2.7 0c0.05,-0.45 0.08,-0.91 0.08,-1.4 0,-0.52 -0.03,-0.98 -0.08,-1.43l2.7 0c0.12,0.45 0.2,0.91 0.2,1.43 0,0.49 -0.08,0.95 -0.2,1.4z"/>
   <g>
    <path class="fil10" d="M33 39.43l0 -1.62 0.62 0c0.1,0 0.19,0 0.24,0.02 0.08,0 0.15,0.03 0.2,0.08 0.05,0.02 0.1,0.07 0.12,0.14 0.05,0.08 0.05,0.15 0.05,0.22 0,0.15 -0.02,0.25 -0.12,0.35 -0.1,0.1 -0.25,0.14 -0.47,0.14l-0.41 0 0 0.67 -0.23 0zm0.23 -0.86l0.41 0c0.13,0 0.22,-0.03 0.3,-0.08 0.05,-0.04 0.07,-0.12 0.07,-0.22 0,-0.05 0,-0.12 -0.05,-0.17 -0.02,-0.05 -0.07,-0.07 -0.12,-0.1 -0.05,0 -0.12,0 -0.2,0l-0.41 0 0 0.57z"/>
    <path class="fil10" d="M34.16 39.43l0.64 -1.62 0.22 0 0.66 1.62 -0.25 0 -0.17 -0.49 -0.69 0 -0.17 0.49 -0.24 0 0 0zm0.46 -0.67l0.57 0 -0.17 -0.44c-0.05,-0.14 -0.1,-0.24 -0.13,-0.34 -0.02,0.1 -0.05,0.2 -0.07,0.32l-0.2 0.46 0 0z"/>
    <path class="fil10" d="M35.78 38.91l0.19 -0.02c0.03,0.07 0.05,0.14 0.08,0.19 0.05,0.05 0.09,0.1 0.17,0.13 0.07,0.05 0.15,0.05 0.24,0.05 0.08,0 0.15,0 0.22,-0.03 0.05,-0.02 0.1,-0.05 0.13,-0.1 0.05,-0.05 0.05,-0.1 0.05,-0.14 0,-0.05 0,-0.1 -0.03,-0.13 -0.05,-0.05 -0.1,-0.07 -0.15,-0.1 -0.04,-0.02 -0.14,-0.04 -0.29,-0.07 -0.15,-0.05 -0.25,-0.07 -0.32,-0.12 -0.07,-0.03 -0.12,-0.08 -0.17,-0.15 -0.05,-0.05 -0.05,-0.12 -0.05,-0.2 0,-0.07 0.03,-0.14 0.07,-0.22 0.03,-0.07 0.1,-0.12 0.2,-0.17 0.07,-0.02 0.2,-0.05 0.29,-0.05 0.13,0 0.23,0.03 0.32,0.05 0.1,0.05 0.18,0.1 0.22,0.17 0.05,0.08 0.08,0.18 0.08,0.27l-0.22 0c0,-0.09 -0.05,-0.17 -0.1,-0.22 -0.07,-0.05 -0.17,-0.07 -0.3,-0.07 -0.12,0 -0.22,0.02 -0.27,0.05 -0.07,0.05 -0.09,0.12 -0.09,0.19 0,0.05 0.02,0.1 0.07,0.13 0.02,0.05 0.15,0.07 0.32,0.12 0.17,0.05 0.29,0.07 0.37,0.1 0.07,0.05 0.14,0.1 0.19,0.17 0.05,0.07 0.08,0.15 0.08,0.22 0,0.1 -0.03,0.17 -0.08,0.25 -0.05,0.07 -0.12,0.14 -0.22,0.19 -0.1,0.03 -0.19,0.05 -0.32,0.05 -0.14,0 -0.27,-0.02 -0.36,-0.05 -0.1,-0.05 -0.18,-0.12 -0.22,-0.19 -0.05,-0.1 -0.1,-0.2 -0.1,-0.3z"/>
    <path class="fil10" d="M37.3 38.91l0.19 -0.02c0,0.07 0.03,0.14 0.08,0.19 0.02,0.05 0.07,0.1 0.15,0.13 0.07,0.05 0.17,0.05 0.27,0.05 0.07,0 0.14,0 0.19,-0.03 0.08,-0.02 0.12,-0.05 0.15,-0.1 0.02,-0.05 0.05,-0.1 0.05,-0.14 0,-0.05 -0.03,-0.1 -0.05,-0.13 -0.03,-0.05 -0.07,-0.07 -0.15,-0.1 -0.05,-0.02 -0.15,-0.04 -0.29,-0.07 -0.15,-0.05 -0.25,-0.07 -0.3,-0.12 -0.07,-0.03 -0.14,-0.08 -0.17,-0.15 -0.05,-0.05 -0.07,-0.12 -0.07,-0.2 0,-0.07 0.02,-0.14 0.07,-0.22 0.05,-0.07 0.12,-0.12 0.2,-0.17 0.1,-0.02 0.19,-0.05 0.32,-0.05 0.09,0 0.22,0.03 0.29,0.05 0.1,0.05 0.17,0.1 0.22,0.17 0.05,0.08 0.08,0.18 0.08,0.27l-0.2 0c0,-0.09 -0.05,-0.17 -0.12,-0.22 -0.05,-0.05 -0.15,-0.07 -0.27,-0.07 -0.13,0 -0.22,0.02 -0.3,0.05 -0.05,0.05 -0.07,0.12 -0.07,0.19 0,0.05 0.02,0.1 0.05,0.13 0.05,0.05 0.14,0.07 0.32,0.12 0.19,0.05 0.29,0.07 0.36,0.1 0.1,0.05 0.18,0.1 0.22,0.17 0.03,0.07 0.05,0.15 0.05,0.22 0,0.1 -0.02,0.17 -0.07,0.25 -0.05,0.07 -0.12,0.14 -0.2,0.19 -0.09,0.03 -0.19,0.05 -0.31,0.05 -0.15,0 -0.27,-0.02 -0.37,-0.05 -0.1,-0.05 -0.17,-0.12 -0.25,-0.19 -0.05,-0.1 -0.07,-0.2 -0.07,-0.3z"/>
    <path class="fil10" d="M38.87 39.43l0 -1.62 0.61 0c0.12,0 0.2,0 0.25,0.02 0.1,0 0.14,0.03 0.19,0.08 0.08,0.02 0.1,0.07 0.15,0.14 0.03,0.08 0.05,0.15 0.05,0.22 0,0.15 -0.05,0.25 -0.15,0.35 -0.07,0.1 -0.24,0.14 -0.46,0.14l-0.42 0 0 0.67 -0.22 0zm0.22 -0.86l0.42 0c0.14,0 0.24,-0.03 0.29,-0.08 0.07,-0.04 0.1,-0.12 0.1,-0.22 0,-0.05 -0.03,-0.12 -0.05,-0.17 -0.05,-0.05 -0.1,-0.07 -0.15,-0.1 -0.02,0 -0.1,0 -0.19,0l-0.42 0 0 0.57z"/>
    <path class="fil10" d="M40.32 38.64c0,-0.27 0.07,-0.49 0.22,-0.64 0.14,-0.14 0.34,-0.22 0.56,-0.22 0.15,0 0.27,0.03 0.39,0.1 0.13,0.08 0.22,0.17 0.3,0.3 0.05,0.14 0.07,0.29 0.07,0.44 0,0.17 -0.02,0.32 -0.1,0.44 -0.05,0.12 -0.14,0.22 -0.27,0.29 -0.12,0.08 -0.24,0.1 -0.39,0.1 -0.15,0 -0.29,-0.02 -0.42,-0.1 -0.12,-0.07 -0.19,-0.17 -0.27,-0.32 -0.07,-0.12 -0.09,-0.24 -0.09,-0.39l0 0zm0.22 0c0,0.2 0.05,0.35 0.17,0.47 0.1,0.1 0.22,0.17 0.39,0.17 0.15,0 0.3,-0.07 0.39,-0.17 0.1,-0.12 0.15,-0.27 0.15,-0.49 0,-0.13 -0.02,-0.25 -0.05,-0.35 -0.05,-0.09 -0.12,-0.17 -0.19,-0.22 -0.1,-0.07 -0.2,-0.1 -0.3,-0.1 -0.15,0 -0.29,0.05 -0.39,0.18 -0.12,0.09 -0.17,0.27 -0.17,0.51z"/>
    <path class="fil10" d="M42.16 39.43l0 -1.62 0.71 0c0.14,0 0.24,0.02 0.34,0.05 0.07,0.02 0.12,0.07 0.17,0.14 0.05,0.08 0.08,0.15 0.08,0.25 0,0.12 -0.05,0.22 -0.13,0.29 -0.07,0.08 -0.19,0.13 -0.34,0.15 0.05,0.03 0.1,0.05 0.12,0.07 0.08,0.08 0.13,0.15 0.2,0.23l0.27 0.44 -0.27 0 -0.22 -0.35c-0.05,-0.09 -0.1,-0.17 -0.15,-0.22 -0.05,-0.05 -0.07,-0.07 -0.1,-0.1 -0.05,-0.02 -0.07,-0.04 -0.1,-0.04 -0.02,0 -0.07,0 -0.12,0l-0.24 0 0 0.71 -0.22 0 0 0 0 0zm0.22 -0.91l0.44 0c0.1,0 0.17,0 0.24,-0.03 0.05,-0.02 0.1,-0.04 0.13,-0.09 0.02,-0.05 0.05,-0.1 0.05,-0.15 0,-0.07 -0.05,-0.15 -0.1,-0.2 -0.05,-0.05 -0.15,-0.07 -0.27,-0.07l-0.49 0 0 0.54 0 0 0 0z"/>
    <polygon class="fil10" points="44.14,39.43 44.14,38 43.63,38 43.63,37.81 44.9,37.81 44.9,38 44.36,38 44.36,39.43 "/>
   </g>
   <g>
   </g>
   <g>
   </g>
   <g>
   </g>
   <g>
   </g>
   <g>
   </g>
   <g>
   </g>
   <g>
   </g>
   <g>
   </g>
   <g>
   </g>
   <g>
   </g>
   <g>
   </g>
   <g>
   </g>
   <g>
   </g>
   <g>
   </g>
   <g>
   </g>
  </g>
 </g>
</svg>
