<?xml version="1.0" encoding="UTF-8"?>
<!DOCTYPE svg PUBLIC "-//W3C//DTD SVG 1.1//EN" "http://www.w3.org/Graphics/SVG/1.1/DTD/svg11.dtd">
<!-- Creator: CorelDRAW 2019 (64-Bit) -->
<svg xmlns="http://www.w3.org/2000/svg" xml:space="preserve" width="283px" height="180px" version="1.1" style="shape-rendering:geometricPrecision; text-rendering:geometricPrecision; image-rendering:optimizeQuality; fill-rule:evenodd; clip-rule:evenodd"
viewBox="0 0 36.05 22.93"
 xmlns:xlink="http://www.w3.org/1999/xlink"
 enable-background="new 0 0 510 510">
 <defs>
  <style type="text/css">
   <![CDATA[
    .fil0 {fill:none}
    .fil3 {fill:#51609C}
    .fil4 {fill:#6D78B1}
    .fil2 {fill:#7EDA5D}
    .fil1 {fill:#96CAFC}
    .fil6 {fill:#CD2C7C}
    .fil10 {fill:#E1DEF1}
    .fil9 {fill:#F9F0F1}
    .fil8 {fill:#FDBF00}
    .fil5 {fill:#FF4F75}
    .fil7 {fill:#FFDA2D}
   ]]>
  </style>
 </defs>
 <g id="Layer_x0020_1">
  <metadata id="CorelCorpID_0Corel-Layer"/>
  <rect class="fil0" width="36.05" height="22.93"/>
  <g id="street-food.svg">
   <g>
    <polygon class="fil1" points="17.34,11.78 16.56,12.09 15.78,11.78 15.47,11.15 15.78,10.53 17.34,10.53 "/>
    <path class="fil2" d="M19.84 11.78l1.41 0.31 1.4 -0.31 0.31 -0.63 -0.31 -0.62c-0.34,0 -2.47,0 -2.81,0l0 1.25z"/>
    <path class="fil3" d="M22.65 11.78l0.31 0.31 0.32 -0.31c0,-0.59 0,-1.85 0,-2.19l-0.32 -0.31 -0.31 0.31 0 2.19z"/>
    <path class="fil4" d="M15.78 11.78l-0.31 0.31 -0.31 -0.31c0,-0.59 0,-1.85 0,-2.19l0.31 -0.31 0.31 0.31 0 2.19z"/>
    <path class="fil5" d="M14.53 11.78l0 1.24 0.32 0.32 -0.32 0.31 0 2.18 4.69 0 0.31 -2.03 -0.31 -2.02c-0.32,0 -4.37,0 -4.69,0l0 0z"/>
    <path class="fil6" d="M23.9 11.78c-0.32,0 -4.37,0 -4.68,0l0 4.05 4.68 0c0,-0.08 0,-2.12 0,-2.18l-0.31 -0.31 0.31 -0.32 0 -1.24z"/>
    <circle class="fil4" cx="17.03" cy="15.83" r="0.94"/>
    <circle class="fil3" cx="21.4" cy="15.83" r="0.94"/>
    <path class="fil7" d="M14.53 13.02l0 0.32c0,0 0,0.2 0,0.31l2.35 0 -0.63 0c0,-0.11 0.31,-0.31 0.31,-0.31 0,0 -0.31,-0.21 -0.31,-0.32 -0.16,0 -1.25,0 -2.34,0 -1.09,0 -2.18,0 -2.34,0l2.96 0z"/>
    <path class="fil8" d="M23.9 13.02c-0.32,0 -4.37,0 -4.68,0l0 0.63 4.68 0c0,-0.22 0,-0.41 0,-0.63z"/>
    <path class="fil6" d="M22.82 7.87c0,0 -0.38,0.04 -1.21,0.11l0.08 0.8 0.46 0.81 2.33 0c-0.07,-0.17 -0.46,-1.21 -0.52,-1.38 -0.27,0.07 -1.14,-0.34 -1.14,-0.34z"/>
    <path class="fil5" d="M18.85 6.32l-0.23 -0.16c-0.18,0 -0.34,0 -0.52,0l-0.86 1.71 -0.29 1.72 1.96 0 0.21 -1.42 -0.21 -1.43c0,0 -0.03,-0.14 -0.06,-0.42z"/>
    <path class="fil5" d="M15.25 6.16c-0.03,0.09 -1.25,3.33 -1.29,3.43l2.33 0 0.9 -1.72 0.25 -1.71c-0.59,0 -1.83,0 -2.19,0l0 0z"/>
    <path class="fil6" d="M19.53 7.48l-0.18 1.06 0.18 1.05 1.96 0 0.07 -0.78 -0.59 -0.78c-0.27,-0.02 -0.76,-0.44 -0.76,-0.44 0,0 -0.48,0.05 -0.68,-0.11l0 0z"/>
    <path class="fil8" d="M21.25 7.79c0,0 -0.26,0.24 -0.28,0.24 0.17,0.52 0.35,1.04 0.52,1.56l0.66 0c-0.17,-0.51 -0.37,-1.1 -0.54,-1.61 -0.02,0 -0.36,-0.19 -0.36,-0.19z"/>
    <path class="fil7" d="M17.44 6.16c-0.17,0.51 -0.99,2.92 -1.16,3.43l0.66 0c0.17,-0.52 0.99,-2.91 1.17,-3.43 -0.02,0 -0.65,0 -0.67,0l0 0z"/>
    <polygon class="fil7" points="18.91,6.74 18.91,9.59 19.22,9.59 19.37,8.39 19.22,7.17 19.05,6.79 "/>
    <path class="fil8" d="M19.53 7.48l-0.16 -0.31 -0.15 0 0 2.42 0.31 0c0,-0.57 0,-2.11 0,-2.11z"/>
    <path class="fil9" d="M18.62 6.16c0.04,0.04 0.2,0.54 0.6,1.01l0.28 -0.51 -0.28 -0.5c-0.21,0 -0.39,0 -0.6,0l0 0z"/>
    <path class="fil10" d="M21.49 8c0.36,-0.06 0.74,0 1.07,0.17 0.32,0.17 0.69,0.22 1.05,0.14 0.12,-0.04 0.23,-0.07 0.35,-0.1 -0.21,-0.55 -0.66,-1.73 -0.78,-2.05 -0.22,0 -3.74,0 -3.96,0l0 1.01c0.21,0.25 0.48,0.48 0.84,0.64 0.44,0.21 0.96,0.26 1.43,0.19z"/>
   </g>
  </g>
 </g>
</svg>
