<?xml version="1.0" encoding="UTF-8"?>
<!DOCTYPE svg PUBLIC "-//W3C//DTD SVG 1.1//EN" "http://www.w3.org/Graphics/SVG/1.1/DTD/svg11.dtd">
<!-- Creator: CorelDRAW 2019 (64-Bit) -->
<svg xmlns="http://www.w3.org/2000/svg" xml:space="preserve" width="283px" height="180px" version="1.1" style="shape-rendering:geometricPrecision; text-rendering:geometricPrecision; image-rendering:optimizeQuality; fill-rule:evenodd; clip-rule:evenodd"
viewBox="0 0 36.05 22.93"
 xmlns:xlink="http://www.w3.org/1999/xlink">
 <defs>
  <style type="text/css">
   <![CDATA[
    .fil0 {fill:none}
    .fil4 {fill:#01C0F9}
    .fil3 {fill:#67D9FB}
    .fil2 {fill:#99E6FD}
    .fil1 {fill:#CCF2FE}
    .fil5 {fill:url(#id0)}
   ]]>
  </style>
  <linearGradient id="id0" gradientUnits="userSpaceOnUse" x1="16.3" y1="16.37" x2="20.01" y2="12.66">
   <stop offset="0" style="stop-opacity:1; stop-color:#34CDFA"/>
   <stop offset="1" style="stop-opacity:1; stop-color:#E8D9F1"/>
  </linearGradient>
 </defs>
 <g id="Layer_x0020_1">
  <metadata id="CorelCorpID_0Corel-Layer"/>
  <rect class="fil0" width="36.05" height="22.93"/>
  <g id="tourism-office.svg">
   <circle class="fil1" cx="18.02" cy="6.69" r="1.59"/>
   <path class="fil2" d="M18.55 7.75c0,0 0,0 0,0 -0.88,0 -1.59,-0.71 -1.59,-1.59 0,-0.3 0.08,-0.58 0.23,-0.83 -0.47,0.29 -0.76,0.8 -0.76,1.36 0,0.88 0.71,1.59 1.59,1.59 0.56,0 1.07,-0.29 1.36,-0.76 -0.25,0.15 -0.53,0.23 -0.82,0.23 -0.01,0 -0.01,0 -0.01,0l0 0z"/>
   <path class="fil2" d="M19.08 8.28l-2.12 0c-0.58,0 -1.06,0.47 -1.06,1.06l0 1.59c0,0.3 0.24,0.53 0.53,0.53l3.18 0c0.3,0 0.54,-0.23 0.54,-0.53l0 -1.59c-0.01,-0.59 -0.48,-1.06 -1.07,-1.06l0 0z"/>
   <path class="fil3" d="M16.96 10.93l0 -1.59c0,-0.59 0.48,-1.06 1.06,-1.06l-1.06 0c-0.58,0 -1.06,0.47 -1.06,1.06l0 1.59c0,0.3 0.24,0.53 0.53,0.53l1.06 0c-0.29,0 -0.53,-0.23 -0.53,-0.53l0 0z"/>
   <path class="fil1" d="M13.25 10.4l9.55 0c0.29,0 0.53,0.24 0.53,0.53l0 6.37c0,0.29 -0.24,0.53 -0.53,0.53l-9.55 0c-0.3,0 -0.53,-0.24 -0.53,-0.53l0 -6.37c0,-0.29 0.23,-0.53 0.53,-0.53z"/>
   <path class="fil2" d="M14.31 12.52c0,-0.29 0.24,-0.53 0.53,-0.53l8.49 0 0 -1.06c0,-0.29 -0.24,-0.53 -0.53,-0.53l-9.55 0c-0.3,0 -0.53,0.24 -0.53,0.53l0 6.37c0,0.29 0.23,0.53 0.53,0.53l1.06 0 0 -5.31z"/>
   <polygon class="fil4" points="11.65,10.4 24.39,10.4 24.39,11.46 11.65,11.46 "/>
   <path class="fil5" d="M19.57 16.64l0.6 -0.05 -0.99 -2.29 0.88 -0.88c0.1,-0.1 0.15,-0.23 0.15,-0.37 0,-0.14 -0.05,-0.28 -0.15,-0.38 -0.1,-0.1 -0.24,-0.15 -0.38,-0.15 -0.14,0 -0.28,0.05 -0.37,0.15l-0.88 0.88 -2.29 -0.99 -0.05 0.6 1.54 1.19 -0.91 0.91 -0.95 -0.14 -0.01 0.68 0.87 0.29 0.3 0.88 0.67 -0.01 -0.13 -0.95 0.91 -0.91 1.19 1.54z"/>
  </g>
 </g>
</svg>
