<?xml version="1.0" encoding="UTF-8"?>
<!DOCTYPE svg PUBLIC "-//W3C//DTD SVG 1.1//EN" "http://www.w3.org/Graphics/SVG/1.1/DTD/svg11.dtd">
<!-- Creator: CorelDRAW 2019 (64-Bit) -->
<svg xmlns="http://www.w3.org/2000/svg" xml:space="preserve" width="884px" height="562px" version="1.1" style="shape-rendering:geometricPrecision; text-rendering:geometricPrecision; image-rendering:optimizeQuality; fill-rule:evenodd; clip-rule:evenodd"
viewBox="0 0 1187.62 755.02"
 xmlns:xlink="http://www.w3.org/1999/xlink"
 data-name="Layer 1">
 <defs>
  <style type="text/css">
   <![CDATA[
    .fil1 {fill:none}
    .fil0 {fill:#3FB59B}
    .fil7 {fill:#284268}
    .fil5 {fill:#50A6EA}
    .fil6 {fill:#72BCEF}
    .fil4 {fill:#C6E02D}
    .fil3 {fill:#D8FF33}
    .fil2 {fill:#E5F5FD}
   ]]>
  </style>
 </defs>
 <g id="Layer_x0020_1">
  <metadata id="CorelCorpID_0Corel-Layer"/>
  <circle class="fil0" cx="593.81" cy="377.51" r="302.28"/>
  <rect class="fil1" width="1187.62" height="755.03"/>
  <g id="tour-pakages.svg">
   <path class="fil2" d="M724.25 204.23l20.81 16.07 32.33 4.32c0.17,-0.02 0.34,-0.03 0.51,-0.03 2.2,0 4,1.79 4,4 0,0.89 -0.3,1.75 -0.84,2.45l-27.74 17.67 -10.03 31.23c-0.75,0.98 -1.93,1.56 -3.17,1.56 -2.01,0 -3.71,-1.5 -3.97,-3.49l-12.4 -30.12 -20.81 -16.08 -24.25 31.39c-0.66,0.86 -1.68,1.36 -2.76,1.36 -0.77,0 -1.52,-0.25 -2.13,-0.73l-6.52 -5.02c-1.7,-1.33 -2.7,-3.37 -2.7,-5.53 0,-1.07 0.25,-2.13 0.72,-3.09l17.01 -34.31 -43.82 -33.84c-4.3,-3.3 -6.83,-8.42 -6.83,-13.84 0,-9.62 7.8,-17.43 17.43,-17.43 3.88,0 7.65,1.3 10.71,3.68l43.82 33.85 28.9 -25.13c1.27,-1.1 2.89,-1.71 4.57,-1.71 1.55,0 3.05,0.51 4.27,1.45l6.51 5.03c0.85,0.66 1.35,1.68 1.35,2.76 0,0.77 -0.26,1.52 -0.73,2.13l-24.24 31.4z"/>
   <path class="fil3" d="M600.41 298.27c0.12,0.75 0.18,1.51 0.18,2.27 0,4.72 -2.38,9.12 -6.33,11.71l-21.87 14.32c-3.94,2.59 -6.32,6.99 -6.32,11.71 0,0.88 0.08,1.76 0.25,2.62l2.94 15.39c0.83,4.35 3.68,8.06 7.67,9.98l15.36 7.4c4.84,2.33 7.92,7.23 7.92,12.6 0,0.83 -0.07,1.67 -0.22,2.49l-5.6 31.08c-0.38,2.14 -1.26,4.16 -2.56,5.9 -2.64,3.54 -6.8,5.62 -11.21,5.62 -5.44,0 -10.4,-3.16 -12.69,-8.1l-5.62 -12.12c-2.3,-4.94 -7.25,-8.1 -12.7,-8.1l-22.76 0c0,0 -0.01,0 -0.01,0 -2.87,0 -5.68,0.89 -8.03,2.54l-15.31 10.75c-2.35,1.65 -5.16,2.54 -8.04,2.54 -1.09,0 -2.17,-0.13 -3.23,-0.38l-26.4 -6.27 -0.01 0c-1.45,-7.8 -2.18,-15.77 -2.18,-23.73 0,-71.9 58.27,-130.23 130.18,-130.3l6.59 40.08z"/>
   <path class="fil4" d="M494.13 412.22l0 0c-1.45,-7.81 -2.18,-15.78 -2.18,-23.73 0,-61.19 42.6,-114.18 102.35,-127.31l-0.49 -2.99c-71.9,0.07 -130.17,58.4 -130.17,130.3 0,7.96 0.73,15.93 2.18,23.74l0.01 -0.01 26.4 6.27c1.06,0.25 2.14,0.38 3.23,0.38 2.88,0 5.69,-0.89 8.04,-2.54l2 -1.41 -11.37 -2.7z"/>
   <path class="fil5" d="M697.88 310.18l-14.51 10.33c-4.42,3.15 -7.59,7.78 -8.93,13.04l-3.06 11.94c-0.48,1.87 -0.73,3.8 -0.73,5.73 0,7.07 3.26,13.75 8.84,18.1 5.58,4.36 8.84,11.05 8.84,18.13 0,1.69 -0.18,3.38 -0.55,5.03l-6.18 27.55c-0.96,4.3 -3.13,8.22 -6.26,11.32l-5.39 5.34c-4.36,4.32 -6.81,10.21 -6.81,16.35 0,0.83 0.04,1.66 0.13,2.49l4.37 40.03 0.01 0.01c-21.7,14.95 -47.48,22.96 -73.83,22.96 -62.7,0 -116.51,-44.68 -128,-106.31l0.01 0 26.4 6.27c1.06,0.25 2.14,0.38 3.23,0.38 2.88,0 5.69,-0.89 8.04,-2.54l15.31 -10.75c2.35,-1.65 5.16,-2.54 8.03,-2.54 0,0 0.01,0 0.01,0l22.76 0c5.45,0 10.4,3.16 12.7,8.1l5.62 12.12c2.29,4.94 7.25,8.1 12.69,8.1 6.78,0 12.58,-4.86 13.77,-11.52l5.6 -31.08c0.15,-0.82 0.22,-1.66 0.22,-2.49 0,-5.37 -3.08,-10.27 -7.92,-12.6l-15.36 -7.4c-3.99,-1.92 -6.84,-5.63 -7.67,-9.98l-2.94 -15.39c-0.17,-0.86 -0.25,-1.74 -0.25,-2.62 0,-4.72 2.38,-9.12 6.32,-11.71l21.87 -14.32c3.95,-2.59 6.33,-6.99 6.33,-11.71 0,-0.76 -0.06,-1.52 -0.18,-2.27l-6.6 -40.08c0.03,0 0.08,0 0.11,0 40.9,0 79.43,19.28 103.95,51.99l0.01 0z"/>
   <path class="fil6" d="M495.54 418.85c-0.05,0 -0.09,0 -0.14,0 -1.07,0 -2.13,-0.12 -3.17,-0.36l-26.4 -6.27 -0.01 0c11.49,61.62 65.31,106.31 127.99,106.31 4.69,0 9.44,-0.27 14.1,-0.77 -54.53,-5.99 -99.5,-45.58 -112.37,-98.91l0 0z"/>
   <path class="fil3" d="M697.88 310.18c16.93,22.53 26.1,50 26.1,78.19 0,42.82 -21.07,82.91 -56.33,107.2l0 -0.01 -4.37 -40.03c-0.1,-0.83 -0.14,-1.66 -0.14,-2.49 0,-6.14 2.45,-12.03 6.81,-16.35l5.39 -5.34c3.13,-3.1 5.3,-7.02 6.27,-11.32l6.17 -27.55c0.37,-1.65 0.55,-3.34 0.55,-5.03 0,-7.08 -3.26,-13.77 -8.84,-18.13 -5.58,-4.35 -8.84,-11.03 -8.84,-18.1 0,-1.93 0.25,-3.86 0.73,-5.73l3.05 -11.94c1.35,-5.26 4.52,-9.89 8.94,-13.04l14.51 -10.33z"/>
   <g>
    <path class="fil7" d="M804.08 382.35c3.32,0.01 6.01,2.69 6.01,6.01 0,10.28 -0.74,20.59 -2.18,30.77 -0.41,2.97 -2.94,5.16 -5.93,5.17 -0.29,0 -0.58,-0.02 -0.86,-0.06 -2.96,-0.42 -5.16,-2.96 -5.16,-5.96 0,-0.28 0.02,-0.56 0.06,-0.84 1.35,-9.6 2.05,-19.33 2.05,-29.03 0,0 0,-0.05 0,-0.05 0.01,-3.32 2.7,-6.01 6.01,-6.01l0 0z"/>
    <path class="fil7" d="M807.91 357.6c0.04,0.28 0.06,0.57 0.06,0.85 0,2.99 -2.19,5.52 -5.15,5.95 -0.28,0.03 -0.57,0.05 -0.86,0.05 -2.99,0 -5.52,-2.2 -5.93,-5.16 -1.37,-9.62 -3.45,-19.16 -6.18,-28.48 -0.16,-0.54 -0.24,-1.11 -0.24,-1.69 0,-3.32 2.69,-6.01 6.01,-6.01 2.67,0 5.01,1.76 5.77,4.32 2.87,9.87 5.09,19.98 6.54,30.17l-0.02 0z"/>
    <path class="fil7" d="M794.54 451.47c2.42,0.84 4.04,3.12 4.04,5.68 0,0.67 -0.11,1.33 -0.33,1.97 -3.36,9.72 -7.47,19.25 -12.17,28.39 -1.03,1.99 -3.09,3.24 -5.34,3.24 0,0 -0.01,0 -0.01,0 -0.95,0 -1.9,-0.23 -2.74,-0.68 -2,-1.03 -3.25,-3.09 -3.25,-5.33 0,-0.96 0.23,-1.91 0.67,-2.76 4.44,-8.61 8.34,-17.64 11.49,-26.81 0.83,-2.41 3.11,-4.03 5.67,-4.03 0.67,0 1.34,0.12 1.96,0.33l0.01 0z"/>
    <path class="fil7" d="M786.09 289.25c0.44,0.86 0.67,1.8 0.67,2.76 0,3.31 -2.69,6 -6,6 -2.25,0 -4.31,-1.25 -5.34,-3.25 -4.43,-8.59 -9.55,-16.97 -15.17,-24.87 -0.75,-1.01 -1.15,-2.25 -1.15,-3.51 0,-3.32 2.68,-6.01 6,-6.01 1.96,0 3.79,0.96 4.91,2.56 5.96,8.36 11.37,17.22 16.07,26.33l0.01 -0.01z"/>
    <path class="fil7" d="M762.81 513.64c1.45,1.14 2.29,2.88 2.29,4.72 0,1.35 -0.45,2.66 -1.29,3.72 -6.34,8.06 -13.34,15.73 -20.78,22.82 -1.1,1.09 -2.61,1.7 -4.17,1.7 -3.32,0 -6.01,-2.69 -6.01,-6 0,-1.66 0.69,-3.25 1.9,-4.39 7.02,-6.7 13.63,-13.94 19.62,-21.56 1.15,-1.45 2.89,-2.3 4.73,-2.3 1.34,0 2.66,0.46 3.72,1.29l-0.01 0z"/>
    <path class="fil7" d="M712.53 562.04c0.63,0.97 0.96,2.1 0.96,3.25 0,2.04 -1.04,3.94 -2.75,5.05 -8.65,5.56 -17.71,10.55 -27.06,14.81 -0.81,0.37 -1.68,0.57 -2.57,0.57 -3.32,0 -6.01,-2.69 -6.01,-6.01 0,-2.38 1.41,-4.53 3.58,-5.49 8.81,-4.03 17.4,-8.74 25.55,-13.99 0.97,-0.62 2.1,-0.95 3.25,-0.95 2.04,0 3.95,1.04 5.05,2.76l0 0z"/>
    <path class="fil7" d="M649.23 591.34c0.11,0.46 0.17,0.94 0.17,1.42 0,2.77 -1.9,5.19 -4.59,5.84 -9.99,2.41 -20.21,4.13 -30.44,5.08 -0.19,0.01 -0.38,0.02 -0.57,0.02 -3.32,0 -6.01,-2.69 -6.01,-6 0,-3.1 2.36,-5.69 5.45,-5.98 9.66,-0.89 19.32,-2.54 28.75,-4.79 0.46,-0.12 0.93,-0.18 1.4,-0.18 2.77,0 5.19,1.9 5.84,4.59l0 0z"/>
    <path class="fil7" d="M614.37 173.05c3.09,0.29 5.44,2.88 5.44,5.98 0,3.32 -2.68,6.01 -6,6.01 -0.19,0 -0.38,-0.01 -0.57,-0.03 -6.47,-0.58 -13,-0.91 -19.5,-0.91 -3.21,0 -6.45,0.1 -9.64,0.23 -0.1,0 -0.2,0 -0.29,0 -3.32,0 -6.01,-2.69 -6.01,-6.01 0,-3.2 2.52,-5.85 5.73,-6 3.34,-0.13 6.83,-0.23 10.21,-0.23 6.87,0 13.8,0.35 20.62,0.97l0.01 -0.01z"/>
    <path class="fil7" d="M574.39 591.72c3.08,0.29 5.44,2.88 5.44,5.98 0,3.31 -2.68,6 -6,6 -0.18,0 -0.38,-0.01 -0.57,-0.02 -10.24,-0.96 -20.45,-2.69 -30.44,-5.08 -2.69,-0.66 -4.58,-3.07 -4.58,-5.84 0,-3.32 2.69,-6.01 6.01,-6.01 0.47,0 0.94,0.06 1.39,0.17 9.43,2.26 19.09,3.91 28.74,4.81l0.01 -0.01z"/>
    <path class="fil7" d="M550.07 182.56c0.11,0.46 0.17,0.94 0.17,1.42 0,2.77 -1.9,5.18 -4.6,5.83 -9.44,2.27 -18.73,5.27 -27.76,8.87 -0.71,0.28 -1.47,0.43 -2.23,0.43 -3.32,0 -6.01,-2.69 -6.01,-6.01 0,-2.46 1.49,-4.67 3.77,-5.58 9.53,-3.83 19.41,-6.97 29.41,-9.38 0.46,-0.12 0.94,-0.18 1.42,-0.18 2.77,0 5.18,1.9 5.83,4.6l0 0z"/>
    <path class="fil7" d="M508.94 574.22c2.14,0.97 3.51,3.11 3.51,5.46 0,3.32 -2.69,6.01 -6,6.01 -0.01,0 -0.01,0 -0.01,0 0,0 -0.01,0 -0.01,0 -0.86,0 -1.71,-0.19 -2.48,-0.55 -9.33,-4.27 -18.48,-9.26 -27.1,-14.82 -1.71,-1.09 -2.75,-3 -2.75,-5.04 0,-3.32 2.69,-6.01 6.01,-6.01 1.15,0 2.28,0.33 3.25,0.96 8.17,5.23 16.76,9.95 25.57,14l0.01 -0.01z"/>
    <path class="fil7" d="M485.18 208.19c0.62,0.96 0.96,2.09 0.96,3.25 0,2.04 -1.04,3.94 -2.76,5.05 -8.13,5.25 -15.99,11.14 -23.32,17.48 -1.1,0.96 -2.51,1.49 -3.96,1.49 -3.32,0 -6.01,-2.69 -6.01,-6.01 0,-1.75 0.77,-3.41 2.1,-4.55 7.77,-6.73 16.06,-12.98 24.7,-18.52 0.96,-0.61 2.09,-0.94 3.24,-0.94 2.04,0 3.94,1.03 5.05,2.75l0 0z"/>
    <path class="fil7" d="M452.85 536.19c1.16,1.13 1.81,2.69 1.81,4.31 0,3.31 -2.69,6 -6,6 -1.53,0 -2.99,-0.58 -4.11,-1.62 -7.4,-7.09 -14.41,-14.78 -20.75,-22.83 -0.83,-1.04 -1.27,-2.34 -1.27,-3.67 0,-3.32 2.69,-6.01 6.01,-6.01 1.83,0 3.55,0.83 4.69,2.25 5.98,7.62 12.61,14.88 19.61,21.58l0.01 -0.01z"/>
    <path class="fil7" d="M432.24 253.64c1.45,1.15 2.29,2.89 2.29,4.73 0,1.35 -0.45,2.66 -1.29,3.72 -6.02,7.62 -11.51,15.74 -16.37,24.13 -1.06,1.85 -3.05,3 -5.19,3 0,0 -0.01,0 -0.01,0 0,0 -0.01,0 -0.02,0 -1.05,0 -2.08,-0.29 -2.98,-0.82 -1.85,-1.07 -3,-3.05 -3,-5.2 0,-1.05 0.28,-2.09 0.81,-3.01 5.14,-8.89 10.98,-17.46 17.34,-25.54 1.12,-1.44 2.86,-2.29 4.71,-2.29 1.34,0 2.65,0.45 3.71,1.28l0 0z"/>
    <path class="fil7" d="M412.2 481.97c0.44,0.85 0.67,1.8 0.67,2.75 0,3.32 -2.69,6.01 -6.01,6.01 -2.24,0 -4.3,-1.26 -5.33,-3.25 -4.71,-9.12 -8.82,-18.67 -12.17,-28.38 -0.21,-0.62 -0.32,-1.29 -0.32,-1.96 0,-3.31 2.69,-6 6,-6 2.56,0 4.84,1.62 5.68,4.04 3.17,9.15 7.03,18.16 11.47,26.8l0.01 -0.01z"/>
    <path class="fil7" d="M397.01 313.89c2.42,0.83 4.05,3.11 4.05,5.68 0,0.66 -0.12,1.33 -0.33,1.96 -3.18,9.16 -5.72,18.61 -7.54,28.15 -0.53,2.83 -3,4.88 -5.88,4.88 -0.38,0 -0.77,-0.03 -1.14,-0.1 -2.83,-0.54 -4.88,-3.01 -4.88,-5.89 0,-0.38 0.04,-0.77 0.11,-1.14 1.94,-10.09 4.63,-20.13 7.96,-29.82 0.84,-2.42 3.13,-4.05 5.69,-4.05 0.67,0 1.33,0.11 1.96,0.33l0 0z"/>
    <path class="fil7" d="M391.59 417.44c0.04,0.28 0.06,0.57 0.06,0.85 0,2.99 -2.2,5.52 -5.15,5.94 -0.29,0.04 -0.57,0.06 -0.86,0.06 -2.99,0 -5.52,-2.2 -5.94,-5.16 -1.43,-10.16 -2.18,-20.49 -2.18,-30.77 0,0 0,0 0,0 0,-3.32 2.7,-6.01 6.02,-6.01 3.31,0 6,2.69 6,6 0,-0.01 0,0.02 0,0.02 0,9.72 0.71,19.45 2.06,29.07l-0.01 0z"/>
    <path class="fil7" d="M579.48 185.99c1.16,1.06 2.68,1.65 4.26,1.65 0.12,0 0.25,-0.01 0.37,-0.01 3.18,-0.13 6.47,-0.23 9.68,-0.23 6.48,0 12.98,0.33 19.41,0.91 0.2,0.02 0.41,0.03 0.61,0.03 3.56,-0.03 6.44,-2.92 6.44,-6.48 0,-3.33 -2.53,-6.12 -5.84,-6.45 -6.83,-0.62 -13.73,-0.97 -20.6,-0.97 -3.41,0 -6.93,0.11 -10.31,0.25 -3.45,0.16 -6.17,3.02 -6.17,6.48 0,1.84 0.78,3.59 2.15,4.82l0 0z"/>
    <path class="fil7" d="M515.65 202.4c0.83,0 1.65,-0.16 2.41,-0.47 8.97,-3.58 18.28,-6.58 27.69,-8.83 2.91,-0.71 4.96,-3.32 4.96,-6.31 0,-3.58 -2.9,-6.48 -6.48,-6.48 -0.51,0 -1.02,0.06 -1.52,0.18 -10.01,2.44 -19.91,5.6 -29.47,9.41 -2.46,0.99 -4.07,3.37 -4.07,6.02 0,3.58 2.9,6.48 6.48,6.48 0,0 0,0 0,0l0 0z"/>
    <path class="fil7" d="M483.64 219.72c1.88,-1.19 3.03,-3.26 3.03,-5.49 0,-3.58 -2.9,-6.48 -6.48,-6.48 -1.27,0 -2.51,0.37 -3.57,1.07 -8.68,5.58 -16.97,11.8 -24.75,18.54 -1.41,1.24 -2.23,3.02 -2.23,4.9 0,3.58 2.91,6.48 6.48,6.48 1.56,0 3.07,-0.56 4.25,-1.58 7.29,-6.33 15.14,-12.2 23.27,-17.44l0 0z"/>
    <path class="fil7" d="M671.11 178.48c-1.17,-0.9 -2.62,-1.39 -4.1,-1.39 -3.7,0 -6.7,3 -6.7,6.7 0,3.7 3,6.71 6.7,6.71 2.08,0 4.04,-0.97 5.31,-2.61 0.9,-1.17 1.39,-2.61 1.39,-4.1 0,-2.07 -0.96,-4.04 -2.6,-5.31l0 0z"/>
    <path class="fil7" d="M687.66 191.27c-1.17,-0.91 -2.62,-1.4 -4.1,-1.4 -3.7,0 -6.71,3 -6.71,6.71 0,3.7 3.01,6.71 6.71,6.71 3.71,0 6.71,-3.01 6.71,-6.71 0,-0.28 -0.02,-0.57 -0.06,-0.85 -0.22,-1.77 -1.14,-3.37 -2.55,-4.46l0 0z"/>
    <path class="fil7" d="M704.21 204.05c-1.17,-0.9 -2.61,-1.39 -4.09,-1.39 -3.71,0 -6.71,3 -6.71,6.71 0,3.7 3,6.7 6.71,6.7 3.7,0 6.7,-3 6.7,-6.7 0,-0.29 -0.01,-0.58 -0.05,-0.86 -0.22,-1.76 -1.15,-3.37 -2.56,-4.46l0 0z"/>
    <path class="fil7" d="M720.77 216.85c-1.17,-0.91 -2.61,-1.4 -4.1,-1.4 -3.7,0 -6.7,3 -6.7,6.71 0,3.7 3,6.7 6.7,6.7 2.08,0 4.04,-0.96 5.31,-2.6 0.91,-1.18 1.4,-2.62 1.4,-4.1 0,-2.08 -0.97,-4.05 -2.61,-5.32l0 0.01z"/>
    <path class="fil7" d="M641.87 589.28c-9.43,2.26 -19.03,3.9 -28.68,4.8 -3.33,0.31 -5.87,3.1 -5.87,6.44 0,3.58 2.9,6.48 6.47,6.48 0.2,0 0.41,0 0.62,-0.02 10.23,-0.95 20.51,-2.7 30.52,-5.09 2.89,-0.71 4.94,-3.32 4.94,-6.31 0,-3.58 -2.9,-6.48 -6.48,-6.48 -0.51,0 -1.02,0.06 -1.52,0.18l0 0z"/>
    <path class="fil7" d="M574.43 594.08c-9.62,-0.89 -19.26,-2.51 -28.68,-4.78 -0.5,-0.13 -1.01,-0.19 -1.52,-0.19 -3.58,0 -6.48,2.9 -6.48,6.48 0,2.99 2.05,5.6 4.96,6.3 10.02,2.43 20.23,4.15 30.49,5.1 0.21,0.02 0.41,0.03 0.62,0.03 3.56,-0.04 6.43,-2.93 6.43,-6.49 0,-3.32 -2.52,-6.11 -5.82,-6.44l0 -0.01z"/>
    <path class="fil7" d="M766.19 262.85c-0.35,-0.06 -0.71,-0.09 -1.07,-0.09 -3.58,0 -6.48,2.9 -6.48,6.48 0,1.35 0.42,2.66 1.21,3.76 5.63,7.87 10.7,16.21 15.15,24.81 1.09,2.23 3.35,3.64 5.82,3.64 3.58,0 6.48,-2.91 6.48,-6.48 0,-1.09 -0.27,-2.15 -0.79,-3.1 -4.72,-9.14 -10.13,-18.04 -16.1,-26.4 -1,-1.39 -2.52,-2.34 -4.22,-2.62l0 0z"/>
    <path class="fil7" d="M703.98 562.67c-8.12,5.24 -16.7,9.91 -25.49,13.93 -2.32,1.07 -3.8,3.37 -3.8,5.91 0,3.58 2.91,6.48 6.48,6.48 0.93,0 1.85,-0.2 2.7,-0.59 9.36,-4.26 18.47,-9.27 27.13,-14.83 1.82,-1.2 2.91,-3.24 2.91,-5.42 0,-3.58 -2.9,-6.48 -6.48,-6.48 -1.22,0 -2.42,0.35 -3.45,1l0 0z"/>
    <path class="fil7" d="M763.1 516.1c-1.14,-0.9 -2.55,-1.39 -4.01,-1.39 -1.98,0 -3.86,0.91 -5.09,2.47 -5.96,7.61 -12.56,14.84 -19.57,21.52 -1.27,1.21 -1.99,2.9 -1.99,4.67 0,3.57 2.9,6.48 6.48,6.48 1.66,0 3.25,-0.64 4.45,-1.78 7.44,-7.08 14.46,-14.79 20.81,-22.88 0.9,-1.14 1.39,-2.55 1.39,-4 0,-1.99 -0.91,-3.86 -2.47,-5.09l0 0z"/>
    <path class="fil7" d="M795.56 362.19c0.46,3.18 3.19,5.55 6.4,5.56 0.31,0 0.62,-0.02 0.92,-0.06 3.2,-0.46 5.57,-3.2 5.57,-6.42 0,-0.31 -0.02,-0.61 -0.07,-0.91 -1.45,-10.19 -3.66,-20.35 -6.54,-30.23 -0.81,-2.76 -3.34,-4.66 -6.22,-4.66 -3.58,0 -6.48,2.9 -6.48,6.48 0,0.62 0.09,1.23 0.26,1.82 2.71,9.29 4.79,18.82 6.16,28.41l0 0.01z"/>
    <path class="fil7" d="M794.69 453.85c-0.68,-0.23 -1.4,-0.35 -2.11,-0.35 -2.77,0 -5.23,1.75 -6.13,4.36 -3.15,9.14 -7.02,18.14 -11.46,26.74 -0.53,0.95 -0.81,2.03 -0.81,3.13 0,3.58 2.9,6.48 6.48,6.48 2.49,0 4.76,-1.43 5.84,-3.67 4.72,-9.16 8.84,-18.72 12.19,-28.46 0.24,-0.67 0.36,-1.39 0.36,-2.11 0,-2.76 -1.75,-5.22 -4.36,-6.12l0 0z"/>
    <path class="fil7" d="M386.08 357.75c0.4,0.08 0.81,0.11 1.22,0.11 3.11,0 5.78,-2.21 6.36,-5.26 1.82,-9.49 4.35,-18.94 7.5,-28.09 0.25,-0.68 0.37,-1.4 0.37,-2.12 0,-3.57 -2.9,-6.47 -6.48,-6.47 -2.76,0 -5.22,1.75 -6.13,4.36 -3.33,9.74 -6.05,19.79 -7.98,29.89 -0.08,0.39 -0.12,0.8 -0.12,1.21 0,3.11 2.21,5.78 5.26,6.37l0 0z"/>
    <path class="fil7" d="M509.14 576.62c-8.8,-4.03 -17.38,-8.74 -25.53,-13.97 -1.04,-0.67 -2.26,-1.03 -3.5,-1.03 -3.58,0 -6.48,2.9 -6.48,6.48 0,2.2 1.12,4.26 2.97,5.45 8.68,5.55 17.8,10.59 27.16,14.86 0.83,0.38 1.75,0.58 2.67,0.58 0.01,0 0.01,0 0.01,0 0,0 0,0 0,0 3.58,0 6.48,-2.9 6.48,-6.48 0,-2.54 -1.48,-4.84 -3.78,-5.89l0 0z"/>
    <path class="fil7" d="M392.06 420.2c-1.36,-9.6 -2.04,-19.3 -2.04,-29 0,0 0,-0.02 0,-0.02 0,-0.02 0,-0.05 0,-0.07 0,-3.58 -2.9,-6.48 -6.48,-6.48 -3.58,0 -6.48,2.9 -6.48,6.48 0,0.02 0,0.05 0,0.08 0,0.01 0,0.01 0,0.01 0,10.31 0.72,20.61 2.17,30.81 0.47,3.2 3.19,5.57 6.41,5.58 0.31,0 0.62,-0.02 0.92,-0.06 3.2,-0.46 5.57,-3.2 5.57,-6.43 0,-0.3 -0.02,-0.6 -0.07,-0.9l0 0z"/>
    <path class="fil7" d="M804.08 384.71c-3.57,0 -6.47,2.9 -6.48,6.48 0,0 0,0 0,0 0,9.69 -0.7,19.42 -2.04,29 -0.05,0.32 -0.07,0.62 -0.07,0.93 0,3.22 2.37,5.96 5.56,6.41 0.31,0.04 0.62,0.07 0.93,0.07 3.21,-0.02 5.94,-2.39 6.4,-5.57 1.43,-10.18 2.18,-20.55 2.18,-30.84 0,-3.58 -2.9,-6.48 -6.48,-6.48l0 0z"/>
    <path class="fil7" d="M401.17 457.85c-0.91,-2.61 -3.36,-4.36 -6.13,-4.36 -3.58,0 -6.48,2.9 -6.48,6.48 0,0.72 0.12,1.44 0.36,2.12 3.35,9.73 7.47,19.26 12.2,28.42 1.07,2.23 3.33,3.65 5.81,3.65 3.58,0 6.48,-2.91 6.48,-6.48 0,-1.09 -0.27,-2.15 -0.79,-3.1 -4.45,-8.62 -8.29,-17.56 -11.45,-26.72l0 -0.01z"/>
    <path class="fil7" d="M433.6 517.16c-1.23,-1.56 -3.11,-2.47 -5.09,-2.47 -3.58,0 -6.48,2.9 -6.48,6.48 0,1.45 0.49,2.87 1.39,4.01 6.35,8.09 13.35,15.78 20.8,22.88 1.2,1.11 2.78,1.74 4.42,1.74 3.58,0 6.48,-2.91 6.48,-6.48 0,-1.75 -0.7,-3.42 -1.95,-4.64 -7.01,-6.67 -13.61,-13.93 -19.58,-21.53l0.01 0.01z"/>
    <path class="fil7" d="M432.53 256.11c-1.14,-0.9 -2.55,-1.39 -4,-1.39 -1.99,0 -3.87,0.91 -5.1,2.47 -6.35,8.09 -12.2,16.69 -17.36,25.6 -0.57,0.99 -0.87,2.11 -0.87,3.25 0,3.57 2.9,6.48 6.48,6.48 2.31,0 4.45,-1.24 5.61,-3.24 4.85,-8.36 10.32,-16.48 16.32,-24.07 0.9,-1.14 1.39,-2.56 1.39,-4.01 0,-1.99 -0.91,-3.86 -2.47,-5.09l0 0z"/>
    <path class="fil7" d="M737.6 289.65c0.82,0.23 1.68,0.34 2.53,0.34 2.99,0 5.82,-1.39 7.64,-3.76 0.4,-0.52 0.71,-1.1 0.91,-1.73l9.41 -29.29 26.02 -16.57c0.55,-0.35 1.04,-0.8 1.44,-1.32 1.3,-1.69 2.01,-3.76 2.01,-5.9 0,-5.34 -4.33,-9.66 -9.66,-9.66 -0.11,0 -0.23,0 -0.34,0l-30.24 -4.04 -15.13 -11.69 20.78 -26.91c1.24,-1.6 1.91,-3.57 1.91,-5.59 0,-2.83 -1.31,-5.51 -3.55,-7.24l-6.51 -5.03c-2.22,-1.7 -4.93,-2.63 -7.73,-2.63 -3.04,0 -5.99,1.1 -8.29,3.09l-25.39 22.08 -40.15 -31c-4.03,-3.11 -8.99,-4.8 -14.08,-4.8 -12.75,0 -23.09,10.34 -23.09,23.1 0,7.14 3.3,13.87 8.94,18.24l40.15 31.01 -14.95 30.15c-0.85,1.74 -1.3,3.66 -1.3,5.6 0,3.92 1.81,7.61 4.9,10.01l6.51 5.03c1.59,1.24 3.55,1.91 5.57,1.91 0,0 0,0 0,0 0.4,0 0.79,-0.02 1.19,-0.07 2.4,-0.31 4.59,-1.56 6.07,-3.49l20.79 -26.91 15.13 11.69 11.61 28.18c0.78,3.49 3.44,6.27 6.9,7.2l0 0zm-15.52 -48.29c-0.37,-0.92 -0.99,-1.72 -1.77,-2.33l-29.09 -22.46c-0.99,-0.77 -2.21,-1.18 -3.46,-1.18 -3.13,0 -5.66,2.53 -5.66,5.66 0,1.75 0.81,3.41 2.2,4.48l3.8 2.93 -19.46 25.2 -4.79 -3.7c-0.32,-0.25 -0.51,-0.64 -0.51,-1.05 0,-0.2 0.04,-0.4 0.13,-0.57l17.01 -34.32c0.39,-0.78 0.59,-1.64 0.59,-2.51 0,-1.75 -0.81,-3.41 -2.2,-4.48l-43.82 -33.85c-2.88,-2.22 -4.57,-5.67 -4.57,-9.31 0,-6.5 5.27,-11.77 11.77,-11.77 2.6,0 5.14,0.86 7.2,2.45l43.81 33.85c0.99,0.76 2.21,1.18 3.46,1.18 1.37,0 2.69,-0.49 3.72,-1.39l28.89 -25.12c0.24,-0.21 0.54,-0.32 0.86,-0.32 0.29,0 0.57,0.09 0.8,0.27l4.79 3.7 -19.45 25.19 -3.8 -2.93c-0.99,-0.77 -2.21,-1.18 -3.46,-1.18 -3.13,0 -5.66,2.53 -5.66,5.66 0,1.75 0.81,3.41 2.2,4.48l29.09 22.47c0.79,0.61 1.72,1 2.71,1.13l28.32 3.79 -22.35 14.23c-1.11,0.71 -1.94,1.79 -2.35,3.05l-8.07 25.15 -10.88 -26.4z"/>
    <path class="fil7" d="M593.81 255.36c-74.9,0 -135.83,60.93 -135.83,135.83 0,74.9 60.93,135.83 135.83,135.83 74.9,0 135.83,-60.93 135.83,-135.83 0,-74.9 -60.93,-135.83 -135.83,-135.83zm-124.51 135.83c0,-67.05 53.28,-121.88 119.72,-124.41l5.8 35.24c0.07,0.44 0.1,0.89 0.1,1.35 0,2.81 -1.41,5.43 -3.76,6.97l-21.87 14.32c-5.54,3.61 -8.89,9.79 -8.89,16.41 0,1.25 0.12,2.49 0.36,3.72l2.94 15.39c1.17,6.11 5.17,11.31 10.77,14.02l15.37 7.4c2.88,1.39 4.71,4.31 4.71,7.52 0,0.49 -0.04,0.98 -0.13,1.46l-5.59 31.09c-0.24,1.27 -0.76,2.47 -1.53,3.51 -1.58,2.1 -4.05,3.34 -6.68,3.34 -3.24,0 -6.19,-1.88 -7.55,-4.82l-5.63 -12.12c-3.24,-6.92 -10.19,-11.35 -17.83,-11.37l-22.76 0c-0.01,0 -0.02,0 -0.03,0 -4.03,0 -7.97,1.25 -11.27,3.57l-15.3 10.75c-1.41,0.98 -3.08,1.51 -4.79,1.51 -0.65,0 -1.3,-0.08 -1.93,-0.23l-22.74 -5.4c-0.99,-6.35 -1.49,-12.78 -1.49,-19.2 0,0 0,-0.01 0,-0.01l0 -0.01zm189.83 87l3.99 36.58c-20.12,13.15 -43.64,20.15 -67.68,20.15 -0.05,0 -0.09,0 -0.14,0 -57.79,0 -106.5,-39.57 -120.48,-93.05l17.59 4.18c1.48,0.35 3,0.53 4.53,0.53 4.04,0 7.99,-1.25 11.3,-3.56l15.3 -10.75c1.4,-0.98 3.07,-1.51 4.77,-1.51 0.01,0 0.02,0 0.02,0l22.77 0c3.24,0 6.18,1.88 7.55,4.82l5.63 12.12c2.89,6.29 8.91,10.58 15.8,11.26 0.69,0.08 1.39,0.11 2.08,0.11 0.01,0 0.03,0 0.04,0 6.17,0 11.98,-2.92 15.65,-7.88 1.82,-2.45 3.06,-5.29 3.6,-8.29l5.6 -31.09c0.2,-1.13 0.3,-2.29 0.3,-3.45 0,-7.55 -4.32,-14.45 -11.12,-17.74l-15.36 -7.39c-2.37,-1.15 -4.07,-3.36 -4.57,-5.95l-2.94 -15.39c-0.1,-0.52 -0.15,-1.05 -0.15,-1.58 0,-2.8 1.42,-5.42 3.77,-6.95l21.87 -14.32c5.54,-3.63 8.88,-9.82 8.88,-16.45 0,-1.07 -0.09,-2.13 -0.26,-3.18l-5.48 -33.32c34.71,1.87 67.09,18.19 89.21,45l-9.62 6.85c-5.52,3.94 -9.47,9.7 -11.15,16.25l-3.05 11.95c-0.6,2.31 -0.9,4.71 -0.9,7.1 0,8.82 4.06,17.16 11.02,22.59 4.2,3.3 6.65,8.36 6.65,13.7 0,1.26 -0.14,2.53 -0.41,3.76l-6.18 27.55c-0.72,3.24 -2.36,6.2 -4.71,8.53l-5.39 5.34c-5.44,5.35 -8.5,12.68 -8.5,20.31 0,1.06 0.06,2.12 0.17,3.18l0 -0.01zm69 -91.26c0,-0.01 0,0.01 0,0.01 0,37.52 -16.97,73.06 -46.13,96.65l-3.28 -30.12c-0.07,-0.63 -0.11,-1.27 -0.11,-1.91 0,-4.62 1.85,-9.05 5.14,-12.29l5.39 -5.34c3.89,-3.84 6.6,-8.74 7.8,-14.09l6.18 -27.55c0.45,-2.04 0.67,-4.13 0.67,-6.22 0,-8.83 -4.05,-17.19 -11,-22.65 -4.2,-3.28 -6.66,-8.32 -6.66,-13.66 0,-1.45 0.18,-2.9 0.54,-4.3l3.06 -11.94c1.01,-3.97 3.4,-7.46 6.74,-9.83l9.88 -7.04c14.18,20.64 21.78,45.1 21.78,70.14 0,0.03 0,0.11 0,0.14l0 0z"/>
   </g>
  </g>
 </g>
</svg>
