<?xml version="1.0" encoding="UTF-8"?>
<!DOCTYPE svg PUBLIC "-//W3C//DTD SVG 1.1//EN" "http://www.w3.org/Graphics/SVG/1.1/DTD/svg11.dtd">
<!-- Creator: CorelDRAW 2019 (64-Bit) -->
<svg xmlns="http://www.w3.org/2000/svg" xml:space="preserve" width="884px" height="562px" version="1.1" style="shape-rendering:geometricPrecision; text-rendering:geometricPrecision; image-rendering:optimizeQuality; fill-rule:evenodd; clip-rule:evenodd"
viewBox="0 0 611.47 388.74"
 xmlns:xlink="http://www.w3.org/1999/xlink">
 <defs>
  <style type="text/css">
   <![CDATA[
    .fil1 {fill:none}
    .fil2 {fill:#2F4859}
    .fil3 {fill:#3A556A}
    .fil6 {fill:#D5D6DB}
    .fil5 {fill:#E1E6E9}
    .fil0 {fill:#E7BE29}
    .fil7 {fill:#EBF0F3}
    .fil4 {fill:#FE7058}
   ]]>
  </style>
 </defs>
 <g id="Layer_x0020_1">
  <metadata id="CorelCorpID_0Corel-Layer"/>
  <circle class="fil0" cx="305.73" cy="194.37" r="155.63"/>
  <rect class="fil1" width="611.47" height="388.74"/>
  <g id="transport.svg">
   <path class="fil2" d="M377.16 259.93l15.56 0c2.96,0 5.37,2.41 5.37,5.37l0 30.91c0,2.97 -2.41,5.37 -5.37,5.37l-15.56 0c-2.97,0 -5.38,-2.4 -5.38,-5.37l0 -30.91c0,-2.96 2.41,-5.37 5.38,-5.37z"/>
   <path class="fil2" d="M218.75 259.93l15.56 0c2.97,0 5.38,2.41 5.38,5.37l0 30.91c0,2.97 -2.41,5.37 -5.38,5.37l-15.56 0c-2.97,0 -5.37,-2.4 -5.37,-5.37l0 -30.91c0,-2.96 2.4,-5.37 5.37,-5.37z"/>
   <path class="fil3" d="M395.07 184.89c-1.3,0.11 -2.29,1.2 -2.29,2.5 0,0 0,0.01 0,0.01l0 5.54 -7.71 0 1.96 5.81c0,0 24.93,0 24.23,-8.19 -0.54,-6.36 -11.36,-6.11 -16.19,-5.67l0 0z"/>
   <path class="fil3" d="M216.4 184.89c1.29,0.11 2.29,1.2 2.29,2.5 0,0 0,0.01 0,0.01l0 5.54 7.71 0 -1.96 5.81c0,0 -24.93,0 -24.23,-8.19 0.54,-6.36 11.36,-6.11 16.19,-5.67l0 0z"/>
   <path class="fil4" d="M404.7 223.02l-14.06 -26.18c0,0 -18.4,-42.16 -26.17,-45.56 -7.5,-3.28 -55.46,-4.29 -58.65,-4.35l-0.17 0c-3.18,0.06 -51.16,1.07 -58.65,4.35 -7.76,3.4 -26.18,45.56 -26.18,45.56l-14.05 26.18c0,0 -5.09,20.88 2.66,50.54 1.64,6.12 7.19,10.38 13.53,10.38 0.01,0 0.03,0 0.05,0l165.45 0c0.01,0 0.03,0 0.05,0 6.34,0 11.88,-4.26 13.52,-10.38 7.75,-29.66 2.67,-50.54 2.67,-50.54l0 0z"/>
   <path class="fil5" d="M355.3 236.86c0,0 -1.91,-10.6 5.43,-15.12 5.46,-3.48 11.26,-6.52 17.22,-9.02 5.92,-2.54 14.96,-3.31 14.96,2.72 0,6.03 3.67,14.65 -7.06,17.26 -10.72,2.6 -29.34,8.79 -30.55,4.17l0 -0.01z"/>
   <path class="fil6" d="M381.89 215.43c0,0 0,0 0,0 -4.2,0 -7.61,3.4 -7.61,7.6 0,4.2 3.41,7.6 7.61,7.6 4.19,0 7.6,-3.4 7.6,-7.6 0,0 0,0 0,0 0,-4.2 -3.41,-7.6 -7.6,-7.6 0,0 0,0 0,0l0 0z"/>
   <path class="fil6" d="M367.2 222.63c-2.95,0 -5.34,2.39 -5.34,5.34 0,2.94 2.39,5.33 5.34,5.33 2.95,0 5.34,-2.39 5.34,-5.33 0,-2.95 -2.39,-5.34 -5.34,-5.34l0 0z"/>
   <polygon class="fil3" points="260.34,229.65 269.65,244.07 341.81,244.07 351.13,229.65 "/>
   <path class="fil5" d="M256.17 236.86c0,0 1.91,-10.6 -5.43,-15.12 -5.46,-3.49 -11.26,-6.52 -17.23,-9.03 -5.93,-2.54 -14.96,-3.31 -14.96,2.72 0,6.02 -3.67,14.65 7.05,17.25 10.73,2.61 29.36,8.81 30.57,4.18l0 0z"/>
   <path class="fil7" d="M365.52 157.51c-0.83,-1.84 -2.63,-3.04 -4.65,-3.1l-55.05 -1.45 -0.17 0 -55.06 1.45c-2.01,0.06 -3.82,1.26 -4.65,3.1l-16 35.43 151.59 0 -16.01 -35.43z"/>
   <path class="fil6" d="M229.58 215.43c0,0 0,0 0,0 4.2,0 7.6,3.4 7.6,7.6 0,4.2 -3.4,7.6 -7.6,7.6 -4.2,0 -7.6,-3.4 -7.6,-7.6 0,0 0,0 0,0 0,-4.2 3.4,-7.6 7.6,-7.6 0,0 0,0 0,0l0 0z"/>
   <path class="fil6" d="M244.27 222.63c2.95,0 5.34,2.39 5.34,5.34 0,2.94 -2.39,5.33 -5.34,5.33 -2.95,0 -5.34,-2.39 -5.34,-5.33 0,-2.95 2.39,-5.34 5.34,-5.34l0 0z"/>
   <path class="fil7" d="M382.9 254.99c-5.31,0 -9.61,4.3 -9.61,9.61 0,5.3 4.3,9.61 9.61,9.61 5.3,0 9.6,-4.31 9.6,-9.61 0,-5.31 -4.3,-9.61 -9.6,-9.61l0 0z"/>
   <path class="fil7" d="M228.57 254.99c-5.3,0 -9.6,4.3 -9.6,9.61 0,5.3 4.3,9.61 9.6,9.61 5.31,0 9.61,-4.31 9.61,-9.61 0,0 0,0 0,0 0,-5.31 -4.3,-9.61 -9.61,-9.61 0,0 0,0 0,0l0 0z"/>
   <path class="fil4" d="M325.29 89.36c-11.37,-6.84 -19.56,4.42 -19.56,4.42 0,0 -8.18,-11.26 -19.55,-4.42 -13.11,7.88 -9.21,41.32 19.55,51.76 28.77,-10.44 32.67,-43.88 19.56,-51.76z"/>
  </g>
 </g>
</svg>
