<?xml version="1.0" encoding="UTF-8"?>
<!DOCTYPE svg PUBLIC "-//W3C//DTD SVG 1.1//EN" "http://www.w3.org/Graphics/SVG/1.1/DTD/svg11.dtd">
<!-- Creator: CorelDRAW 2019 (64-Bit) -->
<svg xmlns="http://www.w3.org/2000/svg" xml:space="preserve" width="283px" height="180px" version="1.1" style="shape-rendering:geometricPrecision; text-rendering:geometricPrecision; image-rendering:optimizeQuality; fill-rule:evenodd; clip-rule:evenodd"
viewBox="0 0 36.05 22.93"
 xmlns:xlink="http://www.w3.org/1999/xlink"
 enable-background="new 0 0 509.532 509.532">
 <defs>
  <style type="text/css">
   <![CDATA[
    .fil0 {fill:none}
    .fil8 {fill:#1C9585}
    .fil6 {fill:#3C5A73}
    .fil4 {fill:#55696E}
    .fil3 {fill:#748488}
    .fil1 {fill:#80391B}
    .fil7 {fill:#A5C8CD}
    .fil2 {fill:#D13D2C}
    .fil5 {fill:#E64937}
   ]]>
  </style>
 </defs>
 <g id="Layer_x0020_1">
  <metadata id="CorelCorpID_0Corel-Layer"/>
  <rect class="fil0" width="36.05" height="22.93"/>
  <g id="travel-alone.svg">
   <g>
    <g>
     <path class="fil1" d="M23.63 10.84l-1.98 -0.5c-0.12,-0.03 -0.23,-0.09 -0.31,-0.19l-0.57 -0.65 0.01 -0.84 0.91 0.05 0.44 0.5 1.8 0.46c0.32,0.08 0.52,0.41 0.44,0.73 -0.08,0.33 -0.41,0.53 -0.74,0.44l0 0z"/>
    </g>
    <g>
     <path class="fil2" d="M21.69 8.71l-1.12 -1.29c-0.22,-0.25 -0.6,-0.28 -0.86,-0.06 -0.25,0.22 -0.28,0.6 -0.06,0.86l1.12 1.28 0.92 -0.79z"/>
    </g>
    <g>
     <path class="fil3" d="M16.7 18.96c-0.36,-0.17 -0.52,-0.6 -0.35,-0.97l1.42 -3.06 -0.14 -2.53 0.7 -0.8 0.76 0.69 0.14 2.75c0.01,0.12 -0.02,0.23 -0.06,0.34l-1.5 3.22c-0.17,0.37 -0.6,0.53 -0.97,0.36z"/>
    </g>
    <g>
     <path class="fil4" d="M20.54 18.36l-0.3 -3.5 -0.94 -2.77c-0.12,-0.39 0.08,-0.8 0.46,-0.93 0.38,-0.12 0.8,0.08 0.92,0.46l0.96 2.86c0.02,0.05 0.03,0.11 0.04,0.17l0.31 3.58c0.04,0.4 -0.26,0.76 -0.66,0.79 -0.4,0.04 -0.75,-0.26 -0.79,-0.66l0 0z"/>
    </g>
    <path class="fil5" d="M20.49 7.07l-1.6 -0.1c-0.49,-0.04 -0.92,0.34 -0.95,0.83l-0.31 4.6 3.39 0.23 0.31 -4.6c0.03,-0.5 -0.34,-0.92 -0.84,-0.96l0 0z"/>
    <path class="fil1" d="M20.08 3.9c-0.73,-0.05 -1.36,0.51 -1.41,1.24 -0.05,0.73 0.5,1.37 1.23,1.42 0.74,0.05 1.37,-0.51 1.42,-1.24 0.05,-0.73 -0.51,-1.37 -1.24,-1.42z"/>
    <g>
     <path class="fil6" d="M12.61 18.27c-0.2,-0.1 -0.44,-0.01 -0.53,0.19 -0.09,0.2 -0.01,0.44 0.19,0.53 0.2,0.09 0.44,0 0.53,-0.2 0.09,-0.2 0.01,-0.43 -0.19,-0.52z"/>
     <g>
      <polygon class="fil7" points="15.05,14.63 14.6,14.38 16.06,11.18 16.51,11.43 "/>
     </g>
     <path class="fil8" d="M15.18 14.14l-1.11 -0.51c-0.25,-0.12 -0.54,-0.01 -0.66,0.24l-1.71 3.7c-0.11,0.25 0,0.55 0.25,0.66l1.11 0.52c0.25,0.11 0.55,0 0.66,-0.25l1.71 -3.7c0.11,-0.25 0,-0.55 -0.25,-0.66l0 0z"/>
    </g>
    <g>
     <path class="fil1" d="M17.68 7.98l-0.85 0.45c-0.12,0.07 -0.22,0.17 -0.27,0.3l-0.95 2.28c-0.13,0.31 0.02,0.66 0.32,0.79 0.31,0.13 0.67,-0.01 0.8,-0.32l0.87 -2.08 0.59 -0.32 0.21 -0.78 -0.72 -0.32z"/>
    </g>
    <g>
     <path class="fil2" d="M19.88 7.49c-0.16,-0.29 -0.52,-0.41 -0.82,-0.25l-1.38 0.74 0.51 1.1 1.44 -0.77c0.3,-0.15 0.41,-0.52 0.25,-0.82l0 0z"/>
    </g>
   </g>
  </g>
 </g>
</svg>
