<?xml version="1.0" encoding="UTF-8"?>
<!DOCTYPE svg PUBLIC "-//W3C//DTD SVG 1.1//EN" "http://www.w3.org/Graphics/SVG/1.1/DTD/svg11.dtd">
<!-- Creator: CorelDRAW 2019 (64-Bit) -->
<svg xmlns="http://www.w3.org/2000/svg" xml:space="preserve" width="283px" height="180px" version="1.1" style="shape-rendering:geometricPrecision; text-rendering:geometricPrecision; image-rendering:optimizeQuality; fill-rule:evenodd; clip-rule:evenodd"
viewBox="0 0 36.05 22.93"
 xmlns:xlink="http://www.w3.org/1999/xlink">
 <defs>
  <style type="text/css">
   <![CDATA[
    .fil0 {fill:none}
    .fil6 {fill:#4482C3}
    .fil2 {fill:#7F5B53}
    .fil1 {fill:#CB8252}
    .fil5 {fill:#E64C3C}
    .fil4 {fill:#F0C419}
    .fil3 {fill:white}
   ]]>
  </style>
 </defs>
 <g id="Layer_x0020_1">
  <metadata id="CorelCorpID_0Corel-Layer"/>
  <rect class="fil0" width="36.05" height="22.93"/>
  <g id="travel-insurance.svg">
   <g>
    <path class="fil1" d="M19.11 9.29l-2.17 0c-0.36,0 -0.66,0.29 -0.66,0.65l0 0.87c0,0.12 0.1,0.22 0.22,0.22 0.12,0 0.22,-0.1 0.22,-0.22l0 -0.87c0,-0.12 0.1,-0.22 0.22,-0.22l2.17 0c0.12,0 0.22,0.1 0.22,0.22l0 0.87c0,0.12 0.09,0.22 0.21,0.22 0.12,0 0.22,-0.1 0.22,-0.22l0 -0.87c0,-0.36 -0.29,-0.65 -0.65,-0.65z"/>
    <path class="fil2" d="M13.24 10.81l9.56 0c0.24,0 0.44,0.2 0.44,0.44l0 6.08c0,0.24 -0.2,0.44 -0.44,0.44l-9.56 0c-0.24,0 -0.43,-0.2 -0.43,-0.44l0 -6.08c0,-0.24 0.19,-0.44 0.43,-0.44z"/>
    <path class="fil3" d="M20.41 12.4l0 0.48c0.01,0.1 -0.03,0.2 -0.11,0.28l-0.8 0.68 0 0.01 0.33 2.47c-0.01,0.16 -0.21,0.22 -0.28,0.1l-1.13 -1.66 -0.72 0.67 0.02 0.97c0.01,0.12 -0.06,0.23 -0.17,0.26 -0.11,0.04 -0.23,0 -0.3,-0.09l-0.27 -0.43 -0.48 0.26c-0.09,0.05 -0.2,0.05 -0.29,0 -0.09,-0.05 -0.14,-0.15 -0.14,-0.25 0,-0.05 0.01,-0.1 0.04,-0.14l0.27 -0.49 -0.41 -0.27c-0.1,-0.06 -0.15,-0.19 -0.11,-0.3 0.04,-0.11 0.15,-0.18 0.26,-0.17l0.97 0.03 0.66 -0.72 -1.66 -1.11c-0.13,-0.07 -0.06,-0.28 0.09,-0.28l2.49 0.32 0.01 0 0.69 -0.8c0.07,-0.07 0.18,-0.11 0.28,-0.1l0.47 0c0.16,0 0.29,0.13 0.29,0.28z"/>
    <g>
     <path class="fil4" d="M14.33 17.77l-1.09 0c-0.24,-0.01 -0.43,-0.2 -0.43,-0.44l0 -1.09c0.84,0 1.52,0.69 1.52,1.53z"/>
     <path class="fil4" d="M13.24 10.81l1.09 0c0,0.84 -0.68,1.52 -1.52,1.52l0 -1.08c0,-0.24 0.19,-0.44 0.43,-0.44z"/>
     <path class="fil4" d="M23.24 11.25l0 1.08c-0.84,0 -1.52,-0.68 -1.52,-1.52l1.08 0c0.24,0 0.44,0.2 0.44,0.44z"/>
     <path class="fil4" d="M23.24 16.24l0 1.09c0,0.24 -0.2,0.43 -0.44,0.44l-1.08 0c0,-0.84 0.68,-1.53 1.52,-1.53z"/>
     <g>
      <path class="fil4" d="M12.81 12.33c0.84,0 1.52,-0.68 1.52,-1.52l-1.52 1.52zm0 0l0 0 0 0z"/>
     </g>
     <g>
      <path class="fil4" d="M23.24 12.33c-0.84,0 -1.52,-0.68 -1.52,-1.52l1.52 1.52zm0 0l0 0 0 0z"/>
     </g>
     <g>
      <path class="fil4" d="M12.81 16.24c0.84,0 1.52,0.69 1.52,1.53l-1.52 -1.53zm0 0l0 0 0 0z"/>
     </g>
     <g>
      <path class="fil4" d="M23.24 16.24c-0.84,0 -1.52,0.69 -1.52,1.53l1.52 -1.53zm0 0l0 0 0 0z"/>
     </g>
    </g>
    <path class="fil5" d="M24.32 9.01c-0.05,-0.57 -0.91,-1.02 -1.95,-1.02 -1.01,0 -1.85,0.42 -1.95,0.97 0,-0.05 0,-0.11 -0.01,-0.19 -0.12,-0.69 -0.42,-1.34 -0.87,-1.87 -0.21,-0.22 -0.34,-1.63 -1.5,-1.74 3.44,0 6.23,1.84 6.28,3.85z"/>
    <path class="fil4" d="M18.02 5.16c-0.88,0.09 -1.3,1.3 -1.52,1.52 -0.49,0.54 -0.79,1.23 -0.84,1.96 -0.03,0.26 -0.03,0.43 -0.03,0.43 0,-0.6 -0.87,-1.08 -1.95,-1.08 -1.05,0 -1.9,0.45 -1.96,1.02 0.06,-2.01 2.86,-3.84 6.3,-3.85z"/>
    <path class="fil6" d="M20.42 8.96l0 0.01c0,0.03 -0.01,0.07 -0.01,0.1 0,-0.6 -1.07,-1.08 -2.39,-1.08 -1.32,0 -2.39,0.48 -2.39,1.08 0,0 0,-3.68 2.39,-3.91l0.02 0c2.14,0.21 2.36,3.18 2.38,3.8z"/>
   </g>
   <g>
   </g>
   <g>
   </g>
   <g>
   </g>
   <g>
   </g>
   <g>
   </g>
   <g>
   </g>
   <g>
   </g>
   <g>
   </g>
   <g>
   </g>
   <g>
   </g>
   <g>
   </g>
   <g>
   </g>
   <g>
   </g>
   <g>
   </g>
   <g>
   </g>
  </g>
 </g>
</svg>
